<svg width="50" height="50" viewBox="0 0 50 50" fill="none" xmlns="http://www.w3.org/2000/svg">
<path d="M48.953 7.845C48.67 6.33104 48.1185 4.96037 47.3574 3.87871C46.5748 2.76379 45.6156 1.96626 44.5703 1.5614C40.6583 0.0154866 24.9854 0.0154869 24.9854 0.0154869C18.4516 -0.0959669 11.9193 0.394235 5.42556 1.48333C4.38026 1.9181 3.42283 2.73345 2.63843 3.85685C1.8677 4.96866 1.30944 6.33969 1.01782 7.84188C0.31727 13.5001 -0.0231027 19.2453 0.00128563 25C-0.023711 30.7495 0.315827 36.4928 1.01782 42.1581C1.30319 43.654 1.85937 45.0188 2.63218 46.1213C3.40499 47.2237 4.36737 48.0201 5.42556 48.4417C9.38961 49.9845 24.9854 49.9845 24.9854 49.9845C31.5276 50.0961 38.0682 49.6059 44.5703 48.5166C45.6156 48.1118 46.5748 47.3143 47.3574 46.1993C48.1281 45.0969 48.676 43.7259 48.951 42.233C49.6698 36.577 50.0193 30.8295 49.9946 25.0718C50.0486 19.2898 49.6996 13.5151 48.953 7.84188V7.845ZM20.0028 35.6933V14.3097L33.0427 25.0031L20.0028 35.6933Z" fill="#8C8A8A"/>
</svg>
