<svg width="128" height="128" viewBox="0 0 128 128" fill="none" xmlns="http://www.w3.org/2000/svg">
<path d="M67.4724 33.28C67.4724 33.28 72.5863 29.8332 72.5106 24.0429C72.4348 18.2526 71.158 19.8642 70.9329 11.9454C71.1558 5.21256 76.8 0 76.8 0C75.9778 0.273659 67.176 3.34038 65.6853 10.1905C65.4736 11.1701 64.56 15.3662 66.4607 18.9476C66.9398 19.849 67.9047 21.2911 68.3748 23.6064C68.5718 24.6117 68.657 25.6348 68.6289 26.6579C68.6051 28.911 68.2147 31.1461 67.4724 33.28Z" fill="#F69300"/>
<path d="M67.7557 33.28C70.6714 28.9868 71.7615 25.1923 71.6753 23.462C71.6212 22.6166 71.4962 21.7759 71.3013 20.9467C71.1282 20.2507 70.9004 19.566 70.6198 18.8977C70.0279 17.2636 69.6046 15.5858 69.3551 13.8846C69.141 12.5598 68.954 9.80171 70.5386 5.76001C69.2459 6.92652 68.1414 8.24419 67.2562 9.67595C66.6362 10.682 65.5831 12.3863 65.3346 14.2684C64.9089 17.471 67.0766 19.1818 68.2872 22.0938C69.2566 24.39 69.8521 27.9568 67.7557 33.28Z" fill="#E40212"/>
<path d="M86.5741 47.36C86.2585 46.7955 86.0295 46.176 85.8966 45.5272C85.7041 44.6006 85.7152 43.6356 85.9291 42.7149C86.1046 42.0108 86.2306 42.0748 86.6065 41.0592C86.9641 40.1262 87.2018 39.1413 87.3125 38.1339C87.4121 37.156 87.3793 36.1669 87.2152 35.2C87.4206 35.7608 87.5605 36.3489 87.6312 36.9497C87.6993 37.5963 87.6961 38.2498 87.6217 38.8956C87.573 39.7324 87.4274 40.5587 87.1885 41.3536C86.8775 42.3522 86.6657 42.4205 86.4634 43.3422C86.3498 43.8727 86.2922 44.4163 86.2916 44.9617C86.2802 45.7723 86.3754 46.5804 86.5741 47.36Z" fill="#F69300"/>
<path d="M88.3201 48C88.3201 48 90.801 43.2145 91.3096 38.0693C91.3096 35.3897 90.4186 33.3007 90.6578 27.4062C90.897 21.5117 95.045 17.92 96.0001 17.92C93.4325 20.6143 92.6621 23.2409 92.3871 24.5913C92.0348 26.3205 92.1026 27.8803 92.1987 30.0709C92.3494 33.5801 92.8109 33.6902 92.7638 36.0311C92.6894 38.3792 92.1982 40.6869 91.319 42.8187C90.5716 44.7145 89.5592 46.4636 88.3201 48Z" fill="#E40212"/>
<path d="M93.4399 64C93.4399 64 95.136 61.9673 95.8019 59.6016C96.0039 58.348 95.6843 57.2947 96.2592 54.5568C96.8342 51.819 99.3294 50.4849 99.8399 50.5633C98.2594 51.6101 97.6489 52.7744 97.398 53.3925C97.0784 54.1738 96.9962 54.9159 96.8808 55.941C96.6965 57.5972 96.9363 57.6821 96.7298 58.7702C96.5133 59.8636 96.0755 60.9033 95.4423 61.828C94.8975 62.6522 94.2215 63.3855 93.4399 64Z" fill="#E40212"/>
<path d="M71.6799 41.269C73.2512 40.1338 83.0511 32.8127 83.1869 21.3563C83.2084 18.8754 82.7929 16.4108 81.9603 14.08C83.6747 15.4801 85.0551 17.2597 85.9973 19.2844C87.9468 23.552 87.251 27.7556 86.739 30.952C86.3044 33.6129 85.8635 36.3015 84.4113 39.4872C83.7845 40.8571 82.4869 43.3836 82.5057 46.644C82.5057 47.4975 82.6039 48.1377 82.9821 48.7522C84.0269 50.4486 86.6137 50.7452 88.3083 50.4891C90.5148 50.1563 92.0318 48.7607 94.1443 46.8169C94.9332 46.09 95.6752 45.3117 96.3654 44.4867C96.5207 45.6412 96.5564 46.8091 96.472 47.9712C96.4239 48.6114 96.1753 51.5048 94.1965 55.5612C92.3285 59.3871 90.8909 60.2086 90.8825 62.8439C90.8825 63.5416 90.8951 65.0246 91.896 65.8312C92.972 66.6847 94.5308 66.2345 94.9905 66.1C98.363 65.1142 99.5289 60.5522 99.671 59.9696C99.9873 62.0791 99.8584 64.2333 99.2928 66.2878C98.6209 68.741 97.3389 70.975 95.5714 72.7725C91.7643 76.5215 86.971 76.7072 85.7674 76.7072C85.7674 76.7072 79.9795 77.0721 79.7078 76.3551C79.4362 75.6382 78.9243 47.9328 78.9243 47.9328L71.6799 41.269Z" fill="#F69300"/>
<path d="M55.0257 88.32C55.0257 88.32 63.8695 85.0753 70.2707 81.0469C76.6719 77.0184 81.1822 77.1959 84.5576 76.8389C87.933 76.4819 92.3044 74.4159 96.6399 67.428C94.2563 68.1547 91.8727 67.692 90.6914 66.1964C89.6386 64.8593 89.8134 63.0489 89.8892 62.3032C89.986 61.3188 90.4535 60.2879 91.3821 58.2642C92.4159 56.0081 92.6244 55.9067 92.974 54.935C93.3782 53.8154 93.7594 52.1339 93.513 49.8145C93.513 49.8145 85.8379 53.9865 81.9992 49.3328C80.3989 47.2479 82.1593 42.9702 82.692 38.6904C83.2247 34.4106 83.0121 32.5939 82.7446 29.44C82.7446 29.44 73.9303 40.4374 70.8224 41.9034C70.8224 41.9034 63.4126 36.2716 60.2499 36.9476C60.2499 36.9476 61.2079 41.8062 60.9953 42.8624C60.7826 43.9187 61.3153 45.1439 57.8368 44.7636C54.3582 44.3834 46.8873 40.6275 45.007 37.5961C45.007 37.5961 43.8341 42.0006 46.2514 46.1093C46.2514 46.1093 41.3642 48.828 41.0799 49.3096C40.7957 49.7912 40.3703 52.4466 40.1029 52.962C39.8355 53.4774 32.533 63.2496 29.5219 64.291C28.6418 64.7135 27.7363 75.0644 28.3744 76.0848C29.0124 77.1051 39.4544 78.9915 39.4544 78.9915C39.4544 78.9915 42.9308 74.3589 47.3464 72.4852C51.7619 70.6114 61.2837 64.6924 66.0868 67.7596C70.8898 70.8269 71.452 66.3908 71.452 66.3908C71.452 66.3908 72.8733 72.3584 69.5695 75.4954C66.2657 78.6324 64.0948 78.7042 63.5621 80.3793C63.0293 82.0545 57.0156 87.756 55.0257 88.32Z" fill="#E40212"/>
<path d="M40.3207 56.32C40.3048 55.3258 40.5751 54.3454 41.1043 53.4781C41.6336 52.6109 42.4029 51.8876 43.3343 51.3816C46.5746 49.6068 48.023 48.509 48.535 46.08C48.535 46.08 49.4332 50.4426 45.9773 52.139C42.5214 53.8353 40.6913 55.1705 40.3207 56.32Z" fill="#F69300"/>
<path d="M39.1169 78.72C39.1169 78.72 45.3967 68.7936 59.3512 69.9614C73.3057 71.1293 75.1311 65.9221 77.4399 53.12C77.4399 53.12 73.0916 57.7662 65.6309 58.4523C58.1703 59.1384 48.0807 58.3459 45.2356 61.5136C42.3904 64.6813 28.4867 73.2355 28.1666 75.5586C27.8465 77.8817 39.1169 78.72 39.1169 78.72Z" fill="#F69300"/>
<path d="M52.8909 123.52C51.9959 121.365 50.9865 117.998 51.6594 114.184C53.1618 105.578 62.0954 100.805 67.1251 98.1184C77.3473 92.6627 81.3677 94.9488 88.435 90.0814C94.8062 85.6987 98.0923 79.3402 99.8401 74.88C92.3411 81.5035 85.6017 84.1926 80.7964 85.4186C75.5064 86.7717 73.3439 86.1426 66.5474 88.2003C61.8923 89.6073 56.67 91.2449 51.4753 95.4185C47.146 98.9005 41.2213 103.665 41.6191 110.329C41.9577 115.89 46.5811 120.904 52.8909 123.52Z" fill="#E40212"/>
<path d="M60.1021 128C60.1021 128 53.6418 124.504 52.6225 117.89C51.5309 110.805 56.9677 105.068 60.1021 101.821C61.9172 99.9406 64.8175 96.9376 69.4648 95.3865C73.295 94.109 75.2654 94.8372 80.4533 93.2042C80.6235 93.1504 84.4218 92.1077 87.4987 90.0978C91.5417 87.4653 95.0783 83.1567 99.7767 74.88C99.9597 77.896 100.202 88.034 93.3462 95.9229C89.5521 100.294 84.8239 102.545 83.1472 103.323C77.7019 105.854 76.9231 106.11 71.099 106.731C58.8083 108.039 53.529 119.598 60.1021 128Z" fill="#F69300"/>
<path d="M103.04 102.536L102.085 92.8C98.2149 93.1722 95.1055 95.1545 94.2931 97.8185C93.7343 99.6527 94.4211 101.301 94.6895 101.922C96.2528 105.53 100.315 106.703 100.965 106.88C100.844 105.942 101.032 104.993 101.504 104.153C101.873 103.514 102.399 102.961 103.04 102.536Z" fill="#5B5902"/>
<path d="M104.438 101.76L103.68 93.2839C105.822 91.6926 108.415 90.8494 111.069 90.8809C113.722 90.9123 116.295 91.8166 118.4 93.4582C117.481 93.4739 116.589 93.78 115.849 94.3341C115.2 94.8282 114.699 95.4957 114.402 96.2622C116.102 96.8116 117.532 97.9993 118.4 99.5829C113.643 98.4893 108.655 99.2649 104.438 101.754V101.76Z" fill="#C8C206"/>
<path d="M24.96 102.536L25.9152 92.8C29.7852 93.1722 32.8945 95.1545 33.7069 97.8185C34.2658 99.6527 33.5789 101.301 33.3106 101.922C31.7473 105.53 27.6852 106.703 27.0353 106.88C27.1559 105.942 26.9683 104.993 26.4962 104.153C26.127 103.514 25.6014 102.961 24.96 102.536Z" fill="#5B5902"/>
<path d="M23.5622 101.76L24.3201 93.2839C22.1776 91.6926 19.5853 90.8494 16.9315 90.8809C14.2778 90.9123 11.7055 91.8166 9.6001 93.4582C10.5194 93.4739 11.4112 93.78 12.1515 94.3341C12.8001 94.8282 13.3009 95.4957 13.5977 96.2622C11.8977 96.8116 10.468 97.9993 9.6001 99.5829C14.357 98.4893 19.345 99.2649 23.5622 101.754V101.76Z" fill="#C8C206"/>
<path d="M28.9477 97.3134C37.9762 99.9716 49.8558 102.408 65.7809 102.257C77.4468 102.144 89.0419 100.469 100.242 97.28L101.76 106.81C89.8581 110.207 77.5271 111.953 65.1281 111.999C52.4021 112.043 39.7359 110.296 27.52 106.81C27.5864 103.527 28.8771 100.599 28.9477 97.3134Z" fill="#C8C206"/>
<path d="M40.3758 99.8956L39.7006 109.47L37.2377 108.911L37.4866 107.219L36.6238 107.023L36.112 108.656L33.6206 108.091L36.8958 99.1063L40.3758 99.8956ZM37.7819 105.562C37.8924 104.485 38.0574 103.163 38.2769 101.594C37.641 103.309 37.2017 104.569 36.959 105.375L37.7819 105.562Z" fill="#0F172A"/>
<path d="M43.6369 100.458L42.2277 107.913L43.7016 108.192L43.349 110.058L39.4513 109.32L41.2131 99.999L43.6369 100.458Z" fill="#0F172A"/>
<path d="M47.1133 106.106L46.9166 107.729L43.8289 107.346L44.0256 105.723L47.1133 106.106Z" fill="#0F172A"/>
<path d="M47.6093 101.374L51.7848 101.509L51.7171 103.406L50.007 103.351L49.9428 105.149L51.4655 105.198L51.401 107.001L49.8784 106.952L49.7362 110.934L47.2707 110.855L47.6093 101.374Z" fill="#0F172A"/>
<path d="M55.8194 101.965L56.6233 111.523L54.1031 111.361L54.0891 109.652L53.2062 109.595L52.9512 111.287L50.4017 111.124L52.2583 101.737L55.8194 101.965ZM54.1262 107.969C54.07 106.889 54.0299 105.557 54.0059 103.974C53.6407 105.767 53.4002 107.081 53.2842 107.915L54.1262 107.969Z" fill="#0F172A"/>
<path d="M61.0825 102.219L61.0066 104.116L59.5432 104.052L59.2399 111.634L56.7755 111.525L57.0788 103.944L55.6212 103.88L55.6971 101.983L61.0825 102.219Z" fill="#0F172A"/>
<path d="M63.1907 102.209L63.0959 111.695L60.6294 111.652L60.7243 102.166L63.1907 102.209Z" fill="#0F172A"/>
<path d="M69.3228 102.109L69.4176 111.595L66.9512 111.639L66.9114 107.654L66.1732 107.667L66.213 111.651L63.7466 111.695L63.6518 102.209L66.1182 102.166L66.1521 105.558L66.8903 105.545L66.8564 102.153L69.3228 102.109Z" fill="#0F172A"/>
<path d="M75.6462 101.507L75.8987 103.388L74.4471 103.585L75.4565 111.106L73.0121 111.437L72.0027 103.917L70.557 104.113L70.3045 102.231L75.6462 101.507Z" fill="#0F172A"/>
<path d="M76.0317 101.746L80.1206 101.298L80.3315 103.185L78.6948 103.364L78.8946 105.152L80.4265 104.984L80.627 106.778L79.0951 106.945L79.3269 109.018L81.1267 108.821L81.3376 110.708L77.0857 111.174L76.0317 101.746Z" fill="#0F172A"/>
<path d="M84.4798 100.329L87.0227 109.573L84.5165 109.883L84.1892 108.206L83.3111 108.315L83.3709 110.025L80.8356 110.339L80.9385 100.768L84.4798 100.329ZM83.917 106.545C83.6637 105.494 83.3801 104.193 83.0661 102.642C83.0361 104.472 83.0407 105.807 83.0797 106.649L83.917 106.545Z" fill="#0F172A"/>
<path d="M92.8236 98.9987L94.3371 108.364L92.2077 108.703L91.1859 102.38L91.3571 108.838L89.8468 109.079L87.9515 103.044L88.9499 109.222L86.8205 109.561L85.307 100.196L88.4606 99.6937C88.6442 100.242 88.8498 100.89 89.0773 101.636L89.7981 103.966L89.6468 99.5047L92.8236 98.9987Z" fill="#0F172A"/>
</svg>
