
<svg width="128" height="128" viewBox="0 0 128 128" fill="none" xmlns="http://www.w3.org/2000/svg">
<g clip-path="url(#clip0_877_1046)">
<path d="M67.4721 33.28C67.4721 33.28 72.5861 29.8332 72.5103 24.0429C72.4346 18.2526 71.1577 19.8642 70.9327 11.9454C71.1555 5.21256 76.7998 0 76.7998 0C75.9775 0.273659 67.1758 3.34038 65.6851 10.1905C65.4734 11.1701 64.5598 15.3662 66.4605 18.9476C66.9396 19.849 67.9044 21.2911 68.3746 23.6064C68.5716 24.6117 68.6568 25.6348 68.6286 26.6579C68.6048 28.911 68.2145 31.1461 67.4721 33.28Z" fill="#F69300" stroke="#F1F5F9" stroke-width="0.5"/>
<path d="M67.7555 33.28C70.6712 28.9868 71.7612 25.1923 71.6751 23.462C71.6209 22.6166 71.4959 21.7759 71.3011 20.9467C71.1279 20.2507 70.9002 19.566 70.6195 18.8977C70.0276 17.2636 69.6044 15.5858 69.3548 13.8846C69.1408 12.5598 68.9538 9.80171 70.5383 5.76001C69.2456 6.92652 68.1412 8.24419 67.256 9.67595C66.6359 10.682 65.5828 12.3863 65.3343 14.2684C64.9087 17.471 67.0764 19.1818 68.287 22.0938C69.2564 24.39 69.8518 27.9568 67.7555 33.28Z" fill="#E40212" stroke="#F1F5F9" stroke-width="0.5"/>
<path d="M86.5738 47.36C86.2583 46.7955 86.0293 46.176 85.8964 45.5272C85.7038 44.6006 85.715 43.6356 85.9288 42.7149C86.1044 42.0108 86.2303 42.0748 86.6063 41.0592C86.9638 40.1262 87.2016 39.1413 87.3123 38.1339C87.4118 37.156 87.379 36.1669 87.215 35.2C87.4204 35.7608 87.5602 36.3489 87.631 36.9497C87.6991 37.5963 87.6959 38.2498 87.6214 38.8956C87.5728 39.7324 87.4272 40.5587 87.1883 41.3536C86.8772 42.3522 86.6654 42.4205 86.4631 43.3422C86.3496 43.8727 86.2919 44.4163 86.2914 44.9617C86.28 45.7723 86.3751 46.5804 86.5738 47.36Z" fill="#F69300" stroke="#F1F5F9" stroke-width="0.3"/>
<path d="M88.3198 48C88.3198 48 90.8007 43.2145 91.3093 38.0693C91.3093 35.3897 90.4183 33.3007 90.6575 27.4062C90.8968 21.5117 95.0448 17.92 95.9998 17.92C93.4323 20.6143 92.6618 23.2409 92.3868 24.5913C92.0346 26.3205 92.1024 27.8803 92.1984 30.0709C92.3491 33.5801 92.8107 33.6902 92.7636 36.0311C92.6892 38.3792 92.1979 40.6869 91.3187 42.8187C90.5714 44.7145 89.559 46.4636 88.3198 48Z" fill="#E40212" stroke="#F1F5F9" stroke-width="0.5"/>
<path d="M93.4399 64C93.4399 64 95.136 61.9673 95.8019 59.6016C96.0039 58.348 95.6843 57.2947 96.2592 54.5568C96.8342 51.819 99.3294 50.4849 99.8399 50.5633C98.2594 51.6101 97.6489 52.7744 97.398 53.3925C97.0784 54.1738 96.9962 54.9159 96.8808 55.941C96.6965 57.5972 96.9363 57.6821 96.7298 58.7702C96.5133 59.8636 96.0755 60.9033 95.4423 61.828C94.8975 62.6522 94.2215 63.3855 93.4399 64Z" fill="#E40212" stroke="#F1F5F9" stroke-width="0.3"/>
<path d="M71.6802 41.2689C73.2515 40.1337 83.0513 32.8127 83.1871 21.3563C83.2086 18.8754 82.7932 16.4107 81.9606 14.08C83.6749 15.4801 85.0553 17.2597 85.9975 19.2843C87.947 23.5519 87.2512 27.7555 86.7393 30.952C86.3047 33.6128 85.8638 36.3014 84.4116 39.4872C83.7847 40.8571 82.4871 43.3835 82.5059 46.644C82.5059 47.4975 82.6041 48.1376 82.9823 48.7522C84.0271 50.4486 86.6139 50.7452 88.3085 50.4891C90.515 50.1562 92.032 48.7607 94.1445 46.8168C94.9335 46.09 95.6754 45.3117 96.3657 44.4867C96.521 45.6412 96.5567 46.8091 96.4722 47.9712C96.4242 48.6114 96.1755 51.5048 94.1967 55.5612C92.3287 59.3871 90.8911 60.2086 90.8828 62.8438C90.8828 63.5416 90.8953 65.0246 91.8962 65.8312C92.9723 66.6847 94.5311 66.2344 94.9908 66.1C98.3632 65.1142 99.5292 60.5521 99.6713 59.9696C99.9876 62.0791 99.8586 64.2333 99.2931 66.2878C98.6212 68.741 97.3392 70.9749 95.5716 72.7724C91.7646 76.5215 86.9712 76.7072 85.7677 76.7072C85.7677 76.7072 79.9797 77.072 79.7081 76.3551C79.4364 75.6381 78.9245 47.9328 78.9245 47.9328L71.6802 41.2689Z" fill="#F69300" stroke="#F1F5F9" stroke-width="0.5"/>
<path d="M55.026 88.32C55.026 88.32 63.8697 85.0753 70.2709 81.0469C76.6722 77.0184 81.1825 77.1959 84.5579 76.8389C87.9332 76.4819 92.3046 74.4159 96.6402 67.428C94.2565 68.1547 91.8729 67.692 90.6917 66.1964C89.6388 64.8593 89.8136 63.0489 89.8894 62.3032C89.9863 61.3188 90.4537 60.2879 91.3823 58.2642C92.4162 56.0081 92.6247 55.9067 92.9742 54.935C93.3785 53.8154 93.7596 52.1339 93.5132 49.8145C93.5132 49.8145 85.8381 53.9865 81.9995 49.3328C80.3992 47.2479 82.1595 42.9702 82.6923 38.6904C83.225 34.4106 83.0123 32.5939 82.7449 29.44C82.7449 29.44 73.9306 40.4374 70.8226 41.9034C70.8226 41.9034 63.4128 36.2716 60.2501 36.9476C60.2501 36.9476 61.2082 41.8062 60.9955 42.8624C60.7828 43.9187 61.3156 45.1439 57.837 44.7636C54.3585 44.3834 46.8876 40.6275 45.0072 37.5961C45.0072 37.5961 43.8344 42.0006 46.2517 46.1093C46.2517 46.1093 41.3644 48.828 41.0802 49.3096C40.7959 49.7912 40.3706 52.4466 40.1031 52.962C39.8357 53.4774 32.5333 63.2496 29.5222 64.291C28.642 64.7135 27.7366 75.0644 28.3746 76.0848C29.0126 77.1051 39.4546 78.9915 39.4546 78.9915C39.4546 78.9915 42.931 74.3589 47.3466 72.4852C51.7622 70.6114 61.284 64.6924 66.087 67.7596C70.89 70.8269 71.4522 66.3908 71.4522 66.3908C71.4522 66.3908 72.8735 72.3584 69.5698 75.4954C66.266 78.6324 64.095 78.7042 63.5623 80.3793C63.0296 82.0545 57.0158 87.756 55.026 88.32Z" fill="#E40212" stroke="#F1F5F9" stroke-width="0.5"/>
<path d="M40.3205 56.32C40.3045 55.3258 40.5749 54.3454 41.1041 53.4781C41.6333 52.6109 42.4026 51.8876 43.334 51.3816C46.5744 49.6068 48.0228 48.509 48.5347 46.08C48.5347 46.08 49.433 50.4426 45.9771 52.139C42.5211 53.8353 40.691 55.1705 40.3205 56.32Z" fill="#F69300" stroke="#F1F5F9" stroke-width="0.5"/>
<path d="M39.1172 78.72C39.1172 78.72 45.3969 68.7936 59.3514 69.9614C73.306 71.1293 75.1314 65.9221 77.4402 53.12C77.4402 53.12 73.0918 57.7662 65.6312 58.4523C58.1705 59.1384 48.081 58.3459 45.2358 61.5136C42.3906 64.6813 28.487 73.2355 28.1668 75.5586C27.8467 77.8817 39.1172 78.72 39.1172 78.72Z" fill="#F69300" stroke="#F1F5F9" stroke-width="0.5"/>
<path d="M52.8909 123.52C51.9959 121.365 50.9865 117.998 51.6594 114.184C53.1618 105.578 62.0954 100.805 67.1251 98.1184C77.3473 92.6627 81.3677 94.9488 88.435 90.0814C94.8062 85.6987 98.0923 79.3402 99.8401 74.88C92.3411 81.5035 85.6017 84.1926 80.7964 85.4186C75.5064 86.7717 73.3439 86.1426 66.5474 88.2003C61.8923 89.6073 56.67 91.2449 51.4753 95.4185C47.146 98.9005 41.2213 103.665 41.6191 110.329C41.9577 115.89 46.5811 120.904 52.8909 123.52Z" fill="#E40212" stroke="#F1F5F9" stroke-width="0.5"/>
<path d="M60.1021 128C60.1021 128 53.6418 124.504 52.6225 117.89C51.5309 110.805 56.9677 105.068 60.1021 101.821C61.9172 99.9406 64.8175 96.9376 69.4648 95.3865C73.295 94.109 75.2654 94.8372 80.4533 93.2042C80.6235 93.1504 84.4218 92.1077 87.4987 90.0978C91.5417 87.4653 95.0783 83.1567 99.7767 74.88C99.9597 77.896 100.202 88.034 93.3462 95.9229C89.5521 100.294 84.8239 102.545 83.1472 103.323C77.7019 105.854 76.9231 106.11 71.099 106.731C58.8083 108.039 53.529 119.598 60.1021 128Z" fill="#F69300" stroke="#F1F5F9" stroke-width="0.5"/>
<path d="M103.04 102.536L102.085 92.8C98.2149 93.1722 95.1055 95.1545 94.2931 97.8185C93.7343 99.6527 94.4211 101.301 94.6895 101.922C96.2528 105.53 100.315 106.703 100.965 106.88C100.844 105.942 101.032 104.993 101.504 104.153C101.873 103.514 102.399 102.961 103.04 102.536Z" fill="#5B5902" stroke="#F1F5F9" stroke-width="0.5"/>
<path d="M104.438 101.76L103.68 93.2839C105.823 91.6926 108.415 90.8494 111.069 90.8809C113.723 90.9123 116.295 91.8166 118.4 93.4582C117.481 93.4739 116.589 93.78 115.849 94.3341C115.2 94.8282 114.699 95.4957 114.403 96.2622C116.103 96.8116 117.532 97.9993 118.4 99.5829C113.643 98.4893 108.655 99.2649 104.438 101.754V101.76Z" fill="#C8C206" stroke="#F1F5F9" stroke-width="0.5"/>
<path d="M24.96 102.536L25.9152 92.8C29.7852 93.1722 32.8945 95.1545 33.7069 97.8185C34.2658 99.6527 33.5789 101.301 33.3106 101.922C31.7473 105.53 27.6852 106.703 27.0353 106.88C27.1559 105.942 26.9683 104.993 26.4962 104.153C26.127 103.514 25.6014 102.961 24.96 102.536Z" fill="#5B5902" stroke="#F1F5F9" stroke-width="0.5"/>
<path d="M23.5622 101.76L24.3201 93.2839C22.1776 91.6926 19.5853 90.8494 16.9315 90.8809C14.2778 90.9123 11.7055 91.8166 9.6001 93.4582C10.5194 93.4739 11.4112 93.78 12.1515 94.3341C12.8001 94.8282 13.3009 95.4957 13.5977 96.2622C11.8977 96.8116 10.468 97.9993 9.6001 99.5829C14.357 98.4893 19.345 99.2649 23.5622 101.754V101.76Z" fill="#C8C206" stroke="#F1F5F9" stroke-width="0.5"/>
<path d="M28.9477 97.3134C37.9762 99.9716 49.8558 102.408 65.7809 102.257C77.4468 102.144 89.0419 100.469 100.242 97.28L101.76 106.81C89.8581 110.207 77.5271 111.953 65.1281 111.999C52.4021 112.043 39.7359 110.296 27.52 106.81C27.5864 103.527 28.8771 100.599 28.9477 97.3134Z" fill="#C8C206" stroke="#F1F5F9" stroke-width="0.5"/>
<path d="M40.3756 99.8956L39.7003 109.47L37.2375 108.911L37.4864 107.219L36.6235 107.023L36.1118 108.656L33.6204 108.091L36.8956 99.1063L40.3756 99.8956ZM37.7816 105.562C37.8922 104.485 38.0572 103.163 38.2767 101.594C37.6407 103.309 37.2014 104.569 36.9588 105.375L37.7816 105.562Z" fill="#0F172A"/>
<path d="M43.6369 100.458L42.2277 107.913L43.7016 108.192L43.349 110.058L39.4513 109.32L41.2131 99.999L43.6369 100.458Z" fill="#0F172A"/>
<path d="M47.1136 106.106L46.9169 107.729L43.8292 107.346L44.0259 105.723L47.1136 106.106Z" fill="#0F172A"/>
<path d="M47.6093 101.374L51.7848 101.509L51.7171 103.406L50.007 103.351L49.9428 105.149L51.4655 105.198L51.401 107.001L49.8784 106.952L49.7362 110.934L47.2707 110.855L47.6093 101.374Z" fill="#0F172A"/>
<path d="M55.8191 101.965L56.6231 111.523L54.1029 111.361L54.0889 109.652L53.2059 109.595L52.9509 111.287L50.4015 111.124L52.2581 101.737L55.8191 101.965ZM54.126 107.969C54.0698 106.889 54.0297 105.557 54.0056 103.974C53.6405 105.767 53.3999 107.081 53.284 107.915L54.126 107.969Z" fill="#0F172A"/>
<path d="M61.0828 102.219L61.0069 104.116L59.5435 104.052L59.2402 111.634L56.7758 111.525L57.079 103.944L55.6214 103.88L55.6973 101.983L61.0828 102.219Z" fill="#0F172A"/>
<path d="M63.1907 102.209L63.0959 111.695L60.6294 111.652L60.7243 102.166L63.1907 102.209Z" fill="#0F172A"/>
<path d="M69.323 102.109L69.4179 111.595L66.9515 111.639L66.9116 107.654L66.1734 107.667L66.2133 111.651L63.7469 111.695L63.652 102.209L66.1184 102.166L66.1524 105.558L66.8905 105.545L66.8566 102.153L69.323 102.109Z" fill="#0F172A"/>
<path d="M75.6462 101.507L75.8987 103.388L74.4471 103.585L75.4565 111.106L73.0121 111.437L72.0027 103.917L70.557 104.113L70.3045 102.231L75.6462 101.507Z" fill="#0F172A"/>
<path d="M76.0317 101.746L80.1206 101.298L80.3315 103.185L78.6948 103.364L78.8946 105.152L80.4265 104.984L80.627 106.778L79.0951 106.945L79.3269 109.018L81.1267 108.821L81.3376 110.708L77.0857 111.174L76.0317 101.746Z" fill="#0F172A"/>
<path d="M84.4798 100.329L87.0227 109.573L84.5165 109.883L84.1892 108.206L83.3111 108.315L83.3709 110.025L80.8356 110.339L80.9385 100.768L84.4798 100.329ZM83.917 106.545C83.6637 105.494 83.3801 104.193 83.0661 102.642C83.0361 104.472 83.0407 105.807 83.0797 106.649L83.917 106.545Z" fill="#0F172A"/>
<path d="M92.8236 98.9987L94.3371 108.364L92.2077 108.703L91.1859 102.38L91.3571 108.838L89.8468 109.079L87.9515 103.044L88.9499 109.222L86.8205 109.561L85.307 100.196L88.4606 99.6937C88.6442 100.242 88.8498 100.89 89.0773 101.636L89.7981 103.966L89.6468 99.5047L92.8236 98.9987Z" fill="#0F172A"/>
</g>
<defs>
<clipPath id="clip0_877_1046">
<rect width="128" height="128" fill="white"/>
</clipPath>
</defs>
</svg>
