<svg width="128" height="128" viewBox="0 0 128 128" fill="none" xmlns="http://www.w3.org/2000/svg">
<path d="M102.562 87.968L96.478 80.6C97.1844 79.2993 97.8109 77.9568 98.3539 76.58H82.2639C80.1598 79.4102 77.4228 81.7091 74.2717 83.2929C71.1206 84.8768 67.6427 85.7016 64.1159 85.7016C60.5892 85.7016 57.1113 84.8768 53.9602 83.2929C50.8091 81.7091 48.0721 79.4102 45.9679 76.58H29.8759C30.4749 78.0979 31.1738 79.5744 31.9679 81L26.1679 87.914C25.7622 88.4036 25.5534 89.0268 25.5822 89.6621C25.6111 90.2973 25.8755 90.8991 26.3239 91.35L36.0819 101.106C36.5299 101.554 37.1284 101.819 37.7612 101.851C38.3939 101.882 39.0158 101.677 39.5059 101.276L46.5659 95.436C48.9556 96.7431 51.4857 97.775 54.1079 98.512L54.9799 107.676C55.0369 108.311 55.33 108.903 55.8012 109.333C56.2725 109.763 56.8878 110.001 57.5259 110H71.3259C71.9631 109.999 72.577 109.76 73.0467 109.33C73.5164 108.899 73.808 108.309 73.8639 107.674L74.6819 98.35C77.2195 97.5956 79.6663 96.5641 81.9779 95.274L89.1999 101.306C89.6873 101.717 90.3116 101.929 90.9485 101.9C91.5853 101.871 92.1878 101.603 92.6359 101.15L102.4 91.4C102.849 90.9505 103.114 90.3499 103.144 89.7153C103.174 89.0807 102.967 88.4577 102.562 87.968Z" fill="#5457E2"/>
<path d="M108.964 53.694L99.4401 52.788C98.718 50.2873 97.7248 47.8729 96.4781 45.588L102.562 38.226C102.965 37.7367 103.172 37.115 103.142 36.4818C103.112 35.8486 102.847 35.2491 102.4 34.8L92.6421 25.042C92.191 24.594 91.5893 24.3298 90.9542 24.301C90.3191 24.2722 89.6959 24.4807 89.2061 24.886L81.9901 30.938C79.6758 29.6415 77.2248 28.6058 74.6821 27.85L73.8641 18.53C73.8062 17.8969 73.5138 17.3084 73.0442 16.8799C72.5746 16.4514 71.9618 16.2139 71.3261 16.214H57.5261C56.8915 16.2112 56.2788 16.4458 55.8084 16.8718C55.338 17.2977 55.044 17.8843 54.9841 18.516L54.1121 27.682C51.4879 28.4252 48.9544 29.4576 46.5581 30.76L39.5101 24.93C39.0228 24.5242 38.4013 24.3153 37.7678 24.3441C37.1343 24.373 36.5345 24.6376 36.0861 25.086L26.3281 34.84C25.8797 35.2909 25.6152 35.8926 25.5864 36.5279C25.5576 37.1631 25.7664 37.7864 26.1721 38.276L31.9721 45.19C30.6156 47.6081 29.5457 50.1761 28.7841 52.842L19.8001 53.694C19.1683 53.7543 18.5819 54.0484 18.1557 54.5187C17.7294 54.9889 17.4942 55.6014 17.4961 56.236V70.036C17.4964 70.6716 17.7341 71.2841 18.1625 71.7536C18.5909 72.2231 19.1792 72.5157 19.8121 72.574L25.4901 73.078H103.25L108.95 72.574C109.585 72.5185 110.177 72.2273 110.608 71.7575C111.039 71.2878 111.279 70.6737 111.28 70.036V56.236C111.279 55.6001 111.042 54.9873 110.613 54.5173C110.185 54.0473 109.597 53.7537 108.964 53.694ZM56.4941 57.582C56.4946 57.7329 56.4383 57.8783 56.3364 57.9895C56.2345 58.1007 56.0944 58.1695 55.9441 58.182L53.6901 58.382C53.5178 58.9735 53.2825 59.5448 52.9881 60.086L54.4301 61.83C54.526 61.9456 54.5751 62.0928 54.5677 62.2428C54.5603 62.3928 54.4969 62.5345 54.3901 62.64L52.0801 64.952C51.9738 65.0594 51.831 65.1227 51.6801 65.1294C51.5293 65.1361 51.3814 65.0856 51.2661 64.988L49.5541 63.558C49.0063 63.8629 48.4269 64.107 47.8261 64.286L47.6261 66.486C47.614 66.6367 47.5455 66.7772 47.4342 66.8796C47.323 66.9819 47.1772 67.0385 47.0261 67.038H43.7641C43.6133 67.0385 43.4678 66.9822 43.3566 66.8803C43.2454 66.7784 43.1767 66.6383 43.1641 66.488L42.9641 64.318C42.3434 64.1429 41.7443 63.8987 41.1781 63.59L39.5061 64.972C39.3912 65.0651 39.2461 65.1124 39.0984 65.1051C38.9508 65.0977 38.8111 65.0361 38.7061 64.932L36.3941 62.622C36.2867 62.5158 36.2234 62.373 36.2167 62.2221C36.2101 62.0712 36.2605 61.9233 36.3581 61.808L37.7301 60.17C37.4107 59.6006 37.1571 58.9967 36.9741 58.37L34.8521 58.182C34.7021 58.169 34.5626 58.1001 34.4611 57.9889C34.3596 57.8778 34.3035 57.7325 34.3041 57.582V54.314C34.3035 54.1638 34.3592 54.0188 34.4603 53.9078C34.5614 53.7967 34.7005 53.7275 34.8501 53.714L36.9741 53.514C37.1558 52.883 37.4094 52.275 37.7301 51.702L36.3581 50.064C36.2605 49.9487 36.2101 49.8009 36.2167 49.65C36.2234 49.4991 36.2867 49.3563 36.3941 49.25L38.7061 46.94C38.8114 46.8363 38.9512 46.775 39.0988 46.768C39.2465 46.761 39.3915 46.8087 39.5061 46.902L41.1761 48.284C41.7431 47.975 42.3428 47.7302 42.9641 47.554L43.1641 45.384C43.1776 45.2344 43.2467 45.0953 43.3578 44.9942C43.4689 44.8932 43.6139 44.8374 43.7641 44.838H47.0301C47.1806 44.8375 47.3258 44.8935 47.437 44.995C47.5481 45.0965 47.617 45.2361 47.6301 45.386L47.8301 47.586C48.4321 47.7652 49.0123 48.0107 49.5601 48.318L51.2701 46.884C51.3856 46.7867 51.5336 46.7366 51.6845 46.7436C51.8354 46.7507 51.9781 46.8144 52.0841 46.922L54.4001 49.236C54.5075 49.3416 54.5712 49.4838 54.5786 49.6342C54.586 49.7846 54.5366 49.9324 54.4401 50.048L52.9881 51.8C53.284 52.3419 53.5194 52.9147 53.6901 53.508L55.9461 53.722C56.096 53.7351 56.2356 53.804 56.3371 53.9151C56.4386 54.0263 56.4947 54.1715 56.4941 54.322V57.582ZM94.4941 57.582C94.4946 57.7332 94.438 57.8789 94.3356 57.9902C94.2333 58.1014 94.0927 58.1699 93.9421 58.182L91.6901 58.382C91.5162 58.9733 91.2802 59.5445 90.9861 60.086L92.4281 61.83C92.524 61.9456 92.5731 62.0928 92.5656 62.2428C92.5582 62.3928 92.4949 62.5345 92.3881 62.64L90.0801 64.952C89.9738 65.0594 89.831 65.1227 89.6801 65.1294C89.5292 65.1361 89.3814 65.0856 89.2661 64.988L87.5541 63.558C87.0066 63.8636 86.4271 64.1077 85.8261 64.286L85.6261 66.486C85.614 66.6367 85.5455 66.7772 85.4342 66.8796C85.323 66.9819 85.1772 67.0385 85.0261 67.038H81.7641C81.6133 67.0385 81.4677 66.9822 81.3566 66.8803C81.2454 66.7784 81.1767 66.6383 81.1641 66.488L80.9641 64.318C80.3433 64.1432 79.7442 63.899 79.1781 63.59L77.5041 64.972C77.3885 65.0679 77.2413 65.117 77.0913 65.1096C76.9413 65.1022 76.7996 65.0388 76.6941 64.932L74.3841 62.622C74.2764 62.516 74.2127 62.3734 74.2057 62.2225C74.1987 62.0716 74.2488 61.9236 74.3461 61.808L75.7181 60.17C75.3993 59.6006 75.1463 58.9967 74.9641 58.37L72.8401 58.182C72.6901 58.169 72.5506 58.1001 72.4491 57.9889C72.3475 57.8778 72.2915 57.7325 72.2921 57.582V54.314C72.2915 54.1638 72.3472 54.0188 72.4483 53.9078C72.5494 53.7967 72.6885 53.7275 72.8381 53.714L74.9641 53.514C75.1442 52.8828 75.3972 52.2747 75.7181 51.702L74.3461 50.064C74.2488 49.9485 74.1987 49.8005 74.2057 49.6496C74.2127 49.4987 74.2764 49.356 74.3841 49.25L76.6941 46.94C76.7999 46.8335 76.9417 46.7705 77.0917 46.7635C77.2416 46.7564 77.3888 46.8059 77.5041 46.902L79.1741 48.284C79.7418 47.975 80.3422 47.7302 80.9641 47.554L81.1641 45.384C81.1776 45.2344 81.2467 45.0953 81.3578 44.9942C81.4689 44.8932 81.6139 44.8374 81.7641 44.838H85.0321C85.1826 44.8375 85.3278 44.8935 85.439 44.995C85.5501 45.0965 85.619 45.2361 85.6321 45.386L85.8321 47.586C86.4342 47.7648 87.0145 48.0103 87.5621 48.318L89.2721 46.884C89.3876 46.7867 89.5356 46.7366 89.6865 46.7436C89.8374 46.7507 89.9801 46.8144 90.0861 46.922L92.4001 49.236C92.5074 49.3416 92.5712 49.4838 92.5786 49.6342C92.586 49.7846 92.5365 49.9324 92.4401 50.048L90.9881 51.8C91.2838 52.3422 91.5198 52.9149 91.6921 53.508L93.9461 53.722C94.0964 53.7346 94.2365 53.8033 94.3384 53.9145C94.4403 54.0257 94.4966 54.1712 94.4961 54.322L94.4941 57.582Z" fill="#5457E2"/>
<path d="M88.2729 57.9889C89.4049 55.256 88.1071 52.1229 85.3743 50.9909C82.6414 49.859 79.5083 51.1567 78.3763 53.8896C77.2443 56.6225 78.5421 59.7556 81.275 60.8875C84.0078 62.0195 87.1409 60.7218 88.2729 57.9889Z" fill="#5457E2"/>
<path d="M50.5343 57.1658C51.2138 54.2869 49.4308 51.4022 46.5518 50.7227C43.6729 50.0433 40.7882 51.8263 40.1087 54.7052C39.4293 57.5841 41.2123 60.4688 44.0912 61.1483C46.9701 61.8278 49.8548 60.0448 50.5343 57.1658Z" fill="#5457E2"/>
<path d="M117.866 14.152C120.669 14.152 122.942 11.8794 122.942 9.076C122.942 6.2726 120.669 4 117.866 4C115.063 4 112.79 6.2726 112.79 9.076C112.79 11.8794 115.063 14.152 117.866 14.152Z" fill="#5457E2"/>
<path d="M100.094 24.276L102.792 27.024L117.866 9.07599L100.094 24.276Z" fill="#5457E2"/>
<path d="M10.1341 14.152C12.9375 14.152 15.2101 11.8794 15.2101 9.076C15.2101 6.2726 12.9375 4 10.1341 4C7.33071 4 5.05811 6.2726 5.05811 9.076C5.05811 11.8794 7.33071 14.152 10.1341 14.152Z" fill="#5457E2"/>
<path d="M27.906 24.276L25.208 27.024L10.134 9.07599L27.906 24.276Z" fill="#5457E2"/>
<path d="M19.232 90.698L11.55 98.8L9.12596 95.2L10.624 93.918L9.77396 92.658L7.99996 93.53L5.55396 89.886L15.8 85.6L19.232 90.698ZM12.164 92.74C13.0653 91.872 14.21 90.8413 15.598 89.648C13.626 90.448 12.2086 91.074 11.346 91.526L12.164 92.74Z" fill="#5457E2"/>
<path d="M23.6299 95.772L17.2139 101.67L18.9619 103.572L17.3619 105.048L12.7319 100.016L20.7539 92.644L23.6299 95.772Z" fill="#5457E2"/>
<path d="M25.91 105.308L24.682 106.728L20.626 103.226L21.852 101.806L25.91 105.308Z" fill="#5457E2"/>
<path d="M34.352 104.546L30.212 110.536C29.592 111.432 29.18 111.999 28.976 112.236C28.7533 112.483 28.4466 112.637 28.116 112.67C27.702 112.714 27.2838 112.645 26.906 112.47C26.2665 112.166 25.6566 111.803 25.084 111.386L23.334 110.186L24.416 108.618C24.616 108.774 24.768 108.886 24.862 108.95C25.0587 109.101 25.2907 109.199 25.536 109.236C25.6163 109.25 25.6988 109.247 25.7773 109.225C25.8559 109.203 25.9286 109.164 25.99 109.11C26.176 108.902 26.3458 108.68 26.498 108.446L30.856 102.14L34.352 104.546Z" fill="#5457E2"/>
<path d="M41.7302 108.426L39.0702 119.266L35.1802 117.338L35.8442 115.482L34.4822 114.8L33.3842 116.44L29.4482 114.49L36.2262 105.69L41.7302 108.426ZM36.6002 113.702C36.9562 112.502 37.4402 111.039 38.0522 109.314C36.7376 110.991 35.8169 112.237 35.2902 113.052L36.6002 113.702Z" fill="#5457E2"/>
<path d="M51.2361 111.61L50.6001 113.694L45.6601 119.016L48.6861 119.942L48.0481 122.026L40.5581 119.732L41.0221 118.22L46.2381 112.358L43.4761 111.514L44.1161 109.428L51.2361 111.61Z" fill="#5457E2"/>
<path d="M59.29 112.84L60.2 123.966L55.9 123.366L55.944 121.394L54.438 121.194L53.916 123.098L49.564 122.498L53.2 112L59.29 112.84ZM56.09 119.468C56.046 118.216 56.042 116.676 56.078 114.848C55.362 116.848 54.8826 118.321 54.64 119.266L56.09 119.468Z" fill="#5457E2"/>
<path d="M61.6279 113.114L64.6279 112.99C66.6279 112.907 67.9866 112.903 68.7039 112.978C69.3536 113.025 69.9718 113.276 70.4699 113.696C70.9359 114.096 71.1859 114.766 71.2259 115.696C71.2593 116.544 71.1259 117.12 70.8259 117.424C70.5259 117.728 69.9113 117.928 68.9819 118.024C69.8273 118.128 70.3999 118.291 70.6999 118.512C70.9391 118.666 71.1341 118.88 71.2659 119.132C71.3439 119.332 71.4019 119.858 71.4379 120.732L71.5559 123.602L67.6119 123.764L67.4639 120.148C67.4399 119.565 67.3559 119.207 67.2119 119.074C67.0679 118.941 66.7039 118.886 66.1199 118.91L66.3199 123.818L62.0739 123.994L61.6279 113.114ZM65.9519 114.8L66.0519 117.22C66.3931 117.226 66.7323 117.168 67.0519 117.048C67.2399 116.952 67.3239 116.666 67.3039 116.186L67.2779 115.586C67.2639 115.242 67.1619 115.02 66.9739 114.92C66.7859 114.82 66.4419 114.782 65.9519 114.8Z" fill="#5457E2"/>
<path d="M76.27 111.646L78.26 122.358L74.082 123.134L72.082 112.422L76.27 111.646Z" fill="#5457E2"/>
<path d="M88.616 107.462L89.416 109.492L87.064 110.41L90.232 118.528L86.274 120.072L83.1 111.954L80.758 112.868L79.958 110.836L88.616 107.462Z" fill="#5457E2"/>
<path d="M88.8501 107.25L95.0001 103.724L96.0841 105.614L93.6241 107.026L94.6521 108.826L96.9541 107.506L97.9861 109.306L95.6841 110.628L96.8841 112.706L99.5901 111.154L100.674 113.044L94.2721 116.7L88.8501 107.25Z" fill="#5457E2"/>
<path d="M101.422 98.71L110.146 105.672L106.762 108.4L105.362 107.018L104.178 107.97L105.208 109.656L101.78 112.4L96.6382 102.556L101.422 98.71ZM104.06 105.578C103.119 104.751 101.994 103.699 100.686 102.42C101.656 104.316 102.4 105.675 102.92 106.496L104.06 105.578Z" fill="#5457E2"/>
<path d="M111.552 87.248L120 94.132L117.652 97.012L111.948 92.368L116.714 98.168L115.046 100.2L108.49 96.868L114.058 101.412L111.71 104.29L103.266 97.408L106.742 93.146C107.351 93.4313 108.055 93.7886 108.854 94.218L111.384 95.502L108.058 91.53L111.552 87.248Z" fill="#5457E2"/>
</svg>
