<svg width="129" height="128" viewBox="0 0 129 128" fill="none" xmlns="http://www.w3.org/2000/svg">
<path d="M96.3333 86.7315C96.232 86.888 96.1287 87.0425 96.0273 87.1971C94.9868 88.7659 93.9615 90.2832 92.9516 91.7489L92.9172 91.7947C87.6361 99.0164 77.4239 112.215 76.7831 113.025C76.7737 113.039 76.7635 113.053 76.7525 113.067C81.4311 76.5726 61.856 63.301 61.856 63.301L59.8132 68.2631C44.3199 56.8465 33.9337 53.2757 27 53.207C40.6111 49.9626 57.0302 53.9704 57.6212 53.9704C58.4972 53.9704 58.4972 49.6 58.4972 49.6C80.0367 57.2797 91.8192 77.2921 96.3333 86.7315Z" fill="#F49700"/>
<path d="M79.4825 10.6711L82.5391 6.53839C82.5391 6.53839 52.9282 5.32804 41.0628 10.0668C36.3957 12.0011 36.0041 10.5495 31.6293 16.3542C27.2545 22.1589 24.4444 21.8796 17.7351 24.0571C11.0927 26.2099 -0.795637 37.5021 13.3947 60.5386C13.5361 60.7723 13.6832 61.0061 13.8322 61.2436C14.0751 60.4101 14.4223 59.6102 14.8657 58.8628C16.373 56.2464 19.8327 52.4177 27.1571 52.4937C40.7514 49.2636 57.1501 53.2537 57.7404 53.2537C58.6154 53.2537 58.6154 48.9026 58.6154 48.9026C80.1282 56.5447 91.8962 76.4689 96.4047 85.8667C108.207 68.0401 121.112 44.0536 121.933 23.5118C121.933 23.5118 105.084 12.1949 79.4825 10.6711ZM39.8057 25.0205C39.8057 25.0205 43.3056 18.4443 51.4763 19.7002C51.4763 19.7002 52.739 27.0402 39.8057 25.0205Z" fill="#F67B01"/>
<path d="M9.97325 116.6L11.6233 124H8.67325L8.51925 122.67H7.48525L7.31325 124H4.33325L5.80725 116.6H9.97325ZM8.44325 121.358C8.29792 120.521 8.15125 119.485 8.00325 118.25C7.70992 119.666 7.52525 120.702 7.44925 121.358H8.44325Z" fill="#0F172A"/>
<path d="M14.9993 116.6V122.52H16.7553V124H12.1133V116.6H14.9993Z" fill="#0F172A"/>
<path d="M20.7673 120.33V121.6H17.1333V120.326L20.7673 120.33Z" fill="#0F172A"/>
<path d="M28.4694 116.6L26.8134 119.94L28.6274 124H25.6454L24.4754 120.828V124H21.5894V116.6H24.4754V119.474L25.7614 116.6H28.4694Z" fill="#0F172A"/>
<path d="M35.7613 116.6V124H32.8753V120.892H32.0113V124H29.1333V116.6H32.0213V119.246H32.8853V116.6H35.7613Z" fill="#0F172A"/>
<path d="M41.9091 116.6L43.5591 124H40.6111L40.4551 122.67H39.4231L39.2491 124H36.2651L37.7331 116.6H41.9091ZM40.3791 121.358C40.2338 120.521 40.0871 119.485 39.9391 118.25C39.6445 119.666 39.4598 120.702 39.3851 121.358H40.3791Z" fill="#0F172A"/>
<path d="M54.6632 116.6L53.3792 124H49.7792C49.4171 122.724 49.1253 121.428 48.9052 120.12C48.7892 120.743 48.5225 122.036 48.1052 124H44.5132L43.2212 116.6H46.0212L46.3332 119.182L46.6292 121.678C46.7995 119.972 47.0666 118.276 47.4292 116.6H50.4292C50.4692 116.816 50.5739 117.629 50.7432 119.04L51.0612 121.856C51.221 120.089 51.4882 118.334 51.8612 116.6H54.6632Z" fill="#0F172A"/>
<path d="M60.0852 116.6L61.7332 124H58.7872L58.6312 122.67H57.5992L57.4252 124H54.4412L55.9132 116.6H60.0852ZM58.5552 121.358C58.4085 120.521 58.2618 119.485 58.1152 118.25C57.8232 119.666 57.6392 120.702 57.5632 121.358H58.5552Z" fill="#0F172A"/>
<path d="M62.2273 116.6H64.2693C65.1932 116.58 66.1175 116.615 67.0373 116.704C67.4768 116.755 67.889 116.943 68.2153 117.242C68.5193 117.53 68.6713 117.989 68.6713 118.62C68.6713 119.196 68.5653 119.584 68.3493 119.782C68.1333 119.98 67.7113 120.098 67.0813 120.138C67.6533 120.231 68.0373 120.357 68.2333 120.516C68.3913 120.628 68.5174 120.779 68.5993 120.954C68.6667 121.315 68.6909 121.682 68.6713 122.048V124H65.9913V121.54C65.9913 121.14 65.9433 120.9 65.8513 120.804C65.7593 120.708 65.5113 120.664 65.1133 120.664V124H62.2273V116.6ZM65.1133 117.866V119.512C65.3443 119.526 65.5759 119.496 65.7953 119.422C65.9253 119.362 65.9953 119.17 65.9953 118.844V118.444C66.008 118.357 65.9972 118.269 65.9642 118.187C65.9311 118.106 65.877 118.035 65.8073 117.982C65.5885 117.889 65.3506 117.849 65.1133 117.866Z" fill="#0F172A"/>
<path d="M72.6753 116.6V124H69.7893V116.6H72.6753Z" fill="#0F172A"/>
<path d="M78.6613 116.6V118.08L76.5113 122.52H78.6613V124H73.3333V122.926L75.5552 118.08H73.5932V116.6H78.6613Z" fill="#0F172A"/>
<path d="M88.3152 116.6V124H85.7912V119L84.7912 124H83.0032L81.9332 119.118V124H79.4092V116.6H83.1432C83.2552 117.044 83.3692 117.57 83.4872 118.172L83.8872 120.056L84.5592 116.6H88.3152Z" fill="#0F172A"/>
<path d="M92.3614 116.6V124H89.4734V116.6H92.3614Z" fill="#0F172A"/>
<path d="M101.809 116.6V118.08H100.095V124H97.2072V118.08H95.5012V116.6H101.809Z" fill="#0F172A"/>
<path d="M102.467 116.6H107.279V118.08H105.353V119.48H107.153V120.88H105.353V122.508H107.471V124H102.471L102.467 116.6Z" fill="#0F172A"/>
<path d="M113.291 116.6L114.933 124H111.991L111.837 122.67H110.805L110.631 124H107.647L109.119 116.6H113.291ZM111.761 121.358C111.615 120.521 111.468 119.485 111.321 118.25C111.027 119.666 110.842 120.702 110.767 121.358H111.761Z" fill="#0F172A"/>
<path d="M124.333 116.6V124H121.815V119L120.815 124H119.015L117.957 119.118V124H115.431V116.6H119.167C119.277 117.044 119.391 117.57 119.509 118.172L119.909 120.056L120.583 116.6H124.333Z" fill="#0F172A"/>
</svg>
