
<svg width="128" height="128" viewBox="0 0 128 128" fill="none" xmlns="http://www.w3.org/2000/svg">
<path d="M95.9998 86.7315C95.8985 86.888 95.7952 87.0425 95.6938 87.1971C94.6533 88.7659 93.628 90.2832 92.6181 91.7489L92.5837 91.7947C87.3026 99.0164 77.0904 112.215 76.4496 113.025C76.4402 113.039 76.43 113.053 76.419 113.067C81.0976 76.5726 61.5225 63.301 61.5225 63.301L59.4797 68.2631C43.9865 56.8465 33.6002 53.2757 26.6665 53.207C40.2776 49.9626 56.6967 53.9704 57.2877 53.9704C58.1637 53.9704 58.1637 49.6 58.1637 49.6C79.7032 57.2797 91.4857 77.2921 95.9998 86.7315Z" fill="#F49700" stroke="#F1F5F9" stroke-width="0.5"/>
<path d="M79.1493 10.671L82.2059 6.53836C82.2059 6.53836 52.5949 5.32801 40.7295 10.0668C36.0625 12.0011 35.6708 10.5494 31.2961 16.3542C26.9213 22.1589 24.1111 21.8796 17.4018 24.0571C10.7594 26.2099 -1.12889 37.502 13.0614 60.5386C13.2028 60.7723 13.3499 61.006 13.4989 61.2435C13.7419 60.41 14.0891 59.6102 14.5324 58.8627C16.0397 56.2463 19.4994 52.4177 26.8238 52.4937C40.4181 49.2635 56.8169 53.2537 57.4072 53.2537C58.2821 53.2537 58.2821 48.9025 58.2821 48.9025C79.795 56.5446 91.5629 76.4689 96.0714 85.8667C107.874 68.0401 120.778 44.0535 121.6 23.5118C121.6 23.5118 104.75 12.1949 79.1493 10.671ZM39.4725 25.0204C39.4725 25.0204 42.9723 18.4443 51.143 19.7002C51.143 19.7002 52.4058 27.0402 39.4725 25.0204Z" fill="#F67B01" stroke="#F1F5F9" stroke-width="0.5"/>
<path d="M9.64 116.6L11.29 124H8.34L8.186 122.67H7.152L6.98 124H4L5.474 116.6H9.64ZM8.11 121.358C7.96467 120.521 7.818 119.485 7.67 118.25C7.37667 119.666 7.192 120.702 7.116 121.358H8.11Z" fill="#0F172A" stroke="#F1F5F9" stroke-width="0.5"/>
<path d="M14.6658 116.6V122.52H16.4218V124H11.7798V116.6H14.6658Z" fill="#0F172A" stroke="#F1F5F9" stroke-width="0.5"/>
<path d="M20.4338 120.33V121.6H16.7998V120.326L20.4338 120.33Z" fill="#0F172A" stroke="#F1F5F9" stroke-width="0.5"/>
<path d="M28.1359 116.6L26.4799 119.94L28.2939 124H25.3119L24.1419 120.828V124H21.2559V116.6H24.1419V119.474L25.4279 116.6H28.1359Z" fill="#0F172A" stroke="#F1F5F9" stroke-width="0.5"/>
<path d="M35.4278 116.6V124H32.5418V120.892H31.6778V124H28.7998V116.6H31.6878V119.246H32.5518V116.6H35.4278Z" fill="#0F172A" stroke="#F1F5F9" stroke-width="0.5"/>
<path d="M41.5761 116.6L43.2261 124H40.2781L40.1221 122.67H39.0901L38.9161 124H35.9321L37.4001 116.6H41.5761ZM40.0461 121.358C39.9008 120.521 39.7541 119.485 39.6061 118.25C39.3115 119.666 39.1268 120.702 39.0521 121.358H40.0461Z" fill="#0F172A" stroke="#F1F5F9" stroke-width="0.5"/>
<path d="M54.3302 116.6L53.0462 124H49.4462C49.0841 122.724 48.7923 121.428 48.5722 120.12C48.4562 120.743 48.1895 122.036 47.7722 124H44.1802L42.8882 116.6H45.6882L46.0002 119.182L46.2962 121.678C46.4665 119.972 46.7336 118.276 47.0962 116.6H50.0962C50.1362 116.816 50.2409 117.629 50.4102 119.04L50.7282 121.856C50.888 120.089 51.1552 118.334 51.5282 116.6H54.3302Z" fill="#0F172A" stroke="#F1F5F9" stroke-width="0.5"/>
<path d="M59.7519 116.6L61.3999 124H58.4539L58.2979 122.67H57.2659L57.0919 124H54.1079L55.5799 116.6H59.7519ZM58.2219 121.358C58.0752 120.521 57.9286 119.485 57.7819 118.25C57.4899 119.666 57.3059 120.702 57.2299 121.358H58.2219Z" fill="#0F172A" stroke="#F1F5F9" stroke-width="0.5"/>
<path d="M61.894 116.6H63.936C64.86 116.58 65.7842 116.615 66.704 116.704C67.1435 116.755 67.5558 116.943 67.882 117.242C68.186 117.53 68.338 117.989 68.338 118.62C68.338 119.196 68.232 119.584 68.016 119.782C67.8 119.98 67.378 120.098 66.748 120.138C67.32 120.231 67.704 120.357 67.9 120.516C68.058 120.628 68.1841 120.779 68.266 120.954C68.3335 121.315 68.3576 121.682 68.338 122.048V124H65.658V121.54C65.658 121.14 65.61 120.9 65.518 120.804C65.426 120.708 65.178 120.664 64.78 120.664V124H61.894V116.6ZM64.78 117.866V119.512C65.011 119.526 65.2426 119.496 65.462 119.422C65.592 119.362 65.662 119.17 65.662 118.844V118.444C65.6747 118.357 65.664 118.269 65.6309 118.187C65.5979 118.106 65.5437 118.035 65.474 117.982C65.2553 117.889 65.0173 117.849 64.78 117.866Z" fill="#0F172A" stroke="#F1F5F9" stroke-width="0.5"/>
<path d="M72.3421 116.6V124H69.4561V116.6H72.3421Z" fill="#0F172A" stroke="#F1F5F9" stroke-width="0.5"/>
<path d="M78.328 116.6V118.08L76.178 122.52H78.328V124H73V122.926L75.222 118.08H73.26V116.6H78.328Z" fill="#0F172A" stroke="#F1F5F9" stroke-width="0.5"/>
<path d="M87.9822 116.6V124H85.4582V119L84.4582 124H82.6702L81.6002 119.118V124H79.0762V116.6H82.8102C82.9222 117.044 83.0362 117.57 83.1542 118.172L83.5542 120.056L84.2262 116.6H87.9822Z" fill="#0F172A" stroke="#F1F5F9" stroke-width="0.5"/>
<path d="M92.0281 116.6V124H89.1401V116.6H92.0281Z" fill="#0F172A" stroke="#F1F5F9" stroke-width="0.5"/>
<path d="M101.476 116.6V118.08H99.762V124H96.874V118.08H95.168V116.6H101.476Z" fill="#0F172A" stroke="#F1F5F9" stroke-width="0.5"/>
<path d="M102.134 116.6H106.946V118.08H105.02V119.48H106.82V120.88H105.02V122.508H107.138V124H102.138L102.134 116.6Z" fill="#0F172A" stroke="#F1F5F9" stroke-width="0.5"/>
<path d="M112.958 116.6L114.6 124H111.658L111.504 122.67H110.472L110.298 124H107.314L108.786 116.6H112.958ZM111.428 121.358C111.281 120.521 111.135 119.485 110.988 118.25C110.693 119.666 110.509 120.702 110.434 121.358H111.428Z" fill="#0F172A" stroke="#F1F5F9" stroke-width="0.5"/>
<path d="M124 116.6V124H121.482V119L120.482 124H118.682L117.624 119.118V124H115.098V116.6H118.834C118.944 117.044 119.058 117.57 119.176 118.172L119.576 120.056L120.25 116.6H124Z" fill="#0F172A" stroke="#F1F5F9" stroke-width="0.5"/>
</svg>
