
<svg width="128" height="128" viewBox="0 0 128 128" fill="none" xmlns="http://www.w3.org/2000/svg">
<path d="M21.3335 4.26666V75.8812L65.4138 101.333L108.8 75.8812V4.26666H21.3335ZM105.004 73.8761C91.7978 81.629 78.5913 89.3765 65.384 97.1187C51.9667 89.3738 38.5519 81.6263 25.1398 73.8761V8.47728H105.014L105.004 73.8761Z" fill="#0F172A" stroke="#F1F5F9" stroke-width="0.5"/>
<path d="M25.0669 8.53333V74.2459C38.5041 82.036 51.9434 89.8207 65.3846 97.6C78.6153 89.818 91.8428 82.0333 105.067 74.2459V8.53333H25.0669ZM100.52 71.8424L65.3469 92.5452L57.5732 88.0404L57.7718 55.86L67.678 53.0677V43.3388L57.7718 45.9841V41.2234L47.4466 44.0439V82.1797L29.602 71.8424V47.4165C34.7149 45.9357 53.5424 41.2012 68.9448 37.3673V83.0218L79.7207 80.0824V34.6797C86.1997 33.0781 90.6117 31.9922 90.6117 31.9922V22.1203L29.608 37.732V13.5922H100.528L100.52 71.8424Z" fill="white" stroke="#F1F5F9" stroke-width="0.5"/>
<path d="M29.8667 13.3333V37.4671L90.4292 21.8553V31.7247C90.4292 31.7247 86.0495 32.8104 79.618 34.4116V79.807L68.9211 82.7457V37.0945C53.6336 40.9275 34.9422 45.6608 29.8667 47.1493V71.5691L47.5805 81.9038V43.7775L57.83 40.9577V45.7172L67.6636 43.0726V52.799L57.83 55.5906L57.6329 87.763L65.3436 92.2667L100.267 71.5691V13.3333H29.8667ZM57.8201 29.1426L47.5707 31.906V20.7958L57.8201 17.976V29.1426Z" fill="#D42E30" stroke="#F1F5F9" stroke-width="0.5"/>
<path d="M57.6001 18.1334V29.2475L47.4668 32V20.944L57.6001 18.1334Z" fill="white" stroke="#F1F5F9" stroke-width="0.5"/>
<path d="M9.81787 123.69V106.214H11.9999V113.092H16.2639V106.214H18.4419V123.69H16.2639V116.05H11.9999V123.69H9.81787Z" fill="#0F172A" stroke="#F1F5F9" stroke-width="0.5"/>
<path d="M20.6938 123.69V106.214H28.6939V109.17H22.8718V113.046H28.2898V116H22.8718V120.756H28.8999V123.7L20.6938 123.69Z" fill="#0F172A" stroke="#F1F5F9" stroke-width="0.5"/>
<path d="M30.7539 123.69V106.214H35.3399C36.4919 106.214 37.3292 106.371 37.8519 106.686C38.3746 107.001 38.7932 107.559 39.1079 108.36C39.4352 109.241 39.5946 110.175 39.5779 111.114C39.5779 112.426 39.3399 113.509 38.8639 114.362C38.6473 114.77 38.3441 115.127 37.9755 115.406C37.6069 115.685 37.1818 115.88 36.7299 115.978C37.1887 116.406 37.5817 116.901 37.8959 117.444C38.3741 118.36 38.7891 119.307 39.1379 120.28L40.4539 123.69H37.8539L36.2779 119.89C35.9396 119.014 35.5564 118.156 35.1299 117.32C34.9782 117.026 34.7529 116.776 34.4759 116.594C34.1318 116.438 33.7548 116.37 33.3779 116.394H32.9379V123.69H30.7539ZM32.9339 113.6H34.5439C35.5892 113.6 36.2419 113.528 36.5019 113.384C36.7845 113.215 37.0006 112.955 37.1139 112.646C37.2723 112.227 37.3471 111.781 37.3339 111.334C37.3539 110.843 37.2544 110.354 37.0439 109.91C36.9634 109.744 36.8484 109.597 36.7067 109.479C36.565 109.36 36.3997 109.274 36.2219 109.224C35.6947 109.167 35.164 109.147 34.6339 109.164H32.9339V113.6Z" fill="#0F172A" stroke="#F1F5F9" stroke-width="0.5"/>
<path d="M41.2002 115.06C41.2002 113.28 41.3649 111.786 41.6942 110.578C41.9163 109.736 42.2528 108.928 42.6942 108.178C43.0412 107.558 43.5189 107.021 44.0942 106.604C44.7747 106.145 45.5794 105.905 46.4002 105.916C47.9909 105.916 49.2629 106.716 50.2162 108.316C51.1696 109.916 51.6469 112.137 51.6482 114.98C51.6482 117.803 51.1749 120.01 50.2282 121.602C49.2816 123.194 48.0149 123.994 46.4282 124.002C44.8282 124.002 43.5522 123.209 42.6002 121.624C41.6482 120.039 41.1816 117.851 41.2002 115.06ZM43.4462 114.94C43.4462 116.92 43.7282 118.42 44.2922 119.44C44.8562 120.46 45.5722 120.971 46.4402 120.972C47.3082 120.972 48.0209 120.465 48.5782 119.452C49.1356 118.439 49.4142 116.919 49.4142 114.892C49.4142 112.892 49.1429 111.398 48.6002 110.41C48.0576 109.422 47.3376 108.929 46.4402 108.932C45.5416 108.932 44.8182 109.431 44.2702 110.428C43.7222 111.425 43.4442 112.929 43.4362 114.94H43.4462Z" fill="#0F172A" stroke="#F1F5F9" stroke-width="0.5"/>
<path d="M53.356 123.69V106.214H61.356V109.17H55.536V113.046H60.952V116H55.534V120.756H61.56V123.7L53.356 123.69Z" fill="#0F172A" stroke="#F1F5F9" stroke-width="0.5"/>
<path d="M62.856 118L64.976 117.666C65.1013 118.818 65.36 119.665 65.752 120.206C65.926 120.463 66.1617 120.671 66.4374 120.813C66.7132 120.954 67.0201 121.024 67.33 121.016C68.0326 121.016 68.5613 120.775 68.916 120.294C69.2746 119.806 69.4623 119.213 69.45 118.608C69.4611 118.244 69.3842 117.882 69.226 117.554C69.0431 117.231 68.7709 116.968 68.442 116.796C68.186 116.654 67.606 116.396 66.698 116.034C65.53 115.563 64.7106 114.987 64.24 114.304C63.5733 113.344 63.24 112.172 63.24 110.788C63.2334 109.933 63.3923 109.085 63.708 108.29C63.9701 107.579 64.4388 106.963 65.054 106.52C65.6831 106.106 66.425 105.896 67.178 105.92C68.5313 105.92 69.55 106.401 70.234 107.364C70.918 108.327 71.278 109.61 71.314 111.214L69.134 111.368C69.042 110.469 68.842 109.824 68.534 109.432C68.226 109.04 67.7666 108.843 67.156 108.842C66.8762 108.828 66.5969 108.877 66.3391 108.986C66.0813 109.096 65.8518 109.263 65.668 109.474C65.4249 109.781 65.3019 110.167 65.322 110.558C65.3114 110.937 65.4252 111.31 65.646 111.618C65.922 111.991 66.5886 112.381 67.646 112.786C68.7033 113.191 69.488 113.609 70 114.04C70.5432 114.521 70.956 115.132 71.2 115.816C71.5088 116.711 71.6538 117.654 71.628 118.6C71.635 119.562 71.4606 120.517 71.114 121.414C70.8591 122.207 70.3468 122.892 69.6584 123.36C68.97 123.829 68.1449 124.054 67.314 124C65.95 124 64.9026 123.489 64.172 122.468C63.4413 121.447 63.0026 119.957 62.856 118Z" fill="#0F172A" stroke="#F1F5F9" stroke-width="0.5"/>
<path d="M81.6478 121.766V123.692H79.4678V122.666L81.6478 121.766Z" fill="#0F172A" stroke="#F1F5F9" stroke-width="0.5"/>
<path d="M88.424 118.968V120.746H94.452V123.692H86.248V119.868L88.424 118.968Z" fill="#0F172A" stroke="#F1F5F9" stroke-width="0.5"/>
<path d="M99.6221 114.342L99.0741 116.776H102.016L101.3 113.648L103.336 112.806L106.03 123.692H103.658L102.716 119.722H98.4021L97.5121 123.692H95.2021L97.2121 115.334L99.6221 114.342Z" fill="#0F172A" stroke="#F1F5F9" stroke-width="0.5"/>
<path d="M109.178 110.392V123.692H107.154V111.228L109.178 110.392Z" fill="#0F172A" stroke="#F1F5F9" stroke-width="0.5"/>
<path d="M110.978 109.648L112.374 118.134L113.948 108.42L117.574 106.924V123.692H115.552V109.934L113.41 123.692H111.312L109.246 110.366L110.978 109.648Z" fill="#0F172A" stroke="#F1F5F9" stroke-width="0.5"/>
<path d="M101.908 113.648L100.23 114.34" stroke="#F1F5F9" stroke-width="0.5"/>
<path d="M85.448 106.216V109.17H82.256V121.766L80.078 122.666V109.17H76.876V106.216H85.448Z" fill="#D42E30" stroke="#F1F5F9" stroke-width="0.5"/>
<path d="M89.032 118.968V115.988H94.448V113.046H89.032V109.17H94.856V106.216H86.856V119.868L89.032 118.968Z" fill="#D42E30" stroke="#F1F5F9" stroke-width="0.5"/>
<path d="M97.8198 115.334L100.014 106.216H102.316L103.944 112.806L101.908 113.648L101.138 110.292L100.23 114.342L97.8198 115.334Z" fill="#D42E30" stroke="#F1F5F9" stroke-width="0.5"/>
<path d="M107.762 111.228V106.216H111.024L111.586 109.648L109.854 110.366L109.786 109.934V110.392L107.762 111.228Z" fill="#D42E30" stroke="#F1F5F9" stroke-width="0.5"/>
<path d="M118.182 106.924V106.216H114.914L114.556 108.42L118.182 106.924Z" fill="#D42E30" stroke="#F1F5F9" stroke-width="0.5"/>
<path d="M109.854 110.366L109.786 110.392" stroke="#F1F5F9" stroke-width="0.5"/>
</svg>
