<svg width="129" height="128" viewBox="0 0 129 128" fill="none" xmlns="http://www.w3.org/2000/svg">
<path d="M22 4.26666V75.8812L66.0803 101.333L109.467 75.8812V4.26666H22ZM105.67 73.8761C92.4643 81.629 79.2578 89.3765 66.0505 97.1187C52.6332 89.3738 39.2184 81.6263 25.8063 73.8761V8.47728H105.68L105.67 73.8761Z" fill="#0F172A"/>
<path d="M25.7334 8.53333V74.2459C39.1706 82.036 52.6099 89.8207 66.0511 97.6C79.2818 89.818 92.5093 82.0333 105.733 74.2459V8.53333H25.7334ZM101.186 71.8424L66.0134 92.5452L58.2397 88.0404L58.4383 55.86L68.3445 53.0677V43.3388L58.4383 45.9841V41.2234L48.1131 44.0439V82.1797L30.2685 71.8424V47.4165C35.3814 45.9357 54.209 41.2012 69.6113 37.3673V83.0218L80.3872 80.0824V34.6797C86.8662 33.0781 91.2782 31.9922 91.2782 31.9922V22.1203L30.2745 37.732V13.5922H101.194L101.186 71.8424Z" fill="white"/>
<path d="M30.5334 13.3333V37.4671L91.0959 21.8553V31.7247C91.0959 31.7247 86.7163 32.8103 80.2847 34.4116V79.807L69.5878 82.7457V37.0945C54.3004 40.9275 35.6089 45.6608 30.5334 47.1492V71.569L48.2473 81.9037V43.7775L58.4967 40.9577V45.7171L68.3303 43.0725V52.799L58.4967 55.5906L58.2996 87.763L66.0104 92.2666L100.933 71.569V13.3333H30.5334ZM58.4869 29.1425L48.2374 31.906V20.7958L58.4869 17.976V29.1425Z" fill="#D42E30"/>
<path d="M58.2666 18.1334V29.2475L48.1333 32V20.944L58.2666 18.1334Z" fill="white"/>
<path d="M10.4849 123.69V106.214H12.6669V113.092H16.9309V106.214H19.1089V123.69H16.9309V116.05H12.6669V123.69H10.4849Z" fill="#0F172A"/>
<path d="M21.3608 123.69V106.214H29.3608V109.17H23.5388V113.046H28.9568V116H23.5388V120.756H29.5668V123.7L21.3608 123.69Z" fill="#0F172A"/>
<path d="M31.4207 123.69V106.214H36.0067C37.1587 106.214 37.996 106.371 38.5187 106.686C39.0413 107.001 39.46 107.559 39.7747 108.36C40.1019 109.241 40.2613 110.175 40.2447 111.114C40.2447 112.426 40.0067 113.509 39.5307 114.362C39.314 114.77 39.0108 115.127 38.6422 115.406C38.2736 115.685 37.8485 115.88 37.3967 115.978C37.8555 116.406 38.2484 116.901 38.5627 117.444C39.0408 118.36 39.4558 119.307 39.8047 120.28L41.1207 123.69H38.5207L36.9447 119.89C36.6064 119.014 36.2232 118.156 35.7967 117.32C35.6449 117.026 35.4196 116.776 35.1427 116.594C34.7986 116.438 34.4215 116.37 34.0447 116.394H33.6047V123.69H31.4207ZM33.6007 113.6H35.2107C36.256 113.6 36.9087 113.528 37.1687 113.384C37.4513 113.215 37.6674 112.955 37.7807 112.646C37.9391 112.227 38.0138 111.781 38.0007 111.334C38.0207 110.843 37.9212 110.354 37.7107 109.91C37.6301 109.744 37.5152 109.597 37.3734 109.479C37.2317 109.36 37.0665 109.274 36.8887 109.224C36.3614 109.167 35.8307 109.147 35.3007 109.164H33.6007V113.6Z" fill="#0F172A"/>
<path d="M41.8667 115.06C41.8667 113.28 42.0314 111.786 42.3607 110.578C42.5828 109.736 42.9193 108.928 43.3608 108.178C43.7077 107.558 44.1854 107.021 44.7608 106.604C45.4412 106.145 46.2459 105.905 47.0668 105.916C48.6574 105.916 49.9294 106.716 50.8828 108.316C51.8361 109.916 52.3134 112.137 52.3148 114.98C52.3148 117.803 51.8414 120.01 50.8948 121.602C49.9481 123.194 48.6814 123.994 47.0948 124.002C45.4948 124.002 44.2188 123.209 43.2667 121.624C42.3147 120.039 41.8481 117.851 41.8667 115.06ZM44.1127 114.94C44.1127 116.92 44.3948 118.42 44.9588 119.44C45.5228 120.46 46.2388 120.971 47.1068 120.972C47.9748 120.972 48.6874 120.465 49.2448 119.452C49.8021 118.439 50.0808 116.919 50.0808 114.892C50.0808 112.892 49.8094 111.398 49.2668 110.41C48.7241 109.422 48.0041 108.929 47.1068 108.932C46.2081 108.932 45.4848 109.431 44.9368 110.428C44.3888 111.425 44.1107 112.929 44.1027 114.94H44.1127Z" fill="#0F172A"/>
<path d="M54.0227 123.69V106.214H62.0227V109.17H56.2027V113.046H61.6187V116H56.2007V120.756H62.2267V123.7L54.0227 123.69Z" fill="#0F172A"/>
<path d="M63.5227 118L65.6427 117.666C65.768 118.818 66.0267 119.665 66.4187 120.206C66.5927 120.463 66.8284 120.671 67.1042 120.813C67.3799 120.954 67.6869 121.024 67.9967 121.016C68.6994 121.016 69.228 120.775 69.5827 120.294C69.9414 119.806 70.1291 119.213 70.1167 118.608C70.1278 118.244 70.051 117.882 69.8927 117.554C69.7099 117.231 69.4376 116.968 69.1087 116.796C68.8527 116.654 68.2727 116.396 67.3647 116.034C66.1967 115.563 65.3774 114.987 64.9067 114.304C64.24 113.344 63.9067 112.172 63.9067 110.788C63.9002 109.933 64.0591 109.085 64.3747 108.29C64.6369 107.579 65.1056 106.963 65.7207 106.52C66.3498 106.106 67.0918 105.896 67.8447 105.92C69.198 105.92 70.2167 106.401 70.9007 107.364C71.5847 108.327 71.9447 109.61 71.9807 111.214L69.8007 111.368C69.7087 110.469 69.5087 109.824 69.2007 109.432C68.8927 109.04 68.4334 108.843 67.8227 108.842C67.543 108.828 67.2636 108.877 67.0058 108.986C66.748 109.096 66.5185 109.263 66.3347 109.474C66.0916 109.781 65.9686 110.167 65.9887 110.558C65.9781 110.937 66.0919 111.31 66.3127 111.618C66.5887 111.991 67.2554 112.381 68.3127 112.786C69.37 113.191 70.1547 113.609 70.6667 114.04C71.21 114.521 71.6227 115.132 71.8667 115.816C72.1755 116.711 72.3205 117.654 72.2947 118.6C72.3017 119.562 72.1274 120.517 71.7807 121.414C71.5258 122.207 71.0136 122.892 70.3252 123.36C69.6368 123.829 68.8117 124.054 67.9807 124C66.6167 124 65.5694 123.489 64.8387 122.468C64.108 121.447 63.6694 119.957 63.5227 118Z" fill="#0F172A"/>
<path d="M82.3147 121.766V123.692H80.1348V122.666L82.3147 121.766Z" fill="#0F172A"/>
<path d="M89.0908 118.968V120.746H95.1188V123.692H86.9148V119.868L89.0908 118.968Z" fill="#0F172A"/>
<path d="M100.289 114.342L99.7406 116.776H102.683L101.967 113.648L104.003 112.806L106.697 123.692H104.325L103.383 119.722H99.0687L98.1786 123.692H95.8687L97.8786 115.334L100.289 114.342Z" fill="#0F172A"/>
<path d="M109.845 110.392V123.692H107.821V111.228L109.845 110.392Z" fill="#0F172A"/>
<path d="M111.645 109.648L113.041 118.134L114.615 108.42L118.241 106.924V123.692H116.219V109.934L114.077 123.692H111.979L109.913 110.366L111.645 109.648Z" fill="#0F172A"/>
<path d="M86.1147 106.216V109.17H82.9227V121.766L80.7447 122.666V109.17H77.5427V106.216H86.1147Z" fill="#D42E30"/>
<path d="M89.6987 118.968V115.988H95.1147V113.046H89.6987V109.17H95.5227V106.216H87.5227V119.868L89.6987 118.968Z" fill="#D42E30"/>
<path d="M98.4868 115.334L100.681 106.216H102.983L104.611 112.806L102.575 113.648L101.805 110.292L100.897 114.342L98.4868 115.334Z" fill="#D42E30"/>
<path d="M108.429 111.228V106.216H111.691L112.253 109.648L110.521 110.366L110.453 109.934V110.392L108.429 111.228Z" fill="#D42E30"/>
<path d="M118.849 106.924V106.216H115.581L115.223 108.42L118.849 106.924Z" fill="#D42E30"/>
</svg>
