<svg width="250" height="250" viewBox="0 0 250 250" fill="none" xmlns="http://www.w3.org/2000/svg">
<path d="M131.789 67.6758C131.789 67.6758 140.754 61.4766 140.621 51.0625C140.488 40.6484 138.25 43.5469 137.855 29.3047C138.246 17.1953 148.141 7.82031 148.141 7.82031C146.699 8.3125 131.27 13.8281 128.656 26.1484C128.285 27.9102 126.684 35.457 130.016 41.8984C130.855 43.5195 132.547 46.1133 133.371 50.2774C133.716 52.0854 133.866 53.9255 133.816 55.7656C133.775 59.8179 133.09 63.8379 131.789 67.6758Z" fill="#F69300"/>
<path d="M131.789 67.6758C136.418 59.9414 138.148 53.1055 138.012 49.9883C137.926 48.4653 137.727 46.9508 137.418 45.457C137.143 44.203 136.781 42.9696 136.336 41.7656C135.396 38.8218 134.724 35.7991 134.328 32.7344C133.988 30.3477 133.691 25.3789 136.207 18.0977C134.155 20.1992 132.401 22.573 130.996 25.1523C130.012 26.9648 128.34 30.0352 127.945 33.4258C127.269 39.1953 130.711 42.2773 132.633 47.5234C134.172 51.6602 135.117 58.0859 131.789 67.6758Z" fill="#E40212"/>
<path d="M165.676 93.4531C165.03 92.4197 164.561 91.2856 164.289 90.0977C163.895 88.4014 163.918 86.6348 164.355 84.9492C164.715 83.6602 164.973 83.7774 165.742 81.918C166.474 80.2099 166.961 78.4069 167.188 76.5625C167.391 74.7723 167.324 72.9616 166.988 71.1914C167.409 72.218 167.695 73.2946 167.84 74.3945C167.979 75.5784 167.973 76.7748 167.82 77.957C167.721 79.4891 167.423 81.0017 166.934 82.457C166.297 84.2852 165.863 84.4102 165.449 86.0977C165.217 87.0688 165.099 88.0639 165.098 89.0625C165.074 90.5465 165.269 92.0258 165.676 93.4531Z" fill="#F69300"/>
<path d="M168.84 94.9688C168.84 94.9688 173.984 86.1367 175.039 76.6406C175.039 71.6953 173.191 67.8398 173.688 56.9609C174.184 46.082 182.785 39.4531 184.766 39.4531C179.441 44.4258 177.844 49.2734 177.273 51.7656C176.543 54.957 176.684 57.8359 176.883 61.8789C177.195 68.3555 178.152 68.5586 178.055 72.8789C177.9 77.2126 176.882 81.4717 175.059 85.4062C173.509 88.905 171.409 92.1333 168.84 94.9688Z" fill="#E40212"/>
<path d="M179.828 124.66C179.828 124.66 182.813 121.012 183.984 116.766C184.34 114.516 183.777 112.625 184.789 107.711C185.801 102.797 190.191 100.402 191.09 100.543C188.309 102.422 187.234 104.512 186.793 105.621C186.23 107.023 186.086 108.355 185.883 110.195C185.559 113.168 185.98 113.32 185.617 115.273C185.236 117.236 184.466 119.102 183.352 120.762C182.393 122.241 181.203 123.557 179.828 124.66Z" fill="#E40212"/>
<path d="M138.02 83.5625C140.957 81.4844 159.277 68.082 159.531 47.1094C159.571 42.5677 158.795 38.0559 157.238 33.7891C160.443 36.3521 163.024 39.6099 164.785 43.3164C168.43 51.1289 167.129 58.8242 166.172 64.6758C165.359 69.5469 164.535 74.4687 161.82 80.3008C160.648 82.8086 158.223 87.4336 158.258 93.4023C158.258 94.9648 158.441 96.1367 159.148 97.2617C161.102 100.367 165.938 100.91 169.105 100.441C173.23 99.832 176.066 97.2773 180.016 93.7187C181.491 92.3882 182.878 90.9633 184.168 89.4531C184.458 91.5665 184.525 93.7046 184.367 95.832C184.277 97.0039 183.813 102.301 180.113 109.727C176.621 116.73 173.934 118.234 173.918 123.059C173.918 124.336 173.941 127.051 175.813 128.527C177.824 130.09 180.738 129.266 181.598 129.02C187.902 127.215 190.082 118.863 190.348 117.797C190.939 121.659 190.698 125.602 189.641 129.363C188.385 133.854 185.988 137.944 182.684 141.234C175.566 148.098 166.605 148.437 164.355 148.437C164.355 148.437 153.535 149.105 153.027 147.793C152.52 146.48 151.563 95.7617 151.563 95.7617L138.02 83.5625Z" fill="#F69300"/>
<path d="M108.715 169.402C108.715 169.402 125.121 163.402 136.996 155.953C148.871 148.504 157.238 148.832 163.5 148.172C169.762 147.512 177.871 143.691 185.914 130.77C181.492 132.113 177.07 131.258 174.879 128.492C172.926 126.02 173.25 122.672 173.391 121.293C173.57 119.473 174.437 117.566 176.16 113.824C178.078 109.652 178.465 109.465 179.113 107.668C179.863 105.598 180.57 102.488 180.113 98.1992C180.113 98.1992 165.875 105.914 158.754 97.3086C155.785 93.4531 159.051 85.543 160.039 77.6289C161.027 69.7148 160.633 66.3555 160.137 60.5234C160.137 60.5234 143.785 80.8594 138.019 83.5703C138.019 83.5703 124.273 73.1562 118.406 74.4062C118.406 74.4062 120.183 83.3906 119.789 85.3437C119.394 87.2969 120.383 89.5625 113.93 88.8594C107.476 88.1562 93.6171 81.2109 90.1288 75.6055C90.1288 75.6055 87.953 83.75 92.4374 91.3477C92.4374 91.3477 83.371 96.375 82.8436 97.2656C82.3163 98.1562 81.5272 103.066 81.0311 104.02C80.535 104.973 66.9882 123.043 61.4022 124.969C59.7694 125.75 58.0897 144.891 59.2733 146.777C60.4569 148.664 79.828 152.152 79.828 152.152C79.828 152.152 86.2772 143.586 94.4686 140.121C102.66 136.656 120.324 125.711 129.234 131.383C138.144 137.055 139.187 128.852 139.187 128.852C139.187 128.852 141.824 139.887 135.695 145.687C129.566 151.488 125.539 151.621 124.551 154.719C123.562 157.816 112.406 168.359 108.715 169.402Z" fill="#E40212"/>
<path d="M81.6172 110.711C81.5895 108.829 82.0598 106.973 82.9804 105.332C83.901 103.69 85.2392 102.321 86.8594 101.363C92.4962 98.0039 95.0157 95.9258 95.9063 91.3281C95.9063 91.3281 97.4688 99.5859 91.4571 102.797C85.4454 106.008 82.2618 108.535 81.6172 110.711Z" fill="#F69300"/>
<path d="M79.4414 152.691C79.4414 152.691 91.0117 134.098 116.723 136.285C142.434 138.473 145.797 128.719 150.051 104.738C150.051 104.738 142.039 113.441 128.293 114.727C114.547 116.012 95.957 114.527 90.7148 120.461C85.4727 126.395 59.8555 142.418 59.2656 146.77C58.6758 151.121 79.4414 152.691 79.4414 152.691Z" fill="#F69300"/>
<path d="M104.461 233.73C102.809 229.824 100.945 223.719 102.187 216.805C104.961 201.203 121.453 192.551 130.738 187.68C149.609 177.789 157.031 181.934 170.078 173.109C181.84 165.164 187.906 153.637 191.133 145.551C177.289 157.559 164.848 162.434 155.977 164.656C146.211 167.109 142.219 165.969 129.672 169.699C121.078 172.25 111.437 175.219 101.848 182.785C93.8554 189.098 82.9179 197.734 83.6523 209.816C84.2773 219.898 92.8125 228.988 104.461 233.73Z" fill="#E40212"/>
<path d="M117.813 242.187C117.813 242.187 105.953 235.848 104.082 223.855C102.078 211.008 112.059 200.605 117.813 194.719C121.145 191.309 126.469 185.863 135 183.051C142.031 180.734 145.649 182.055 155.172 179.094C155.484 178.996 162.457 177.105 168.106 173.461C175.527 168.687 182.02 160.875 190.645 145.867C190.981 151.336 191.426 169.719 178.84 184.023C171.875 191.949 163.195 196.031 160.117 197.441C150.121 202.031 148.692 202.496 138 203.621C115.438 205.992 105.746 226.953 117.813 242.187Z" fill="#F69300"/>
<path d="M195.82 195.867L194.305 178.906C188.164 179.555 183.23 183.008 181.941 187.648C181.055 190.844 182.145 193.715 182.57 194.797C185.051 201.082 191.496 203.125 192.527 203.434C192.336 201.8 192.634 200.147 193.383 198.684C193.969 197.57 194.803 196.607 195.82 195.867Z" fill="#5B5902"/>
<path d="M198.262 193.887L196.812 177.934C200.909 174.938 205.867 173.352 210.941 173.411C216.016 173.47 220.935 175.172 224.961 178.262C223.203 178.291 221.498 178.867 220.082 179.91C218.842 180.84 217.884 182.096 217.316 183.539C220.567 184.573 223.301 186.808 224.961 189.789C215.865 187.731 206.326 189.191 198.262 193.875V193.887Z" fill="#C8C206"/>
<path d="M54.1797 195.867L55.6953 178.906C61.8359 179.555 66.7695 183.008 68.0586 187.648C68.9453 190.844 67.8555 193.715 67.4297 194.797C64.9492 201.082 58.5039 203.125 57.4727 203.434C57.664 201.8 57.3663 200.147 56.6172 198.684C56.0314 197.57 55.1974 196.607 54.1797 195.867Z" fill="#5B5902"/>
<path d="M51.7383 193.887L53.1875 177.934C49.0905 174.938 44.1333 173.352 39.0586 173.411C33.984 173.47 29.0651 175.172 25.0391 178.262C26.7971 178.291 28.5023 178.867 29.918 179.91C31.1584 180.84 32.1159 182.096 32.6836 183.539C29.4327 184.573 26.6986 186.808 25.0391 189.789C34.1355 187.731 43.6738 189.191 51.7383 193.875V193.887Z" fill="#C8C206"/>
<path d="M60.5156 185.66C76.9922 190.625 98.6719 195.176 127.734 194.895C149.024 194.683 170.185 191.555 190.625 185.598L193.395 203.398C171.674 209.742 149.171 213.005 126.543 213.09C103.319 213.172 80.2036 209.908 57.9102 203.398C58.0312 197.266 60.3867 191.797 60.5156 185.66Z" fill="#C8C206"/>
<path d="M77.9052 192.844L77.5583 207.237L73.8292 206.571L74.0847 204.019L72.7782 203.785L72.1247 206.267L68.3524 205.593L72.636 191.903L77.9052 192.844ZM74.412 201.515C74.5028 199.894 74.6582 197.901 74.8782 195.536C74.0444 198.149 73.4737 200.067 73.1661 201.292L74.412 201.515Z" fill="black"/>
<path d="M85.0752 193.831L83.4815 205.101L85.7093 205.416L85.3105 208.236L79.4191 207.402L81.4115 193.312L85.0752 193.831Z" fill="black"/>
<path d="M92.172 202.052L91.8769 204.487L87.2453 203.913L87.5404 201.479L92.172 202.052Z" fill="black"/>
<path d="M94.55 194.963L100.788 195.565L100.504 198.399L97.9497 198.152L97.6812 200.837L99.9558 201.057L99.6865 203.75L97.4119 203.531L96.8172 209.478L93.1341 209.122L94.55 194.963Z" fill="black"/>
<path d="M108.24 196.174L109.36 210.517L105.581 210.252L105.575 207.688L104.252 207.595L103.854 210.131L100.031 209.863L102.901 195.8L108.24 196.174ZM105.646 205.164C105.572 203.544 105.524 201.546 105.502 199.172C104.938 201.857 104.565 203.825 104.384 205.076L105.646 205.164Z" fill="black"/>
<path d="M118.125 196.681L118.012 199.527L115.816 199.43L115.361 210.803L111.665 210.641L112.12 199.268L109.933 199.172L110.047 196.327L118.125 196.681Z" fill="black"/>
<path d="M123.34 196.747L123.198 210.975L119.498 210.91L119.641 196.682L123.34 196.747Z" fill="black"/>
<path d="M133.842 196.624L133.984 210.853L130.285 210.917L130.225 204.941L129.118 204.961L129.178 210.937L125.478 211.002L125.336 196.773L129.035 196.708L129.086 201.797L130.193 201.777L130.143 196.689L133.842 196.624Z" fill="black"/>
<path d="M146.972 195.957L147.143 198.8L144.95 198.934L145.631 210.296L141.938 210.522L141.256 199.161L139.072 199.295L138.901 196.453L146.972 195.957Z" fill="black"/>
<path d="M148.515 195.812L154.661 195.273L154.916 198.109L152.456 198.325L152.698 201.012L155.001 200.81L155.243 203.506L152.941 203.708L153.221 206.825L155.926 206.587L156.182 209.423L149.79 209.984L148.515 195.812Z" fill="black"/>
<path d="M162.934 194.412L166.748 208.278L162.989 208.744L162.498 206.227L161.181 206.391L161.27 208.957L157.467 209.428L157.622 195.07L162.934 194.412ZM162.09 203.736C161.71 202.16 161.284 200.208 160.813 197.881C160.768 200.626 160.775 202.63 160.834 203.892L162.09 203.736Z" fill="black"/>
<path d="M177.696 192.133L179.967 206.18L176.773 206.689L175.24 197.206L175.497 206.892L173.231 207.253L170.388 198.201L171.886 207.467L168.692 207.976L166.422 193.929L171.152 193.175C171.427 193.998 171.736 194.969 172.077 196.09L173.158 199.584L172.931 192.892L177.696 192.133Z" fill="black"/>
</svg>
