<svg width="250" height="250" viewBox="0 0 250 250" fill="none" xmlns="http://www.w3.org/2000/svg">
<path d="M200.316 171.812L188.434 157.422C189.813 154.882 191.037 152.26 192.098 149.57H160.672C156.562 155.098 151.216 159.588 145.062 162.682C138.907 165.775 132.115 167.386 125.227 167.386C118.338 167.386 111.546 165.775 105.391 162.682C99.2367 159.588 93.891 155.098 89.7812 149.57H58.3516C59.5215 152.535 60.8864 155.419 62.4375 158.203L51.1094 171.707C50.3169 172.663 49.9091 173.881 49.9654 175.121C50.0217 176.362 50.5382 177.537 51.4141 178.418L70.4727 197.473C71.3476 198.348 72.5166 198.866 73.7524 198.927C74.9883 198.989 76.2028 198.589 77.1601 197.805L90.9492 186.398C95.6165 188.951 100.558 190.967 105.68 192.406L107.383 210.305C107.494 211.546 108.066 212.7 108.987 213.541C109.907 214.381 111.109 214.846 112.355 214.844H139.309C140.553 214.843 141.752 214.376 142.669 213.535C143.587 212.694 144.156 211.54 144.266 210.301L145.863 192.09C150.819 190.617 155.598 188.602 160.113 186.082L174.219 197.863C175.171 198.666 176.39 199.08 177.634 199.024C178.878 198.967 180.055 198.444 180.93 197.559L200 178.516C200.877 177.638 201.395 176.465 201.454 175.225C201.512 173.986 201.107 172.769 200.316 171.812Z" fill="#5457E2"/>
<path d="M212.82 104.871L194.219 103.102C192.808 98.2173 190.868 93.5019 188.434 89.0391L200.316 74.6602C201.103 73.7045 201.507 72.4902 201.448 71.2535C201.39 70.0168 200.874 68.846 200 67.9688L180.941 48.9102C180.06 48.0351 178.885 47.5192 177.645 47.4629C176.404 47.4066 175.187 47.8139 174.23 48.6055L160.137 60.4258C155.617 57.8936 150.83 55.8708 145.863 54.3946L144.266 36.1915C144.153 34.955 143.581 33.8054 142.664 32.9685C141.747 32.1316 140.55 31.6677 139.309 31.668H112.355C111.116 31.6625 109.919 32.1207 109.001 32.9527C108.082 33.7847 107.508 34.9302 107.391 36.1641L105.687 54.0665C100.562 55.518 95.6138 57.5343 90.9335 60.0782L77.1679 48.6915C76.2161 47.8989 75.0024 47.4908 73.7651 47.5471C72.5278 47.6035 71.3562 48.1203 70.4804 48.9961L51.4218 68.0469C50.546 68.9275 50.0295 70.1028 49.9732 71.3435C49.9169 72.5843 50.3247 73.8015 51.1171 74.7579L62.4453 88.2618C59.7958 92.9846 57.7062 98.0002 56.2187 103.207L38.6718 104.871C37.4379 104.989 36.2925 105.563 35.46 106.482C34.6276 107.4 34.1682 108.596 34.1718 109.836V136.789C34.1724 138.03 34.6366 139.227 35.4734 140.144C36.3101 141.061 37.4591 141.632 38.6953 141.746L49.7851 142.731H201.66L212.793 141.746C214.034 141.638 215.189 141.069 216.031 140.151C216.873 139.234 217.342 138.035 217.344 136.789V109.836C217.342 108.594 216.878 107.397 216.042 106.479C215.205 105.561 214.057 104.988 212.82 104.871ZM110.34 112.465C110.341 112.759 110.231 113.044 110.032 113.261C109.833 113.478 109.559 113.612 109.266 113.637L104.863 114.027C104.527 115.183 104.067 116.298 103.492 117.356L106.309 120.762C106.496 120.987 106.592 121.275 106.577 121.568C106.563 121.861 106.439 122.138 106.23 122.344L101.719 126.859C101.511 127.069 101.232 127.193 100.938 127.206C100.643 127.219 100.354 127.12 100.129 126.93L96.7851 124.137C95.7152 124.732 94.5835 125.209 93.4101 125.559L93.0195 129.856C92.9959 130.15 92.862 130.424 92.6448 130.624C92.4275 130.824 92.1428 130.935 91.8476 130.934H85.4765C85.1819 130.935 84.8977 130.825 84.6806 130.626C84.4634 130.427 84.3292 130.153 84.3046 129.859L83.914 125.621C82.7018 125.279 81.5317 124.802 80.4257 124.199L77.1601 126.898C76.9358 127.08 76.6523 127.173 76.3639 127.158C76.0756 127.144 75.8027 127.024 75.5976 126.82L71.082 122.309C70.8723 122.101 70.7486 121.822 70.7356 121.527C70.7225 121.233 70.8211 120.944 71.0117 120.719L73.6914 117.52C73.0675 116.407 72.5722 115.228 72.2148 114.004L68.0703 113.637C67.7774 113.611 67.5048 113.477 67.3065 113.26C67.1083 113.043 66.9988 112.759 67 112.465V106.082C66.9988 105.789 67.1077 105.506 67.3051 105.289C67.5025 105.072 67.7742 104.937 68.0664 104.91L72.2148 104.52C72.5696 103.287 73.0651 102.1 73.6914 100.981L71.0117 97.7813C70.8211 97.5561 70.7225 97.2673 70.7356 96.9726C70.7486 96.6779 70.8723 96.399 71.082 96.1915L75.5976 91.6797C75.8032 91.4771 76.0763 91.3575 76.3647 91.3438C76.653 91.3301 76.9362 91.4233 77.1601 91.6055L80.4218 94.3047C81.5293 93.7013 82.7006 93.223 83.914 92.879L84.3046 88.6407C84.331 88.3485 84.4661 88.0769 84.683 87.8794C84.9 87.682 85.1832 87.5731 85.4765 87.5743H91.8554C92.1494 87.5732 92.4331 87.6826 92.6501 87.8808C92.8672 88.0791 93.0018 88.3517 93.0273 88.6446L93.4179 92.9414C94.5937 93.2914 95.7269 93.7709 96.7968 94.3711L100.137 91.5704C100.362 91.3803 100.651 91.2824 100.946 91.2962C101.241 91.3099 101.52 91.4343 101.727 91.6446L106.25 96.1641C106.46 96.3704 106.584 96.648 106.599 96.9418C106.613 97.2356 106.516 97.5241 106.328 97.75L103.492 101.172C104.07 102.23 104.53 103.349 104.863 104.508L109.269 104.926C109.562 104.951 109.835 105.086 110.033 105.303C110.231 105.52 110.341 105.804 110.34 106.098V112.465ZM184.559 112.465C184.559 112.76 184.449 113.045 184.249 113.262C184.049 113.479 183.775 113.613 183.48 113.637L179.082 114.027C178.742 115.182 178.281 116.298 177.707 117.356L180.523 120.762C180.711 120.987 180.807 121.275 180.792 121.568C180.778 121.861 180.654 122.138 180.445 122.344L175.937 126.859C175.73 127.069 175.451 127.193 175.156 127.206C174.862 127.219 174.573 127.12 174.348 126.93L171.004 124.137C169.935 124.734 168.803 125.21 167.629 125.559L167.238 129.856C167.215 130.15 167.081 130.424 166.864 130.624C166.646 130.824 166.362 130.935 166.066 130.934H159.695C159.401 130.935 159.116 130.825 158.899 130.626C158.682 130.427 158.548 130.153 158.523 129.859L158.133 125.621C156.92 125.28 155.75 124.803 154.644 124.199L151.375 126.898C151.149 127.086 150.862 127.182 150.569 127.167C150.276 127.153 149.999 127.029 149.793 126.82L145.281 122.309C145.071 122.102 144.947 121.823 144.933 121.528C144.919 121.234 145.017 120.944 145.207 120.719L147.887 117.52C147.264 116.407 146.77 115.228 146.414 114.004L142.266 113.637C141.973 113.611 141.7 113.477 141.502 113.26C141.304 113.043 141.194 112.759 141.195 112.465V106.082C141.194 105.789 141.303 105.506 141.5 105.289C141.698 105.072 141.969 104.937 142.262 104.91L146.414 104.52C146.766 103.287 147.26 102.099 147.887 100.981L145.207 97.7813C145.017 97.5556 144.919 97.2666 144.933 96.9718C144.947 96.6771 145.071 96.3985 145.281 96.1915L149.793 91.6797C150 91.4717 150.277 91.3487 150.569 91.3349C150.862 91.3212 151.15 91.4177 151.375 91.6055L154.637 94.3047C155.746 93.7012 156.918 93.223 158.133 92.879L158.523 88.6407C158.55 88.3485 158.685 88.0769 158.902 87.8794C159.119 87.682 159.402 87.5731 159.695 87.5743H166.078C166.372 87.5732 166.656 87.6826 166.873 87.8808C167.09 88.0791 167.224 88.3517 167.25 88.6446L167.641 92.9414C168.817 93.2907 169.95 93.7702 171.019 94.3711L174.359 91.5704C174.585 91.3803 174.874 91.2824 175.169 91.2962C175.463 91.3099 175.742 91.4343 175.949 91.6446L180.469 96.1641C180.678 96.3704 180.803 96.648 180.817 96.9418C180.832 97.2356 180.735 97.5241 180.547 97.75L177.711 101.172C178.288 102.231 178.749 103.349 179.086 104.508L183.488 104.926C183.782 104.95 184.055 105.085 184.254 105.302C184.453 105.519 184.563 105.803 184.562 106.098L184.559 112.465Z" fill="#5457E2"/>
<path d="M172.408 113.26C174.619 107.922 172.084 101.803 166.747 99.5917C161.409 97.3807 155.29 99.9154 153.079 105.253C150.868 110.591 153.403 116.71 158.74 118.921C164.078 121.132 170.197 118.597 172.408 113.26Z" fill="#5457E2"/>
<path d="M98.6998 111.652C100.027 106.029 96.5445 100.395 90.9216 99.0679C85.2987 97.7407 79.6646 101.223 78.3374 106.846C77.0103 112.469 80.4927 118.103 86.1156 119.43C91.7386 120.757 97.3727 117.275 98.6998 111.652Z" fill="#5457E2"/>
<path d="M230.207 27.6406C235.682 27.6406 240.121 23.2019 240.121 17.7266C240.121 12.2512 235.682 7.8125 230.207 7.8125C224.732 7.8125 220.293 12.2512 220.293 17.7266C220.293 23.2019 224.732 27.6406 230.207 27.6406Z" fill="#5457E2"/>
<path d="M195.496 47.4141L200.766 52.7812L230.207 17.7266L195.496 47.4141Z" fill="#5457E2"/>
<path d="M19.793 27.6406C25.2684 27.6406 29.707 23.2019 29.707 17.7266C29.707 12.2512 25.2684 7.8125 19.793 7.8125C14.3176 7.8125 9.87891 12.2512 9.87891 17.7266C9.87891 23.2019 14.3176 27.6406 19.793 27.6406Z" fill="#5457E2"/>
<path d="M54.5039 47.4141L49.2344 52.7812L19.793 17.7266L54.5039 47.4141Z" fill="#5457E2"/>
<path d="M37.5625 177.145L22.5586 192.969L17.8242 185.938L20.75 183.434L19.0898 180.973L15.625 182.676L10.8477 175.559L30.8594 167.188L37.5625 177.145ZM23.7578 181.133C25.5182 179.438 27.7539 177.424 30.4648 175.094C26.6133 176.656 23.8451 177.879 22.1602 178.762L23.7578 181.133Z" fill="#5457E2"/>
<path d="M46.1523 187.055L33.6211 198.574L37.0352 202.289L33.9102 205.172L24.8672 195.344L40.5352 180.945L46.1523 187.055Z" fill="#5457E2"/>
<path d="M50.6055 205.68L48.207 208.453L40.2852 201.613L42.6797 198.84L50.6055 205.68Z" fill="#5457E2"/>
<path d="M67.0938 204.191L59.0078 215.891C57.7969 217.641 56.9922 218.747 56.5938 219.211C56.1587 219.693 55.5599 219.995 54.9141 220.059C54.1055 220.145 53.2887 220.01 52.5508 219.668C51.3018 219.074 50.1105 218.365 48.9922 217.551L45.5742 215.207L47.6875 212.145C48.0781 212.449 48.375 212.668 48.5586 212.793C48.9428 213.088 49.3959 213.28 49.875 213.352C50.0318 213.38 50.1929 213.372 50.3464 213.33C50.4999 213.287 50.6418 213.21 50.7617 213.106C51.125 212.699 51.4567 212.266 51.7539 211.809L60.2656 199.492L67.0938 204.191Z" fill="#5457E2"/>
<path d="M81.5039 211.77L76.3086 232.941L68.7109 229.176L70.0078 225.551L67.3477 224.219L65.2031 227.422L57.5156 223.613L70.7539 206.426L81.5039 211.77ZM71.4844 222.074C72.1797 219.73 73.125 216.874 74.3203 213.504C71.7526 216.78 69.9544 219.214 68.9258 220.805L71.4844 222.074Z" fill="#5457E2"/>
<path d="M100.07 217.988L98.8281 222.059L89.1797 232.453L95.0898 234.262L93.8437 238.332L79.2148 233.852L80.1211 230.898L90.3086 219.449L84.9141 217.801L86.1641 213.727L100.07 217.988Z" fill="#5457E2"/>
<path d="M115.801 220.391L117.578 242.121L109.18 240.949L109.266 237.098L106.324 236.707L105.305 240.426L96.8047 239.254L103.906 218.75L115.801 220.391ZM109.551 233.336C109.465 230.891 109.457 227.883 109.527 224.312C108.129 228.219 107.193 231.095 106.719 232.941L109.551 233.336Z" fill="#5457E2"/>
<path d="M120.367 220.926L126.227 220.684C130.133 220.522 132.786 220.514 134.187 220.66C135.456 220.752 136.664 221.243 137.637 222.062C138.547 222.844 139.035 224.152 139.113 225.969C139.178 227.625 138.918 228.75 138.332 229.344C137.746 229.937 136.546 230.328 134.73 230.516C136.382 230.719 137.5 231.036 138.086 231.469C138.553 231.77 138.934 232.187 139.191 232.68C139.344 233.07 139.457 234.098 139.527 235.805L139.758 241.41L132.055 241.727L131.766 234.664C131.719 233.526 131.555 232.827 131.273 232.566C130.992 232.306 130.281 232.199 129.141 232.246L129.531 241.832L121.238 242.176L120.367 220.926ZM128.812 224.219L129.008 228.945C129.674 228.957 130.337 228.843 130.961 228.609C131.328 228.422 131.492 227.863 131.453 226.926L131.402 225.754C131.375 225.082 131.176 224.648 130.809 224.453C130.441 224.258 129.77 224.184 128.812 224.219Z" fill="#5457E2"/>
<path d="M148.965 218.059L152.852 238.98L144.691 240.496L140.785 219.574L148.965 218.059Z" fill="#5457E2"/>
<path d="M173.078 209.887L174.641 213.852L170.047 215.645L176.234 231.5L168.504 234.516L162.305 218.66L157.73 220.445L156.168 216.477L173.078 209.887Z" fill="#5457E2"/>
<path d="M173.535 209.473L185.547 202.586L187.664 206.277L182.859 209.035L184.867 212.551L189.363 209.973L191.379 213.488L186.883 216.07L189.227 220.129L194.512 217.098L196.629 220.789L184.125 227.93L173.535 209.473Z" fill="#5457E2"/>
<path d="M198.09 192.793L215.129 206.391L208.52 211.719L205.785 209.019L203.473 210.879L205.484 214.172L198.789 219.531L188.746 200.305L198.09 192.793ZM203.242 206.207C201.404 204.592 199.207 202.536 196.652 200.039C198.546 203.742 200 206.396 201.016 208L203.242 206.207Z" fill="#5457E2"/>
<path d="M217.875 170.406L234.375 183.852L229.789 189.477L218.648 180.406L227.957 191.734L224.699 195.703L211.895 189.195L222.77 198.07L218.184 203.691L201.691 190.25L208.48 181.926C209.671 182.483 211.046 183.181 212.605 184.02L217.547 186.527L211.051 178.77L217.875 170.406Z" fill="#5457E2"/>
</svg>
