<svg width="250" height="250" viewBox="0 0 250 250" fill="none" xmlns="http://www.w3.org/2000/svg">
<path d="M190.59 171.184C190.383 171.504 190.172 171.82 189.965 172.137C187.84 175.348 185.746 178.453 183.684 181.453L183.613 181.547C172.828 196.328 151.973 223.344 150.664 225C150.645 225.03 150.624 225.058 150.602 225.086C160.156 150.391 120.18 123.227 120.18 123.227L116.008 133.383C84.3672 110.016 63.1562 102.707 48.9961 102.566C76.793 95.9258 110.324 104.129 111.531 104.129C113.32 104.129 113.32 95.1836 113.32 95.1836C157.309 110.902 181.371 151.863 190.59 171.184Z" fill="#F49700"/>
<path d="M155.973 16.5938L162.223 8.09769C162.223 8.09769 101.676 5.60941 77.414 15.3516C67.871 19.3282 67.0703 16.3438 58.1249 28.2774C49.1796 40.211 43.4335 39.6368 29.7148 44.1133C16.1328 48.5391 -8.17584 71.7539 20.8398 119.113C21.1288 119.594 21.4296 120.074 21.7343 120.563C22.2311 118.849 22.941 117.205 23.8476 115.668C26.9296 110.289 34.0038 102.418 48.9804 102.574C76.7773 95.9336 110.309 104.137 111.516 104.137C113.305 104.137 113.305 95.1914 113.305 95.1914C157.293 110.902 181.355 151.863 190.574 171.184C214.707 134.535 241.094 85.2227 242.773 42.9922C242.773 42.9922 208.32 19.7266 155.973 16.5938ZM74.8437 46.0938C74.8437 46.0938 81.9999 32.5743 98.707 35.1563C98.707 35.1563 101.289 50.2461 74.8437 46.0938Z" fill="#F67B01"/>
<path d="M18.8281 227.734L22.0508 242.188H16.2891L15.9883 239.59H13.9687L13.6328 242.188H7.8125L10.6914 227.734H18.8281ZM15.8398 237.027C15.556 235.392 15.2695 233.368 14.9805 230.957C14.4076 233.723 14.0469 235.746 13.8984 237.027H15.8398Z" fill="black" stroke="white" stroke-width="6.63" stroke-linecap="round" stroke-linejoin="round"/>
<path d="M28.6445 227.734V239.297H32.0742V242.188H23.0078V227.734H28.6445Z" fill="black" stroke="white" stroke-width="6.63" stroke-linecap="round" stroke-linejoin="round"/>
<path d="M39.9102 235.02V237.5H32.8125V235.012L39.9102 235.02Z" fill="black" stroke="white" stroke-width="6.63" stroke-linecap="round" stroke-linejoin="round"/>
<path d="M54.9531 227.734L51.7187 234.258L55.2617 242.188H49.4375L47.1523 235.992V242.188H41.5156V227.734H47.1523V233.348L49.6641 227.734H54.9531Z" fill="black" stroke="white" stroke-width="6.63" stroke-linecap="round" stroke-linejoin="round"/>
<path d="M69.1953 227.734V242.188H63.5586V236.117H61.8711V242.188H56.25V227.734H61.8906V232.902H63.5781V227.734H69.1953Z" fill="black" stroke="white" stroke-width="6.63" stroke-linecap="round" stroke-linejoin="round"/>
<path d="M81.2031 227.734L84.4258 242.188H78.668L78.3633 239.59H76.3477L76.0078 242.188H70.1797L73.0469 227.734H81.2031ZM78.2148 237.027C77.931 235.392 77.6445 233.368 77.3555 230.957C76.7799 233.723 76.4193 235.746 76.2734 237.027H78.2148Z" fill="black" stroke="white" stroke-width="6.63" stroke-linecap="round" stroke-linejoin="round"/>
<path d="M106.113 227.734L103.605 242.188H96.5742C95.867 239.695 95.2971 237.165 94.8672 234.609C94.6406 235.826 94.1198 238.352 93.3047 242.188H86.2891L83.7656 227.734H89.2344L89.8438 232.777L90.4219 237.652C90.7546 234.319 91.2763 231.008 91.9844 227.734H97.8438C97.9219 228.156 98.1263 229.745 98.457 232.5L99.0781 238C99.3902 234.55 99.9121 231.121 100.641 227.734H106.113Z" fill="black" stroke="white" stroke-width="6.63" stroke-linecap="round" stroke-linejoin="round"/>
<path d="M116.703 227.734L119.922 242.188H114.168L113.863 239.59H111.848L111.508 242.188H105.68L108.555 227.734H116.703ZM113.715 237.027C113.428 235.392 113.142 233.368 112.855 230.957C112.285 233.723 111.926 235.746 111.777 237.027H113.715Z" fill="black" stroke="white" stroke-width="6.63" stroke-linecap="round" stroke-linejoin="round"/>
<path d="M120.887 227.734H124.875C126.68 227.696 128.485 227.764 130.281 227.938C131.14 228.037 131.945 228.405 132.582 228.988C133.176 229.551 133.473 230.448 133.473 231.68C133.473 232.805 133.266 233.563 132.844 233.949C132.422 234.336 131.598 234.566 130.367 234.645C131.484 234.827 132.234 235.073 132.617 235.383C132.926 235.601 133.172 235.896 133.332 236.238C133.464 236.942 133.511 237.66 133.473 238.375V242.188H128.238V237.383C128.238 236.602 128.145 236.133 127.965 235.945C127.785 235.758 127.301 235.672 126.523 235.672V242.188H120.887V227.734ZM126.523 230.207V233.422C126.975 233.45 127.427 233.39 127.855 233.246C128.109 233.129 128.246 232.754 128.246 232.117V231.336C128.271 231.167 128.25 230.994 128.185 230.835C128.121 230.676 128.015 230.538 127.879 230.434C127.452 230.251 126.987 230.173 126.523 230.207Z" fill="black" stroke="white" stroke-width="6.63" stroke-linecap="round" stroke-linejoin="round"/>
<path d="M141.293 227.734V242.188H135.656V227.734H141.293Z" fill="black" stroke="white" stroke-width="6.63" stroke-linecap="round" stroke-linejoin="round"/>
<path d="M152.984 227.734V230.625L148.785 239.297H152.984V242.188H142.578V240.09L146.918 230.625H143.086V227.734H152.984Z" fill="black" stroke="white" stroke-width="6.63" stroke-linecap="round" stroke-linejoin="round"/>
<path d="M171.84 227.734V242.188H166.91V232.422L164.957 242.188H161.465L159.375 232.652V242.188H154.445V227.734H161.738C161.957 228.602 162.18 229.629 162.41 230.805L163.191 234.484L164.504 227.734H171.84Z" fill="black" stroke="white" stroke-width="6.63" stroke-linecap="round" stroke-linejoin="round"/>
<path d="M179.742 227.734V242.188H174.102V227.734H179.742Z" fill="black" stroke="white" stroke-width="6.63" stroke-linecap="round" stroke-linejoin="round"/>
<path d="M198.195 227.734V230.625H194.848V242.188H189.207V230.625H185.875V227.734H198.195Z" fill="black" stroke="white" stroke-width="6.63" stroke-linecap="round" stroke-linejoin="round"/>
<path d="M199.48 227.734H208.879V230.625H205.117V233.359H208.633V236.094H205.117V239.273H209.254V242.188H199.488L199.48 227.734Z" fill="black" stroke="white" stroke-width="6.63" stroke-linecap="round" stroke-linejoin="round"/>
<path d="M220.621 227.734L223.828 242.188H218.082L217.781 239.59H215.766L215.426 242.188H209.598L212.473 227.734H220.621ZM217.633 237.027C217.346 235.392 217.06 233.368 216.773 230.957C216.198 233.723 215.837 235.746 215.691 237.027H217.633Z" fill="black" stroke="white" stroke-width="6.63" stroke-linecap="round" stroke-linejoin="round"/>
<path d="M242.188 227.734V242.188H237.27V232.422L235.316 242.188H231.801L229.734 232.652V242.188H224.801V227.734H232.098C232.312 228.602 232.535 229.629 232.766 230.805L233.547 234.484L234.863 227.734H242.188Z" fill="black" stroke="white" stroke-width="6.63" stroke-linecap="round" stroke-linejoin="round"/>
<path d="M18.8281 227.734L22.0508 242.188H16.2891L15.9883 239.59H13.9687L13.6328 242.188H7.8125L10.6914 227.734H18.8281ZM15.8398 237.027C15.556 235.392 15.2695 233.368 14.9805 230.957C14.4076 233.723 14.0469 235.746 13.8984 237.027H15.8398Z" fill="#493739"/>
<path d="M28.6445 227.734V239.297H32.0742V242.188H23.0078V227.734H28.6445Z" fill="#493739"/>
<path d="M39.9102 235.02V237.5H32.8125V235.012L39.9102 235.02Z" fill="#493739"/>
<path d="M54.9531 227.734L51.7187 234.258L55.2617 242.188H49.4375L47.1523 235.992V242.188H41.5156V227.734H47.1523V233.348L49.6641 227.734H54.9531Z" fill="#493739"/>
<path d="M69.1953 227.734V242.188H63.5586V236.117H61.8711V242.188H56.25V227.734H61.8906V232.902H63.5781V227.734H69.1953Z" fill="#493739"/>
<path d="M81.2031 227.734L84.4258 242.188H78.668L78.3633 239.59H76.3477L76.0078 242.188H70.1797L73.0469 227.734H81.2031ZM78.2148 237.027C77.931 235.392 77.6445 233.368 77.3555 230.957C76.7799 233.723 76.4193 235.746 76.2734 237.027H78.2148Z" fill="#493739"/>
<path d="M106.113 227.734L103.605 242.188H96.5742C95.867 239.695 95.2971 237.165 94.8672 234.609C94.6406 235.826 94.1198 238.352 93.3047 242.188H86.2891L83.7656 227.734H89.2344L89.8438 232.777L90.4219 237.652C90.7546 234.319 91.2763 231.008 91.9844 227.734H97.8438C97.9219 228.156 98.1263 229.745 98.457 232.5L99.0781 238C99.3902 234.55 99.9121 231.121 100.641 227.734H106.113Z" fill="#493739"/>
<path d="M116.703 227.734L119.922 242.188H114.168L113.863 239.59H111.848L111.508 242.188H105.68L108.555 227.734H116.703ZM113.715 237.027C113.428 235.392 113.142 233.368 112.855 230.957C112.285 233.723 111.926 235.746 111.777 237.027H113.715Z" fill="#493739"/>
<path d="M120.887 227.734H124.875C126.68 227.696 128.485 227.764 130.281 227.938C131.14 228.037 131.945 228.405 132.582 228.988C133.176 229.551 133.473 230.448 133.473 231.68C133.473 232.805 133.266 233.563 132.844 233.949C132.422 234.336 131.598 234.566 130.367 234.645C131.484 234.827 132.234 235.073 132.617 235.383C132.926 235.601 133.172 235.896 133.332 236.238C133.464 236.942 133.511 237.66 133.473 238.375V242.188H128.238V237.383C128.238 236.602 128.145 236.133 127.965 235.945C127.785 235.758 127.301 235.672 126.523 235.672V242.188H120.887V227.734ZM126.523 230.207V233.422C126.975 233.45 127.427 233.39 127.855 233.246C128.109 233.129 128.246 232.754 128.246 232.117V231.336C128.271 231.167 128.25 230.994 128.185 230.835C128.121 230.676 128.015 230.538 127.879 230.434C127.452 230.251 126.987 230.173 126.523 230.207Z" fill="#493739"/>
<path d="M141.293 227.734V242.188H135.656V227.734H141.293Z" fill="#493739"/>
<path d="M152.984 227.734V230.625L148.785 239.297H152.984V242.188H142.578V240.09L146.918 230.625H143.086V227.734H152.984Z" fill="#493739"/>
<path d="M171.84 227.734V242.188H166.91V232.422L164.957 242.188H161.465L159.375 232.652V242.188H154.445V227.734H161.738C161.957 228.602 162.18 229.629 162.41 230.805L163.191 234.484L164.504 227.734H171.84Z" fill="#493739"/>
<path d="M179.742 227.734V242.188H174.102V227.734H179.742Z" fill="#493739"/>
<path d="M198.195 227.734V230.625H194.848V242.188H189.207V230.625H185.875V227.734H198.195Z" fill="#493739"/>
<path d="M199.48 227.734H208.879V230.625H205.117V233.359H208.633V236.094H205.117V239.273H209.254V242.188H199.488L199.48 227.734Z" fill="#493739"/>
<path d="M220.621 227.734L223.828 242.188H218.082L217.781 239.59H215.766L215.426 242.188H209.598L212.473 227.734H220.621ZM217.633 237.027C217.346 235.392 217.06 233.368 216.773 230.957C216.198 233.723 215.837 235.746 215.691 237.027H217.633Z" fill="#493739"/>
<path d="M242.188 227.734V242.188H237.27V232.422L235.316 242.188H231.801L229.734 232.652V242.188H224.801V227.734H232.098C232.312 228.602 232.535 229.629 232.766 230.805L233.547 234.484L234.863 227.734H242.188Z" fill="#493739"/>
</svg>
