<svg width="300" height="301" viewBox="0 0 300 301" fill="none" xmlns="http://www.w3.org/2000/svg">
<g clip-path="url(#clip0_938_758)">
<path d="M179.355 168.562C200.315 174.628 218.724 187.256 231.824 204.552C244.925 221.848 249.99 278.881 250 300.5H50C50.0045 278.88 57.0884 221.844 70.1896 204.547C83.2907 187.25 101.703 174.624 122.665 168.562L151.01 210.654L179.355 168.562ZM201.515 114.5C201.515 127.761 196.194 140.479 186.723 149.855C177.251 159.232 164.405 164.5 151.01 164.5C137.615 164.5 124.769 159.232 115.298 149.855C105.826 140.479 100.505 127.761 100.505 114.5C100.505 101.239 105.826 88.5215 115.298 79.1447C124.769 69.7678 137.615 64.5 151.01 64.5C164.405 64.5 177.251 69.7678 186.723 79.1447C196.194 88.5215 201.515 101.239 201.515 114.5Z" fill="#1E293B"/>
</g>
<defs>
<clipPath id="clip0_938_758">
<rect width="300" height="300" fill="white" transform="translate(0 0.5)"/>
</clipPath>
</defs>
</svg>
