<svg width="50" height="50" viewBox="0 0 50 50" fill="none" xmlns="http://www.w3.org/2000/svg">
<path d="M45 15.6347V38C45 41.8667 42.5263 45 39.4737 45H10.5263C9.06065 45 7.65501 44.2625 6.61862 42.9497C5.58223 41.637 5 39.8565 5 38V15.6347L24.3663 29.128C24.7611 29.4027 25.24 29.4027 25.6337 29.128L45 15.6333V15.6347ZM39.4737 5C40.9163 5.00017 42.3017 5.71487 43.3339 6.99143C44.3661 8.268 44.9633 10.0052 44.9979 11.832L25 25.7653L5.00211 11.8307L5.00421 11.7107C5.06316 9.90568 5.67074 8.19944 6.6999 6.94877C7.72906 5.69809 9.1001 4.99983 10.5263 5H39.4737Z" fill="#4264FF"/>
</svg>
