<svg width="50" height="50" viewBox="0 0 50 50" fill="none" xmlns="http://www.w3.org/2000/svg">
<path fill-rule="evenodd" clip-rule="evenodd" d="M30.5741 5H15C11.0049 5 7.55701 7.34276 5.95516 10.7294C5.20892 13.7309 5.00003 18.2411 5 24.9969C5 24.9978 5 24.9987 5 24.9996C5.00003 31.2276 5.08203 35.5138 5.61591 38.4631C6.81871 41.7212 9.66985 44.181 13.1575 44.8306C14.6918 44.9465 16.5132 44.9607 18.6751 44.9607C19.6751 45.1402 20.0501 44.525 20.0501 43.9867C20.0501 43.8175 20.0471 43.5121 20.0431 43.1135C20.0357 42.365 20.0251 41.2881 20.0251 40.1675C15.0001 41.1159 13.7001 38.9115 13.3001 37.758C13.0751 37.1685 12.1001 35.3486 11.2501 34.8616C10.5501 34.4771 9.5501 33.5287 11.2251 33.5031C12.8001 33.4774 13.9251 34.9897 14.3001 35.6049C16.1001 38.7064 18.9751 37.8349 20.1251 37.2967C20.3001 35.9638 20.8251 35.0666 21.4001 34.554C16.9501 34.0413 12.3001 32.2727 12.3001 24.4292C12.3001 22.1992 13.0751 20.3537 14.3501 18.9183C14.1501 18.4056 13.4501 16.3038 14.5501 13.4842C14.5501 13.4842 16.2251 12.9459 20.0501 15.5861C21.6501 15.1247 23.3501 14.894 25.0501 14.894C26.7501 14.894 28.4501 15.1247 30.0501 15.5861C33.8751 12.9203 35.5501 13.4842 35.5501 13.4842C36.6501 16.3038 35.9501 18.4056 35.7501 18.9183C37.0251 20.3537 37.8001 22.1736 37.8001 24.4292C37.8001 32.2983 33.1251 34.0413 28.6751 34.554C29.4001 35.1948 30.0251 36.4252 30.0251 38.3476C30.0251 40.1732 30.014 41.7603 30.0066 42.8216C30.0029 43.3548 30.0001 43.7553 30.0001 43.9867C30.0001 44.525 30.3751 45.1658 31.3751 44.9607L31.6054 44.9607C33.5707 44.9609 35.2296 44.961 36.6542 44.8638C41.3899 44.0755 45 39.9593 45 35V24.9552C44.9975 18.6479 44.9438 14.3313 44.3239 11.3779C43.1858 8.45054 40.7089 6.19176 37.6451 5.35357C35.7931 5.086 33.4752 5.01571 30.5741 5Z" fill="#4264FF"/>
</svg>
