<svg width="250" height="250" viewBox="0 0 250 250" fill="none" xmlns="http://www.w3.org/2000/svg">
<path d="M38.8281 7.8125V147.332L125.684 196.918L211.172 147.332V7.8125H38.8281ZM203.691 143.426C177.671 158.53 151.648 173.624 125.625 188.707C99.1875 173.618 72.7552 158.525 46.3281 143.426V16.0156H203.711L203.691 143.426Z" fill="#353535"/>
<path d="M46.3086 16.0156V143.426C72.7435 158.53 99.1823 173.624 125.625 188.707C151.654 173.619 177.676 158.525 203.691 143.426V16.0156H46.3086ZM194.746 138.766L125.551 178.906L110.258 170.172L110.648 107.777L130.137 102.363V83.5L110.648 88.6289V79.3984L90.3359 84.8672V158.809L55.2305 138.766V91.4063C65.2891 88.5352 102.328 79.3555 132.629 71.9219V160.441L153.828 154.742V66.7109C166.574 63.6055 175.254 61.5 175.254 61.5V42.3594L55.2422 72.6289V25.8242H194.762L194.746 138.766Z" fill="white"/>
<path d="M55.2422 25.8242V72.6289L175.266 42.3516V61.4922C175.266 61.4922 166.586 63.5977 153.84 66.7031V154.742L132.641 160.441V71.9062C102.344 79.3398 65.3008 88.5195 55.2422 91.4062V138.766L90.3477 158.809V84.8672L110.66 79.3984V88.6289L130.148 83.5V102.363L110.66 107.777L110.27 170.172L125.551 178.906L194.762 138.766V25.8242H55.2422ZM110.641 56.4844L90.3281 61.8438V40.2969L110.641 34.8281V56.4844Z" fill="#D42E30"/>
<path d="M110.641 34.8242V56.4805L90.3477 61.8438V40.3008L110.641 34.8242Z" fill="white"/>
<path d="M19.1758 241.582V207.449H23.4375V220.883H31.7656V207.449H36.0195V241.582H31.7656V226.66H23.4375V241.582H19.1758Z" fill="#353535" stroke="white" stroke-width="4.56" stroke-linecap="round" stroke-linejoin="round"/>
<path d="M40.418 241.582V207.449H56.043V213.223H44.6719V220.793H55.2539V226.562H44.6719V235.852H56.4453V241.602L40.418 241.582Z" fill="#353535" stroke="white" stroke-width="4.56" stroke-linecap="round" stroke-linejoin="round"/>
<path d="M60.0664 241.582V207.449H69.0234C71.2734 207.449 72.9089 207.757 73.9297 208.371C74.9505 208.986 75.7682 210.076 76.3828 211.641C77.022 213.361 77.3334 215.185 77.3008 217.02C77.3008 219.582 76.8359 221.697 75.9063 223.363C75.4831 224.161 74.8909 224.857 74.171 225.402C73.4511 225.947 72.6209 226.329 71.7383 226.52C72.6344 227.356 73.4018 228.321 74.0156 229.383C74.9496 231.172 75.7601 233.022 76.4414 234.922L79.0117 241.582H73.9336L70.8555 234.16C70.1947 232.45 69.4463 230.774 68.6133 229.141C68.3169 228.566 67.8769 228.077 67.3359 227.723C66.6639 227.419 65.9274 227.285 65.1914 227.332H64.332V241.582H60.0664ZM64.3242 221.875H67.4687C69.5104 221.875 70.7852 221.734 71.293 221.453C71.845 221.124 72.267 220.615 72.4883 220.012C72.7977 219.194 72.9436 218.323 72.918 217.449C72.9571 216.49 72.7627 215.536 72.3516 214.668C72.1942 214.344 71.9697 214.056 71.6929 213.825C71.4161 213.594 71.0934 213.425 70.7461 213.328C69.7163 213.216 68.6799 213.177 67.6445 213.211H64.3242V221.875Z" fill="#353535" stroke="white" stroke-width="4.56" stroke-linecap="round" stroke-linejoin="round"/>
<path d="M80.4687 224.727C80.4687 221.25 80.7903 218.332 81.4335 215.973C81.8672 214.328 82.5244 212.751 83.3867 211.285C84.0644 210.074 84.9974 209.025 86.1211 208.211C87.45 207.314 89.0217 206.845 90.625 206.867C93.7317 206.867 96.2161 208.43 98.0781 211.555C99.9401 214.68 100.872 219.018 100.875 224.57C100.875 230.083 99.9505 234.394 98.1015 237.504C96.2526 240.613 93.7786 242.176 90.6796 242.191C87.5546 242.191 85.0625 240.643 83.2031 237.547C81.3437 234.45 80.4322 230.177 80.4687 224.727ZM84.8554 224.492C84.8554 228.359 85.4062 231.289 86.5078 233.281C87.6093 235.273 89.0078 236.271 90.7031 236.273C92.3984 236.273 93.7903 235.284 94.8789 233.305C95.9674 231.325 96.5117 228.357 96.5117 224.398C96.5117 220.492 95.9817 217.574 94.9218 215.644C93.8619 213.715 92.4557 212.753 90.7031 212.758C88.9479 212.758 87.5351 213.732 86.4648 215.68C85.3945 217.628 84.8515 220.565 84.8359 224.492H84.8554Z" fill="#353535" stroke="white" stroke-width="4.56" stroke-linecap="round" stroke-linejoin="round"/>
<path d="M104.211 241.582V207.449H119.836V213.223H108.469V220.793H119.047V226.562H108.465V235.852H120.234V241.602L104.211 241.582Z" fill="#353535" stroke="white" stroke-width="4.56" stroke-linecap="round" stroke-linejoin="round"/>
<path d="M122.766 230.469L126.906 229.816C127.151 232.066 127.656 233.72 128.422 234.777C128.762 235.278 129.222 235.686 129.761 235.962C130.299 236.239 130.899 236.375 131.504 236.359C132.876 236.359 133.909 235.889 134.602 234.949C135.302 233.996 135.669 232.839 135.645 231.656C135.666 230.945 135.516 230.239 135.207 229.598C134.85 228.967 134.318 228.453 133.676 228.117C133.176 227.84 132.043 227.336 130.27 226.629C127.988 225.71 126.388 224.583 125.469 223.25C124.167 221.375 123.516 219.086 123.516 216.383C123.503 214.713 123.813 213.056 124.43 211.504C124.942 210.115 125.857 208.911 127.059 208.047C128.287 207.237 129.736 206.828 131.207 206.875C133.85 206.875 135.84 207.815 137.176 209.695C138.512 211.575 139.215 214.082 139.285 217.215L135.027 217.516C134.848 215.76 134.457 214.5 133.855 213.734C133.254 212.969 132.357 212.585 131.164 212.582C130.618 212.554 130.072 212.65 129.569 212.864C129.065 213.078 128.617 213.404 128.258 213.816C127.783 214.417 127.543 215.169 127.582 215.934C127.561 216.674 127.784 217.401 128.215 218.004C128.754 218.733 130.056 219.493 132.121 220.285C134.186 221.077 135.719 221.893 136.719 222.734C137.78 223.675 138.586 224.868 139.063 226.203C139.666 227.951 139.949 229.793 139.898 231.641C139.912 233.519 139.572 235.384 138.895 237.137C138.397 238.685 137.396 240.023 136.052 240.938C134.707 241.853 133.096 242.293 131.473 242.187C128.809 242.187 126.763 241.19 125.336 239.195C123.909 237.201 123.052 234.292 122.766 230.469Z" fill="#353535" stroke="white" stroke-width="4.56" stroke-linecap="round" stroke-linejoin="round"/>
<path d="M159.469 237.824V241.586H155.211V239.582L159.469 237.824Z" fill="#353535" stroke="white" stroke-width="4.56" stroke-linecap="round" stroke-linejoin="round"/>
<path d="M172.703 232.359V235.832H184.477V241.586H168.453V234.117L172.703 232.359Z" fill="#353535" stroke="white" stroke-width="4.56" stroke-linecap="round" stroke-linejoin="round"/>
<path d="M194.574 223.324L193.504 228.078H199.25L197.852 221.969L201.828 220.324L207.09 241.586H202.457L200.617 233.832H192.191L190.453 241.586H185.941L189.867 225.262L194.574 223.324Z" fill="#353535" stroke="white" stroke-width="4.56" stroke-linecap="round" stroke-linejoin="round"/>
<path d="M213.238 215.609V241.586H209.285V217.242L213.238 215.609Z" fill="#353535" stroke="white" stroke-width="4.56" stroke-linecap="round" stroke-linejoin="round"/>
<path d="M216.754 214.156L219.48 230.73L222.555 211.758L229.637 208.836V241.586H225.688V214.715L221.504 241.586H217.406L213.371 215.559L216.754 214.156Z" fill="#353535" stroke="white" stroke-width="4.56" stroke-linecap="round" stroke-linejoin="round"/>
<path d="M199.039 221.969L195.762 223.32" stroke="white" stroke-width="4.56" stroke-linecap="round" stroke-linejoin="round"/>
<path d="M166.891 207.453V213.223H160.656V237.824L156.402 239.582V213.223H150.148V207.453H166.891Z" fill="#873334" stroke="white" stroke-width="4.56" stroke-linecap="round" stroke-linejoin="round"/>
<path d="M173.891 232.359V226.539H184.469V220.793H173.891V213.223H185.266V207.453H169.641V234.117L173.891 232.359Z" fill="#873334" stroke="white" stroke-width="4.56" stroke-linecap="round" stroke-linejoin="round"/>
<path d="M191.055 225.262L195.34 207.453H199.836L203.016 220.324L199.039 221.969L197.535 215.414L195.762 223.324L191.055 225.262Z" fill="#873334" stroke="white" stroke-width="4.56" stroke-linecap="round" stroke-linejoin="round"/>
<path d="M210.473 217.242V207.453H216.844L217.941 214.156L214.559 215.559L214.426 214.715V215.609L210.473 217.242Z" fill="#873334" stroke="white" stroke-width="4.56" stroke-linecap="round" stroke-linejoin="round"/>
<path d="M230.824 208.836V207.453H224.441L223.742 211.758L230.824 208.836Z" fill="#873334" stroke="white" stroke-width="4.56" stroke-linecap="round" stroke-linejoin="round"/>
<path d="M214.559 215.559L214.426 215.609" stroke="white" stroke-width="4.56" stroke-linecap="round" stroke-linejoin="round"/>
<path d="M19.1758 241.582V207.449H23.4375V220.883H31.7656V207.449H36.0195V241.582H31.7656V226.66H23.4375V241.582H19.1758Z" fill="#353535"/>
<path d="M40.418 241.582V207.449H56.043V213.223H44.6719V220.793H55.2539V226.562H44.6719V235.852H56.4453V241.602L40.418 241.582Z" fill="#353535"/>
<path d="M60.0664 241.582V207.449H69.0234C71.2734 207.449 72.9089 207.757 73.9297 208.371C74.9505 208.986 75.7682 210.076 76.3828 211.641C77.022 213.361 77.3334 215.185 77.3008 217.02C77.3008 219.582 76.8359 221.697 75.9063 223.363C75.4831 224.161 74.8909 224.857 74.171 225.402C73.4511 225.947 72.6209 226.329 71.7383 226.52C72.6344 227.356 73.4018 228.321 74.0156 229.383C74.9496 231.172 75.7601 233.022 76.4414 234.922L79.0117 241.582H73.9336L70.8555 234.16C70.1947 232.45 69.4463 230.774 68.6133 229.141C68.3169 228.566 67.8769 228.077 67.3359 227.723C66.6639 227.419 65.9274 227.285 65.1914 227.332H64.332V241.582H60.0664ZM64.3242 221.875H67.4687C69.5104 221.875 70.7852 221.734 71.293 221.453C71.845 221.124 72.267 220.615 72.4883 220.012C72.7977 219.194 72.9436 218.323 72.918 217.449C72.9571 216.49 72.7627 215.536 72.3516 214.668C72.1942 214.344 71.9697 214.056 71.6929 213.825C71.4161 213.594 71.0934 213.425 70.7461 213.328C69.7163 213.216 68.6799 213.177 67.6445 213.211H64.3242V221.875Z" fill="#353535"/>
<path d="M80.4687 224.727C80.4687 221.25 80.7903 218.332 81.4335 215.973C81.8672 214.328 82.5244 212.751 83.3867 211.285C84.0644 210.074 84.9974 209.025 86.1211 208.211C87.45 207.314 89.0217 206.845 90.625 206.867C93.7317 206.867 96.2161 208.43 98.0781 211.555C99.9401 214.68 100.872 219.018 100.875 224.57C100.875 230.083 99.9505 234.394 98.1015 237.504C96.2526 240.613 93.7786 242.176 90.6796 242.191C87.5546 242.191 85.0625 240.643 83.2031 237.547C81.3437 234.45 80.4322 230.177 80.4687 224.727ZM84.8554 224.492C84.8554 228.359 85.4062 231.289 86.5078 233.281C87.6093 235.273 89.0078 236.271 90.7031 236.273C92.3984 236.273 93.7903 235.284 94.8789 233.305C95.9674 231.325 96.5117 228.357 96.5117 224.398C96.5117 220.492 95.9817 217.574 94.9218 215.644C93.8619 213.715 92.4557 212.753 90.7031 212.758C88.9479 212.758 87.5351 213.732 86.4648 215.68C85.3945 217.628 84.8515 220.565 84.8359 224.492H84.8554Z" fill="#353535"/>
<path d="M104.211 241.582V207.449H119.836V213.223H108.469V220.793H119.047V226.562H108.465V235.852H120.234V241.602L104.211 241.582Z" fill="#353535"/>
<path d="M122.766 230.469L126.906 229.816C127.151 232.066 127.656 233.72 128.422 234.777C128.762 235.278 129.222 235.686 129.761 235.962C130.299 236.239 130.899 236.375 131.504 236.359C132.876 236.359 133.909 235.889 134.602 234.949C135.302 233.996 135.669 232.839 135.645 231.656C135.666 230.945 135.516 230.239 135.207 229.598C134.85 228.967 134.318 228.453 133.676 228.117C133.176 227.84 132.043 227.336 130.27 226.629C127.988 225.71 126.388 224.583 125.469 223.25C124.167 221.375 123.516 219.086 123.516 216.383C123.503 214.713 123.813 213.056 124.43 211.504C124.942 210.115 125.857 208.911 127.059 208.047C128.287 207.237 129.736 206.828 131.207 206.875C133.85 206.875 135.84 207.815 137.176 209.695C138.512 211.575 139.215 214.082 139.285 217.215L135.027 217.516C134.848 215.76 134.457 214.5 133.855 213.734C133.254 212.969 132.357 212.585 131.164 212.582C130.618 212.554 130.072 212.65 129.569 212.864C129.065 213.078 128.617 213.404 128.258 213.816C127.783 214.417 127.543 215.169 127.582 215.934C127.561 216.674 127.784 217.401 128.215 218.004C128.754 218.733 130.056 219.493 132.121 220.285C134.186 221.077 135.719 221.893 136.719 222.734C137.78 223.675 138.586 224.868 139.063 226.203C139.666 227.951 139.949 229.793 139.898 231.641C139.912 233.519 139.572 235.384 138.895 237.137C138.397 238.685 137.396 240.023 136.052 240.938C134.707 241.853 133.096 242.293 131.473 242.187C128.809 242.187 126.763 241.19 125.336 239.195C123.909 237.201 123.052 234.292 122.766 230.469Z" fill="#353535"/>
<path d="M159.469 237.824V241.586H155.211V239.582L159.469 237.824Z" fill="#353535"/>
<path d="M172.703 232.359V235.832H184.477V241.586H168.453V234.117L172.703 232.359Z" fill="#353535"/>
<path d="M194.574 223.324L193.504 228.078H199.25L197.852 221.969L201.828 220.324L207.09 241.586H202.457L200.617 233.832H192.191L190.453 241.586H185.941L189.867 225.262L194.574 223.324Z" fill="#353535"/>
<path d="M213.238 215.609V241.586H209.285V217.242L213.238 215.609Z" fill="#353535"/>
<path d="M216.754 214.156L219.48 230.73L222.555 211.758L229.637 208.836V241.586H225.688V214.715L221.504 241.586H217.406L213.371 215.559L216.754 214.156Z" fill="#353535"/>
<path d="M166.891 207.453V213.223H160.656V237.824L156.402 239.582V213.223H150.148V207.453H166.891Z" fill="#D42E30"/>
<path d="M173.891 232.359V226.539H184.469V220.793H173.891V213.223H185.266V207.453H169.641V234.117L173.891 232.359Z" fill="#D42E30"/>
<path d="M191.055 225.262L195.34 207.453H199.836L203.016 220.324L199.039 221.969L197.535 215.414L195.762 223.324L191.055 225.262Z" fill="#D42E30"/>
<path d="M210.473 217.242V207.453H216.844L217.941 214.156L214.559 215.559L214.426 214.715V215.609L210.473 217.242Z" fill="#D42E30"/>
<path d="M230.824 208.836V207.453H224.441L223.742 211.758L230.824 208.836Z" fill="#D42E30"/>
</svg>
