<svg width="50" height="50" viewBox="0 0 50 50" fill="none" xmlns="http://www.w3.org/2000/svg">
<path d="M25 5C30.434 5 31.112 5.02 33.244 5.12C35.374 5.22 36.824 5.554 38.1 6.05C39.42 6.558 40.532 7.246 41.644 8.356C42.661 9.35579 43.4479 10.5652 43.95 11.9C44.444 13.174 44.78 14.626 44.88 16.756C44.974 18.888 45 19.566 45 25C45 30.434 44.98 31.112 44.88 33.244C44.78 35.374 44.444 36.824 43.95 38.1C43.4494 39.4356 42.6622 40.6452 41.644 41.644C40.6439 42.6606 39.4346 43.4475 38.1 43.95C36.826 44.444 35.374 44.78 33.244 44.88C31.112 44.974 30.434 45 25 45C19.566 45 18.888 44.98 16.756 44.88C14.626 44.78 13.176 44.444 11.9 43.95C10.5647 43.449 9.35505 42.6619 8.356 41.644C7.33881 40.6444 6.55186 39.4349 6.05 38.1C5.554 36.826 5.22 35.374 5.12 33.244C5.026 31.112 5 30.434 5 25C5 19.566 5.02 18.888 5.12 16.756C5.22 14.624 5.554 13.176 6.05 11.9C6.55047 10.5644 7.33761 9.35464 8.356 8.356C9.35534 7.33846 10.5649 6.55146 11.9 6.05C13.176 5.554 14.624 5.22 16.756 5.12C18.888 5.026 19.566 5 25 5ZM25 15C22.3478 15 19.8043 16.0536 17.9289 17.9289C16.0536 19.8043 15 22.3478 15 25C15 27.6522 16.0536 30.1957 17.9289 32.0711C19.8043 33.9464 22.3478 35 25 35C27.6522 35 30.1957 33.9464 32.0711 32.0711C33.9464 30.1957 35 27.6522 35 25C35 22.3478 33.9464 19.8043 32.0711 17.9289C30.1957 16.0536 27.6522 15 25 15ZM38 14.5C38 13.837 37.7366 13.2011 37.2678 12.7322C36.7989 12.2634 36.163 12 35.5 12C34.837 12 34.2011 12.2634 33.7322 12.7322C33.2634 13.2011 33 13.837 33 14.5C33 15.163 33.2634 15.7989 33.7322 16.2678C34.2011 16.7366 34.837 17 35.5 17C36.163 17 36.7989 16.7366 37.2678 16.2678C37.7366 15.7989 38 15.163 38 14.5ZM25 19C26.5913 19 28.1174 19.6321 29.2426 20.7574C30.3679 21.8826 31 23.4087 31 25C31 26.5913 30.3679 28.1174 29.2426 29.2426C28.1174 30.3679 26.5913 31 25 31C23.4087 31 21.8826 30.3679 20.7574 29.2426C19.6321 28.1174 19 26.5913 19 25C19 23.4087 19.6321 21.8826 20.7574 20.7574C21.8826 19.6321 23.4087 19 25 19Z" fill="#4264FF"/>
</svg>
