<svg width="480" height="480" viewBox="0 0 480 480" fill="none" xmlns="http://www.w3.org/2000/svg">
<path d="M279.855 244.448L267.855 231.173L247.297 232.455L220.515 257.947L247.935 241.665L279.855 244.448Z" fill="#4264FF" stroke="#0F172A" stroke-width="1.3" stroke-miterlimit="10"/>
<path d="M290.94 261.637L287.722 249.915L256.395 247.02L228.442 270.473L257.685 255.217L290.94 261.637Z" fill="#4264FF" stroke="#0F172A" stroke-width="1.3" stroke-miterlimit="10"/>
<path d="M294.795 268.065L262.5 260.835L234.39 289.755L266.197 270.473L295.92 278.513L294.795 268.065Z" fill="#4264FF" stroke="#0F172A" stroke-width="1.3" stroke-miterlimit="10"/>
<path d="M301.058 284.13L268.605 279.315L236.64 306.787L273.428 288.472L301.058 294.735V284.13Z" fill="#4264FF" stroke="#0F172A" stroke-width="1.3" stroke-miterlimit="10"/>
<path d="M304.597 299.235H278.407L250.185 323.168L280.5 306.788L304.597 309.675V299.235Z" fill="#4264FF" stroke="#0F172A" stroke-width="1.3" stroke-miterlimit="10"/>
<path d="M263.625 402.052L234.87 374.25C234.87 374.25 228.12 367.823 216.075 377.468C204.03 387.112 190.687 401.077 190.687 401.077C214.918 403.65 239.334 403.977 263.625 402.052Z" fill="#4264FF" stroke="#0F172A" stroke-width="1.3" stroke-miterlimit="10"/>
<path d="M279.052 397.073C279.052 397.073 232.297 406.387 192.457 390.165C185.25 387.75 184.425 392.25 178.32 398.843C172.215 405.435 148.597 430.808 143.137 454.267C141.69 461.175 144.097 458.925 153.255 456.832C162.412 454.74 229.89 441.892 238.755 442.86C247.62 443.827 279.052 397.073 279.052 397.073Z" fill="#4264FF" stroke="#0F172A" stroke-width="1.3" stroke-miterlimit="10"/>
<path d="M304.598 360.443C304.598 360.443 218.805 458.085 212.348 462.443C212.348 462.443 300.39 431.13 313.56 419.565C326.73 408 304.598 360.443 304.598 360.443Z" fill="#4264FF" stroke="#0F172A" stroke-width="1.3" stroke-miterlimit="10"/>
<path d="M317.775 299.25L298.973 353.07C298.973 353.07 295.118 358.05 299.933 364.32C304.748 370.59 315.81 414.12 297.51 448.822C297.51 448.822 347.01 415.65 359.858 387.735C372.705 359.82 345.09 286.545 317.775 299.25Z" fill="#4264FF" stroke="#0F172A" stroke-width="1.3" stroke-miterlimit="10"/>
<path d="M409.02 342.45C409.02 342.45 382.35 387.45 356.647 413.783C356.647 413.783 347.97 329.272 343.47 320.925C338.97 312.578 340.905 302.925 310.702 304.853L303.795 275.295C303.795 275.295 421.23 315.135 409.02 342.45Z" fill="#4264FF" stroke="#0F172A" stroke-width="1.3" stroke-miterlimit="10"/>
<path d="M435.367 249.915C435.367 249.915 440.505 325.095 413.197 355.305C413.197 355.305 366.645 301.493 313.912 287.505C313.912 287.505 314.272 279.915 306.082 281.963L298.41 278.348V254.25L435.367 249.915Z" fill="#4264FF" stroke="#0F172A" stroke-width="1.3" stroke-miterlimit="10"/>
<path d="M409.912 175.688C409.912 175.688 443.505 233.1 445.65 266.085C445.65 266.085 435.367 247.875 295.92 260.835L288.367 239.31C288.367 239.31 386.865 161.393 409.912 175.688Z" fill="#4264FF" stroke="#0F172A" stroke-width="1.3" stroke-miterlimit="10"/>
<path d="M250.185 204.285L288.368 244.56C288.368 244.56 379.778 179.865 422.513 182.76C422.513 182.76 383.4 110.467 356.85 108.217C348.78 132.88 334.149 154.881 314.528 171.863L250.185 204.285Z" fill="#4264FF" stroke="#0F172A" stroke-width="1.3" stroke-miterlimit="10"/>
<path d="M117.915 120.105C127.62 98.6175 163.433 25.605 226.305 16.965C231.379 16.2698 236.502 16.0063 241.62 16.1775C236.028 16.3482 230.464 17.0412 225 18.2475C168 30.8775 140.093 96.2475 132.893 114.638L117.915 120.105Z" fill="#4264FF" stroke="#0F172A" stroke-width="1.3" stroke-miterlimit="10"/>
<path d="M80.6399 167.332C80.6399 167.332 89.2123 151.695 115.342 127.71C115.342 127.71 92.6398 131.137 88.7849 133.275C88.7849 133.275 120.915 114.21 133.035 109.928C133.035 109.928 40.7848 92.3625 36.9673 93.6525L152.212 95.1525L130.575 88.7325L175.747 84L157.117 72.225C157.117 72.225 216.877 85.725 310.702 54.555L312.63 72.555L371.317 65.3775C371.317 65.3775 345.885 110.955 342.667 118.987C339.45 127.02 319.05 161.738 308.775 167.34L306.847 128.947L253.987 80.1075L241.62 92.7975" fill="#4264FF"/>
<path d="M80.6399 167.332C80.6399 167.332 89.2123 151.695 115.342 127.71C115.342 127.71 92.6398 131.137 88.7848 133.275C88.7848 133.275 120.915 114.21 133.035 109.928C133.035 109.928 40.7848 92.3625 36.9673 93.6525L152.212 95.1525L130.575 88.7325L175.747 84L157.117 72.225C157.117 72.225 216.877 85.725 310.702 54.555L312.63 72.555L371.317 65.3775C371.317 65.3775 345.885 110.955 342.667 118.987C339.45 127.02 319.05 161.738 308.775 167.34L306.847 128.947L253.987 80.1075L241.62 92.7975" stroke="#0F172A" stroke-width="1.3" stroke-miterlimit="10"/>
<path d="M307.111 128.444L308.444 165.333C308.444 165.333 306.222 151.843 291.111 136.444C276 121.045 261.333 118.222 261.333 118.222C261.333 118.222 258.508 112.785 254.222 108C247.454 100.444 240.444 93.3333 240.444 93.3333L254.222 80.4444L307.111 128.444Z" fill="#4264FF"/>
<path d="M308.444 165.333L307.803 165.439L309.094 165.31L308.444 165.333ZM307.111 128.444L307.761 128.421L307.751 128.147L307.548 127.963L307.111 128.444ZM254.222 80.4444L254.659 79.9631L254.215 79.5606L253.778 79.9698L254.222 80.4444ZM240.444 93.3333L240 92.8587L239.513 93.3145L239.981 93.7896L240.444 93.3333ZM254.222 108L254.706 107.566L254.222 108ZM261.333 118.222L260.756 118.522L260.901 118.801L261.21 118.861L261.333 118.222ZM291.111 136.444L290.647 136.9V136.9L291.111 136.444ZM309.094 165.31L307.761 128.421L306.461 128.468L307.795 165.357L309.094 165.31ZM307.548 127.963L254.659 79.9631L253.785 80.9258L306.674 128.926L307.548 127.963ZM253.778 79.9698L240 92.8587L240.888 93.808L254.666 80.9191L253.778 79.9698ZM240.444 93.3333C239.981 93.7896 239.981 93.7897 239.981 93.7897C239.982 93.7898 239.982 93.7898 239.982 93.7899C239.982 93.7901 239.982 93.7904 239.983 93.7909C239.983 93.7917 239.985 93.793 239.986 93.7947C239.99 93.798 239.995 93.8031 240.001 93.8099C240.015 93.8235 240.035 93.8438 240.061 93.8706C240.114 93.9243 240.192 94.0041 240.294 94.1085C240.499 94.3171 240.798 94.6239 241.179 95.0156C241.941 95.7991 243.027 96.9227 244.325 98.2821C246.921 101.002 250.36 104.663 253.738 108.434L254.706 107.566C251.316 103.782 247.867 100.11 245.266 97.3845C243.965 96.0218 242.876 94.8953 242.111 94.1094C241.729 93.7164 241.429 93.4086 241.223 93.1988C241.12 93.094 241.042 93.0136 240.988 92.9594C240.962 92.9324 240.941 92.9118 240.928 92.898C240.921 92.8911 240.916 92.8859 240.913 92.8824C240.911 92.8806 240.909 92.8793 240.909 92.8784C240.908 92.878 240.908 92.8776 240.908 92.8774C240.907 92.8773 240.907 92.8772 240.907 92.8771C240.907 92.8771 240.907 92.877 240.444 93.3333ZM253.738 108.434C255.849 110.791 257.606 113.315 258.836 115.254C259.451 116.222 259.932 117.042 260.26 117.619C260.423 117.907 260.548 118.134 260.632 118.289C260.674 118.366 260.705 118.425 260.726 118.465C260.737 118.484 260.744 118.499 260.749 118.509C260.752 118.513 260.754 118.517 260.755 118.519C260.756 118.52 260.756 118.521 260.756 118.521C260.756 118.522 260.756 118.522 260.756 118.522C260.756 118.522 260.756 118.522 260.756 118.522C260.756 118.522 260.756 118.522 261.333 118.222C261.91 117.923 261.91 117.922 261.91 117.922C261.91 117.922 261.91 117.922 261.91 117.922C261.91 117.922 261.909 117.921 261.909 117.921C261.909 117.92 261.908 117.919 261.907 117.917C261.906 117.914 261.903 117.91 261.901 117.904C261.895 117.893 261.886 117.877 261.875 117.855C261.852 117.813 261.819 117.75 261.775 117.67C261.687 117.508 261.558 117.273 261.39 116.977C261.054 116.385 260.561 115.546 259.934 114.557C258.68 112.582 256.881 109.994 254.706 107.566L253.738 108.434ZM261.333 118.222C261.21 118.861 261.21 118.86 261.21 118.86C261.21 118.86 261.21 118.86 261.21 118.86C261.21 118.86 261.21 118.861 261.211 118.861C261.212 118.861 261.214 118.861 261.217 118.862C261.223 118.863 261.232 118.865 261.245 118.867C261.27 118.873 261.309 118.881 261.362 118.893C261.467 118.916 261.626 118.952 261.836 119.004C262.254 119.109 262.874 119.276 263.666 119.524C265.252 120.021 267.529 120.845 270.277 122.146C275.773 124.749 283.152 129.262 290.647 136.9L291.575 135.989C283.959 128.228 276.449 123.63 270.834 120.971C268.026 119.642 265.692 118.797 264.056 118.284C263.237 118.027 262.593 117.853 262.15 117.743C261.929 117.688 261.758 117.649 261.641 117.623C261.583 117.61 261.538 117.601 261.507 117.594C261.491 117.591 261.479 117.589 261.471 117.587C261.467 117.586 261.463 117.585 261.461 117.585C261.46 117.585 261.459 117.584 261.458 117.584C261.457 117.584 261.457 117.584 261.457 117.584C261.456 117.584 261.456 117.584 261.333 118.222ZM290.647 136.9C298.146 144.542 302.438 151.701 304.854 156.936C306.062 159.554 306.801 161.692 307.238 163.169C307.456 163.908 307.598 164.481 307.685 164.867C307.729 165.06 307.759 165.206 307.778 165.302C307.787 165.35 307.794 165.386 307.798 165.409C307.8 165.42 307.801 165.429 307.802 165.434C307.803 165.436 307.803 165.438 307.803 165.439C307.803 165.439 307.803 165.439 307.803 165.439C307.803 165.44 307.803 165.439 307.803 165.439C307.803 165.439 307.803 165.439 308.444 165.333C309.086 165.228 309.086 165.227 309.086 165.227C309.086 165.227 309.085 165.226 309.085 165.226C309.085 165.225 309.085 165.224 309.085 165.223C309.084 165.221 309.084 165.217 309.083 165.213C309.082 165.205 309.08 165.194 309.077 165.179C309.072 165.15 309.064 165.108 309.054 165.054C309.033 164.945 309 164.786 308.953 164.58C308.86 164.168 308.711 163.567 308.484 162.801C308.032 161.268 307.271 159.07 306.035 156.391C303.561 151.032 299.187 143.746 291.575 135.989L290.647 136.9Z" fill="#0F172A"/>
<path d="M137.835 120.105C137.835 120.105 252.54 34.635 318.413 18.8925C298.095 27.2275 278.375 36.953 259.395 48C245.003 56.385 232.013 64.9575 220.395 73.3275" fill="#4264FF"/>
<path d="M137.835 120.105C137.835 120.105 252.54 34.635 318.413 18.8925C298.095 27.2275 278.375 36.953 259.395 48C245.003 56.385 232.013 64.9575 220.395 73.3275" stroke="#0F172A" stroke-width="1.3" stroke-miterlimit="10"/>
<path d="M184.102 98.04L217.095 76.4025" stroke="#0F172A" stroke-width="1.3" stroke-miterlimit="10"/>
<path d="M306.682 108.217L332.07 125.085L308.775 165.09" fill="#4264FF"/>
<path d="M306.682 108.217L332.07 125.085L308.775 165.09" stroke="#0F172A" stroke-width="1.3" stroke-miterlimit="10"/>
<path d="M278.085 99.8625L286.282 82.5L303 98.04C303 98.04 304.447 120.263 315.532 129.743L308.782 161.55" stroke="#0F172A" stroke-width="1.3" stroke-miterlimit="10"/>
<path d="M329.738 104.115L312.63 97.2075V72.5475" fill="#4264FF"/>
<path d="M329.738 104.115L312.63 97.2075V72.5475" stroke="#0F172A" stroke-width="1.3" stroke-miterlimit="10"/>
<path d="M240 97.6125C240 97.6125 237.263 84.9225 224.415 92.31C224.415 92.31 222.645 81.48 207.915 93.81C193.185 106.14 166.065 119.572 156.21 134.145C146.355 148.717 205.905 153.202 205.905 153.202L245.955 129.75L240 97.6125Z" fill="#0F172A" stroke="#0F172A" stroke-width="1.3" stroke-miterlimit="10"/>
<path d="M203.092 113.812L230.692 81.33C230.692 81.33 186.247 106.08 182.28 114C181.53 115.897 196.222 115.2 200.835 114.937C201.268 114.912 201.691 114.799 202.079 114.606C202.467 114.413 202.812 114.143 203.092 113.812Z" fill="white" stroke="#0F172A" stroke-width="1.3" stroke-miterlimit="10"/>
<path d="M236.895 125.94L222.27 110.805C221.949 110.473 221.699 110.079 221.537 109.647C221.374 109.215 221.301 108.754 221.324 108.293C221.346 107.832 221.463 107.38 221.667 106.966C221.871 106.552 222.158 106.184 222.51 105.885L236.663 93.885C237.294 93.3437 238.103 93.0555 238.934 93.0763C239.765 93.0971 240.559 93.4253 241.163 93.9975C245.895 98.4975 256.958 109.455 261.84 118.822C262.076 119.291 262.199 119.809 262.199 120.334C262.199 120.859 262.076 121.377 261.84 121.846C261.604 122.315 261.261 122.722 260.839 123.034C260.417 123.347 259.928 123.556 259.41 123.645L240.293 127.05C239.679 127.156 239.048 127.111 238.456 126.917C237.864 126.724 237.328 126.388 236.895 125.94Z" fill="#E0E5FF" stroke="#0F172A" stroke-width="1.3" stroke-miterlimit="10"/>
<path d="M225.458 128.25L216.63 116.392C216.233 115.861 215.647 115.501 214.993 115.387C214.34 115.272 213.667 115.412 213.113 115.777L201.473 123.457C201.053 123.735 200.723 124.127 200.523 124.588C200.322 125.048 200.258 125.557 200.34 126.052L203.13 142.695C203.202 143.129 203.383 143.537 203.656 143.881C203.928 144.226 204.284 144.496 204.69 144.665C205.095 144.835 205.537 144.898 205.974 144.85C206.411 144.802 206.829 144.644 207.188 144.39L224.873 131.925C225.156 131.725 225.397 131.471 225.581 131.176C225.764 130.882 225.887 130.554 225.941 130.211C225.996 129.868 225.981 129.518 225.898 129.182C225.815 128.845 225.665 128.528 225.458 128.25Z" fill="white" stroke="#0F172A" stroke-width="1.3" stroke-miterlimit="10"/>
<path d="M81.2926 167.347C81.3033 167.343 81.3147 167.34 81.3264 167.34C81.338 167.34 81.3495 167.343 81.3601 167.347C83.5276 166.597 130.515 151.597 182.865 162.277C183.938 162.502 185.025 162.727 186.12 162.99C188.31 163.462 190.493 163.995 192.683 164.58L200.558 150.855L199.44 146.88L193.5 126L163.29 122.783C163.29 122.783 120.923 137.13 81.2926 167.347Z" fill="#E0E5FF" stroke="#0F172A" stroke-width="1.3" stroke-miterlimit="10"/>
<path d="M81.36 167.325C83.5275 166.575 130.515 151.575 182.865 162.255L189.248 154.958L181.365 132.96H163.5C163.5 132.96 119.895 146.438 81.36 167.325Z" fill="#E0E5FF" stroke="#0F172A" stroke-width="1.3" stroke-miterlimit="10"/>
<path d="M186.12 162.967C188.31 163.44 190.492 163.973 192.682 164.558C195.405 165.473 197.932 166.455 200.355 167.558C230.1 180.548 237.217 203.153 237.217 203.153L299.16 173.25L309.202 168.405C306.264 156.525 300.199 145.649 291.637 136.905C287.137 132.33 273.547 118.627 253.507 118.072C237.532 117.622 226.125 125.79 213.877 134.572C208.729 138.259 203.9 142.371 199.44 146.865C194.521 151.818 190.063 157.208 186.12 162.967Z" fill="#E0E5FF" stroke="#0F172A" stroke-width="1.3" stroke-miterlimit="10"/>
<path d="M200.355 167.52C230.1 180.51 237.217 203.115 237.217 203.115L299.16 173.25C295.207 165.225 286.5 150.9 270 142.71C265.387 140.415 258.157 136.913 248.58 137.355C239.002 137.798 232.492 141.855 224.265 147.038C215.356 152.686 207.304 159.584 200.355 167.52Z" fill="#F1F5F9" stroke="#0F172A" stroke-width="1.3" stroke-miterlimit="10"/>
</svg>
