<svg width="140" height="60" viewBox="0 0 140 60" fill="none" xmlns="http://www.w3.org/2000/svg">
<path d="M17.3535 24.3758L18.6001 22.9621L20.7419 23.1022L23.5306 25.8114L20.6777 24.0782L17.3535 24.3758Z" fill="#4264FF"/>
<path d="M20.6819 24.1482L17.3578 24.4458V24.3058L20.6819 24.0081V24.1482ZM23.4834 25.8727L20.6262 24.1219L20.699 24.0038L23.552 25.7545L23.4834 25.8727ZM20.7762 23.0496L23.5648 25.7633L23.4706 25.8639L20.6819 23.1503L20.7762 23.0496ZM18.5915 22.892L20.7333 23.0277V23.1721L18.5915 23.0321V22.892ZM17.3064 24.3276L18.5529 22.9183L18.6557 23.0102L17.4092 24.4239L17.3064 24.3276ZM20.6733 24.0081L20.6391 24.065L20.6733 24.0081ZM23.582 25.7589L24.0103 26.1966L23.4834 25.8727L23.5177 25.8114L23.582 25.7589ZM20.7462 23.0277H20.7719L20.7247 23.0802L20.7462 23.0277ZM18.5486 22.9183L18.5743 22.892H18.6043V22.9621L18.5486 22.9183ZM17.3578 24.4458H17.1821L17.3021 24.3101L17.3535 24.3583L17.3578 24.4458Z" fill="#0F172A"/>
<path d="M16.1965 26.2053L16.5349 24.9579L19.7948 24.6516L22.7078 27.1464L19.662 25.5225L16.1965 26.2053Z" fill="#4264FF"/>
<path d="M19.6752 25.5925L16.2011 26.2666V26.1353L19.6666 25.4525L19.6752 25.5925ZM22.6738 27.2076L19.628 25.5838L19.6923 25.4612L22.738 27.0807L22.6738 27.2076ZM19.8379 24.5815L22.7509 27.0763L22.6609 27.1857L19.7523 24.6909L19.8379 24.5815ZM16.5266 24.8747L19.7908 24.5684V24.7084L16.5309 25.0148L16.5266 24.8747ZM16.1325 26.1878L16.4667 24.9535L16.5995 24.9885L16.2653 26.2359L16.1325 26.1878ZM19.6495 25.4525H19.6709L19.6409 25.5138L19.6495 25.4525ZM22.7509 27.0894L23.2349 27.5271L22.6738 27.2295L22.7037 27.1682L22.7509 27.0894ZM19.7908 24.5815H19.8165L19.7737 24.6384L19.7908 24.5815ZM16.4667 24.9535V24.9054H16.5138V24.9535H16.4667ZM16.2011 26.2666H16.094L16.124 26.1572H16.1882L16.2011 26.2666Z" fill="#0F172A"/>
<path d="M15.7984 26.8881L19.1611 26.1178L22.0869 29.1947L18.7756 27.1464L15.6785 27.9999L15.7984 26.8881Z" fill="#4264FF"/>
<path d="M15.6097 27.9911L15.7296 26.8794H15.8667L15.7467 28.0173L15.6097 27.9911ZM18.7925 27.212L15.6953 28.0874L15.6611 27.9517L18.7582 27.0763L18.7925 27.212ZM22.0523 29.256L18.7368 27.2032L18.8096 27.0851L22.1209 29.1378L22.0523 29.256ZM19.1994 26.0696L22.1252 29.1334L22.0266 29.2341L19.1009 26.1703L19.1994 26.0696ZM15.7724 26.8181L19.1351 26.0521L19.1651 26.1878L15.8024 26.9581L15.7724 26.8181ZM15.6868 28.0699L15.5925 28.0961V27.9911H15.6611L15.6868 28.0699ZM18.771 27.0763H18.7967H18.8224L18.771 27.142V27.0763ZM22.1466 29.1466L22.5235 29.5405L22.0652 29.256L22.0995 29.1947L22.1466 29.1466ZM19.148 26.0521H19.1865L19.2123 26.0784L19.1651 26.1265L19.148 26.0521ZM15.721 26.8794V26.8312H15.7682V26.9012L15.721 26.8794Z" fill="#0F172A"/>
<path d="M15.1433 28.5995L18.5231 28.0874L21.8516 31.0068L18.022 29.0591L15.1433 29.7287V28.5995Z" fill="#4264FF"/>
<path d="M15.0745 29.7243V28.5995H15.2115V29.7243H15.0745ZM18.0388 29.1291L15.1601 29.7943L15.1301 29.6587L18.0045 28.9934L18.0388 29.1291ZM21.8213 31.0811L17.9917 29.1334L18.0516 29.0065L21.8813 30.9542L21.8213 31.0811ZM18.57 28.0173L21.8984 30.9411L21.8084 31.0505L18.48 28.1268L18.57 28.0173ZM15.143 28.5163L18.5143 28.0173V28.1574L15.1344 28.6695L15.143 28.5163ZM15.1687 29.7812H15.083V29.7243H15.1516L15.1687 29.7812ZM18.0131 28.9802H18.0388L18.0088 29.0415L18.0131 28.9802ZM21.907 30.9411L22.3353 31.3087L21.8213 31.0811L21.8513 31.0155L21.907 30.9411ZM18.5143 28.0173H18.5443H18.57L18.5228 28.0742L18.5143 28.0173ZM15.0873 28.5995V28.5382H15.1473V28.6082L15.0873 28.5995Z" fill="#0F172A"/>
<path d="M14.7747 30.2058H17.5034L20.442 32.7532L17.2849 31.0068L14.7747 31.3175V30.2058Z" fill="#4264FF"/>
<path d="M14.7056 31.3176V30.2058H14.8427V31.3176H14.7056ZM17.2759 31.0768L14.7656 31.3876V31.2475L17.2759 30.9368V31.0768ZM20.3901 32.8276L17.233 31.0768L17.3016 30.9499L20.4586 32.7007L20.3901 32.8276ZM17.5286 30.1664L20.4843 32.6963L20.3987 32.8057L17.4601 30.2584L17.5286 30.1664ZM14.757 30.1664H17.4858V30.3065H14.7742L14.757 30.1664ZM14.757 31.4182H14.6799V31.3394H14.7485L14.757 31.4182ZM17.2502 30.9805L17.2159 31.0418L17.2502 30.9805ZM20.4586 32.7313L20.9641 33.169L20.4072 32.832L20.4415 32.7707L20.4586 32.7313ZM17.4601 30.1708H17.4858V30.2058L17.4601 30.1708ZM14.7056 30.2058V30.1358H14.7742V30.2058H14.7056Z" fill="#0F172A"/>
<path d="M19.0415 41.148L22.0401 38.1892C22.0401 38.1892 22.7426 37.5064 23.9977 38.535C24.9238 39.3199 25.8062 40.1572 26.6408 41.0429C24.1164 41.3189 21.5723 41.354 19.0415 41.148Z" fill="#4264FF"/>
<path d="M26.6452 41.1086C24.1179 41.3843 21.571 41.4194 19.0374 41.2136V41.0736C21.5624 41.2794 24.1008 41.2442 26.6195 40.9685L26.6452 41.1086ZM24.0364 38.4825C24.6661 38.9989 25.3215 39.6292 25.8356 40.1282C26.0883 40.3777 26.2982 40.5965 26.4481 40.7497L26.6238 40.9335L26.6709 40.9817L26.6195 41.0298L26.5724 41.0823L26.5253 41.0342L26.3539 40.8504C26.204 40.6972 25.9898 40.4783 25.7371 40.2289C25.2359 39.7299 24.5762 39.104 23.9508 38.5919L24.0364 38.4825ZM21.9888 38.1455H22.0145C22.049 38.1202 22.0848 38.0969 22.1216 38.0754C22.2473 38.0087 22.3837 37.9657 22.5243 37.9485C22.799 37.9331 23.0739 37.9757 23.3319 38.0736C23.5898 38.1715 23.8253 38.3226 24.0236 38.5175L23.9379 38.6269C23.7533 38.4444 23.5343 38.3022 23.2943 38.2089C23.0542 38.1155 22.798 38.0731 22.5414 38.0842C22.4169 38.1014 22.2965 38.1414 22.1859 38.2024L22.1002 38.2593L22.0531 38.2067L21.9888 38.1455ZM18.9902 41.1042L21.9888 38.1455L22.0831 38.2461L19.0845 41.2049L18.9902 41.1042ZM26.7009 40.9992L26.7951 41.1042H26.6581V41.0342L26.7009 40.9992ZM21.9888 38.1455L22.0359 38.1936L21.9888 38.1455Z" fill="#0F172A"/>
<path d="M17.4351 40.614C17.4351 40.614 22.3056 41.6076 26.4522 39.8787C27.2019 39.6205 27.2876 40.1019 27.9258 40.8022C28.5641 41.5025 31.0187 44.2031 31.5884 46.6979C31.7383 47.4332 31.4899 47.1969 30.5346 46.9736C29.5793 46.7504 22.5541 45.3848 21.6331 45.4855C20.7121 45.5862 17.4351 40.614 17.4351 40.614Z" fill="#4264FF"/>
<path d="M21.6412 45.5555C21.5603 45.5619 21.4791 45.5468 21.4056 45.5118C21.3139 45.4738 21.2275 45.4238 21.1486 45.363C20.9286 45.1999 20.7236 45.0168 20.536 44.8158C20.0387 44.28 19.5697 43.7175 19.1309 43.1308C18.664 42.5136 18.2271 41.8965 17.9058 41.4325L17.5203 40.8679C17.4774 40.7979 17.4389 40.7454 17.4175 40.7103L17.3875 40.6666L17.4432 40.6272L17.5031 40.5878L17.5288 40.6316L17.6359 40.7891L18.0172 41.3494C18.3385 41.8133 18.7754 42.4305 19.2423 43.0476C19.6768 43.6299 20.1415 44.1881 20.6345 44.7196C20.8169 44.9125 21.0146 45.0896 21.2257 45.2492C21.2982 45.3021 21.3757 45.3475 21.457 45.3848C21.5097 45.4078 21.5668 45.4182 21.6241 45.4155L21.6412 45.5555ZM30.5213 47.0393C30.0458 46.9299 28.0496 46.5316 26.062 46.1639C25.0639 45.9845 24.07 45.8182 23.269 45.7C22.8663 45.6431 22.5151 45.5949 22.2323 45.5687C22.0365 45.541 21.8386 45.5322 21.6412 45.5424V45.4024C21.8486 45.3919 22.0565 45.4006 22.2623 45.4286C22.5493 45.4549 22.9049 45.503 23.3033 45.5599C24.1086 45.6781 25.1067 45.8444 26.1005 46.0239C28.0924 46.3828 30.0886 46.7811 30.5684 46.8992L30.5213 47.0393ZM31.6565 46.6848C31.6938 46.8199 31.704 46.9613 31.6865 47.1006C31.6777 47.1492 31.6518 47.1928 31.6136 47.2231C31.5729 47.2507 31.5254 47.2659 31.4766 47.2669C31.3502 47.2575 31.2252 47.234 31.1039 47.1969C30.9497 47.1531 30.7569 47.0962 30.5213 47.0393L30.5513 46.9036C30.7912 46.9605 30.9796 47.0174 31.1424 47.0612C31.2499 47.0943 31.3604 47.1163 31.4723 47.1268C31.5065 47.1268 31.5237 47.1268 31.5322 47.1268C31.5408 47.1268 31.5322 47.1268 31.5322 47.0874C31.542 46.9681 31.5304 46.848 31.498 46.7329L31.6565 46.6848ZM27.9768 40.7541C28.6409 41.4768 29.2617 42.2398 29.8359 43.0388C30.6649 44.1243 31.2829 45.3619 31.6565 46.6848L31.5194 46.7154C31.1525 45.4096 30.5432 44.1881 29.7245 43.1176C29.1516 42.3256 28.5337 41.5685 27.874 40.8504L27.9768 40.7541ZM26.4304 39.835C26.5813 39.7676 26.7457 39.7376 26.9101 39.7474C27.0444 39.7708 27.1693 39.8331 27.27 39.9269C27.3799 40.0384 27.4829 40.1568 27.5784 40.2814C27.6855 40.4215 27.8097 40.5834 27.9682 40.7541L27.8654 40.8504C27.7026 40.671 27.5784 40.509 27.4713 40.369C27.3822 40.2496 27.2834 40.1384 27.1757 40.0363C27.0969 39.9583 26.9969 39.9064 26.8887 39.8875C26.7435 39.871 26.5966 39.8905 26.4603 39.9444L26.4304 39.835ZM17.4346 40.5659H17.4732L17.6359 40.5922C17.773 40.6184 17.9786 40.6491 18.2399 40.6797C18.9508 40.7685 19.6657 40.8196 20.3818 40.8329C22.4413 40.9116 24.4956 40.5724 26.4261 39.835L26.4775 39.9663C24.5327 40.7133 22.4625 41.0599 20.3861 40.9861C19.67 40.9722 18.9552 40.9211 18.2442 40.8329C17.9829 40.8023 17.7773 40.7672 17.6316 40.7454L17.486 40.7103H17.4303V40.6403L17.4346 40.5659ZM31.6436 46.6935H31.5751H31.6436ZM26.4261 39.835L26.4475 39.9006L26.4261 39.835ZM17.3789 40.6535L17.2847 40.5134L17.4475 40.544V40.6141L17.3789 40.6535Z" fill="#0F172A"/>
<path d="M14.7747 36.7186C14.7747 36.7186 23.7105 47.1049 24.383 47.5688C24.383 47.5688 15.2159 44.238 13.8409 43.0081C12.4658 41.7782 14.7747 36.7186 14.7747 36.7186Z" fill="#4264FF"/>
<path d="M13.7982 43.0607C13.6157 42.8506 13.4801 42.6023 13.4009 42.3332C13.3218 42.0642 13.3009 41.7807 13.3399 41.5025C13.3888 40.7876 13.5196 40.081 13.7297 39.3973C13.931 38.6882 14.1795 38.0142 14.3722 37.5196C14.4708 37.2701 14.5564 37.0819 14.6164 36.9243L14.6892 36.7624V36.7186L14.7492 36.7492L14.8135 36.7755V36.8149L14.7449 36.9768C14.6849 37.1169 14.5993 37.3226 14.5007 37.5677C14.308 38.0579 14.0724 38.7276 13.8625 39.4323C13.655 40.1103 13.527 40.8112 13.4812 41.52C13.445 41.7788 13.4646 42.0426 13.5386 42.2928C13.6126 42.5431 13.7392 42.7738 13.9096 42.9688L13.7982 43.0607ZM24.3404 47.6345L24.2633 47.6083L23.972 47.4988L22.9139 47.1049C22.0315 46.7723 20.8406 46.3171 19.6112 45.8225C18.3818 45.3279 17.101 44.7983 16.0472 44.3125C15.5203 44.0674 15.0491 43.8354 14.6635 43.6297C14.3601 43.4731 14.073 43.2854 13.8068 43.0695L13.8967 42.9644C14.156 43.1733 14.4359 43.3537 14.7321 43.5028C15.109 43.7129 15.5888 43.9405 16.1071 44.1856C17.1566 44.667 18.4289 45.201 19.6626 45.6912C20.8963 46.1814 22.0786 46.641 22.9611 46.9736L24.0191 47.3675L24.3104 47.4726L24.3875 47.5032H24.4132L24.3918 47.5689L24.3404 47.6345ZM14.8092 36.6923L14.9163 36.7711L15.199 37.0994L16.2228 38.2855C17.0795 39.2659 18.2061 40.579 19.367 41.9052C20.5279 43.2314 21.7016 44.5751 22.6355 45.6124C23.1024 46.1333 23.4922 46.5753 23.8135 46.9255C23.9677 47.0874 24.0962 47.2231 24.199 47.3238C24.2637 47.3938 24.3339 47.4582 24.4089 47.5164L24.3318 47.6302C24.2496 47.5678 24.1723 47.499 24.1005 47.4244C23.9977 47.3238 23.8692 47.1881 23.715 47.0218C23.4066 46.6935 22.9996 46.2514 22.5327 45.7087C21.6031 44.667 20.4208 43.3277 19.2642 41.9971C18.1076 40.6665 16.9682 39.371 16.12 38.3774L15.109 37.2088L14.8263 36.8762L14.7492 36.7886L14.8006 36.7449L14.8092 36.6923ZM24.4047 47.5339L24.833 47.8446L24.319 47.6564L24.3447 47.5908L24.4047 47.5339ZM14.7149 36.688L14.7578 36.5917L14.8263 36.6705L14.7749 36.7186L14.7149 36.688Z" fill="#0F172A"/>
<path d="M13.404 30.2058L15.3445 35.9308C15.4616 36.1132 15.5155 36.3304 15.4976 36.5478C15.4798 36.7652 15.3912 36.9702 15.246 37.1301C14.7448 37.7953 13.5925 42.4261 15.4987 46.1202C15.4987 46.1202 10.3583 42.5924 9.00462 39.6205C7.65097 36.6486 10.5596 28.8534 13.404 30.2058Z" fill="#4264FF"/>
<path d="M8.9574 39.6511C8.61446 38.7095 8.51703 37.6929 8.67468 36.7011C8.81346 35.5185 9.11936 34.3626 9.58282 33.2697C9.96687 32.2809 10.5507 31.386 11.2963 30.6435C11.9603 30.0439 12.7013 29.7944 13.4381 30.1489L13.3782 30.2759C12.7013 29.952 12.0202 30.1708 11.382 30.7486C10.6546 31.4789 10.0854 32.3572 9.71133 33.3266C9.25624 34.4079 8.95476 35.5501 8.81604 36.7186C8.65776 37.6851 8.75234 38.6772 9.0902 39.5942L8.9574 39.6511ZM15.4772 46.1771L15.4343 46.1464L15.2673 46.0283C15.1216 45.9276 14.916 45.7788 14.6633 45.5906C14.1578 45.2142 13.4724 44.6802 12.7442 44.0499C11.2877 42.7981 9.65136 41.1655 8.97454 39.673L9.10305 39.6118C9.76274 41.0824 11.3734 42.6756 12.8299 43.9536C13.5581 44.5795 14.2435 45.1091 14.7447 45.4855L15.3444 45.9232L15.5114 46.0414L15.5543 46.0676L15.5157 46.1245L15.4772 46.1771ZM15.3144 37.1738C15.2313 37.3006 15.1637 37.4373 15.1131 37.5809C15.0255 37.8215 14.9511 38.067 14.8903 38.3162C14.7123 39.0336 14.5991 39.7661 14.5519 40.5046C14.387 42.4297 14.741 44.3642 15.5757 46.0983L15.4515 46.1639C14.6035 44.3997 14.245 42.4318 14.4148 40.474C14.4637 39.7357 14.577 39.0033 14.7532 38.2856C14.8167 38.0305 14.8939 37.7791 14.9846 37.5327C15.0409 37.378 15.1157 37.231 15.2073 37.095L15.3144 37.1738ZM15.4172 35.8958C15.4335 35.9208 15.4478 35.9472 15.46 35.9746C15.5036 36.0597 15.5339 36.1513 15.55 36.2459C15.5751 36.4066 15.5654 36.571 15.5218 36.7275C15.4781 36.884 15.4015 37.0289 15.2973 37.1519L15.1902 37.0644C15.2816 36.957 15.3489 36.8304 15.3874 36.6935C15.4259 36.5567 15.4346 36.4129 15.4129 36.2722C15.3997 36.1897 15.3737 36.1099 15.3358 36.0358L15.3015 35.9746L15.3572 35.9308L15.4172 35.8958ZM13.4681 30.2058L15.4258 35.8958L15.2973 35.9439L13.3396 30.2321L13.4681 30.2058ZM15.5757 46.1114L15.7042 46.3565L15.4772 46.199L15.5157 46.1421L15.5757 46.1114ZM15.3058 35.9965L15.3701 35.9702L15.3058 35.9965ZM13.4339 30.1446H13.4596V30.1752H13.3953L13.4339 30.1446Z" fill="#0F172A"/>
<path d="M3.90307 34.8015C3.90307 34.8015 6.67891 39.5898 9.34765 42.391C9.34765 42.391 10.2515 33.4009 10.7184 32.5124C11.1854 31.6239 10.9883 30.5997 14.1454 30.801L14.8651 27.6584C14.8651 27.6584 2.63081 31.8953 3.90307 34.8015Z" fill="#4264FF"/>
<path d="M14.8819 27.7241H14.8562L14.7534 27.7591L14.3679 27.8992C14.038 28.0217 13.5668 28.1968 13.0014 28.42C11.8748 28.8577 10.3883 29.4792 8.94471 30.1708C7.59416 30.7947 6.31551 31.5698 5.13221 32.4818C4.70423 32.8166 4.34351 33.2327 4.06986 33.7073C3.96801 33.8654 3.90542 34.0464 3.8875 34.2348C3.86959 34.4232 3.89689 34.6132 3.96705 34.7884L3.83854 34.8453C3.76136 34.6502 3.7312 34.439 3.75058 34.2296C3.76996 34.0201 3.83833 33.8185 3.94991 33.6416C4.23102 33.1598 4.59873 32.7365 5.03369 32.3942C6.22985 31.4737 7.52299 30.6927 8.88902 30.0657C10.3369 29.3523 11.8276 28.7527 12.9585 28.2887C13.5197 28.0655 13.9952 27.886 14.325 27.7679L14.7148 27.6278L14.8134 27.5884H14.8434L14.8648 27.6541L14.8819 27.7241ZM14.0723 30.7879L14.792 27.6409L14.9247 27.6759L14.2094 30.8185L14.0723 30.7879ZM10.6453 32.4774C10.701 32.3723 10.7481 32.2629 10.7953 32.1491C10.8424 32.0353 10.8852 31.9215 10.9323 31.8121C11.0264 31.5753 11.1731 31.364 11.3607 31.195C11.7891 30.8317 12.543 30.6303 14.1194 30.731V30.8711C12.5473 30.7704 11.8362 30.9805 11.4592 31.3088C11.2856 31.4613 11.1492 31.6532 11.0609 31.869C11.0137 31.9784 10.9752 32.0878 10.9281 32.2016C10.8809 32.3154 10.8338 32.4336 10.7738 32.5474L10.6453 32.4774ZM9.26598 42.3866V42.2903C9.26598 42.2247 9.26598 42.1284 9.29597 42.0058C9.32167 41.7564 9.36022 41.4018 9.40734 40.9729C9.4973 40.0975 9.62581 38.9639 9.76717 37.7865C9.90854 36.6091 10.067 35.3968 10.217 34.4295C10.2941 33.9436 10.3669 33.5191 10.4354 33.1864C10.478 32.9464 10.5455 32.7116 10.6368 32.4861L10.761 32.5562C10.6723 32.7679 10.609 32.9898 10.5725 33.2171C10.504 33.5453 10.4311 33.9655 10.354 34.4513C10.2041 35.4186 10.0456 36.6398 9.90425 37.804C9.76289 38.9683 9.63438 40.1325 9.54442 40.9904C9.4973 41.4281 9.45875 41.7739 9.43305 42.019C9.43305 42.1459 9.41163 42.2422 9.40306 42.3078V42.4085H9.33452L9.26598 42.3866ZM3.96277 34.7665V34.8059C3.96277 34.8453 4.01417 34.8978 4.05701 34.9634C4.1384 35.0991 4.25406 35.2961 4.40827 35.5456C4.70813 36.0358 5.14078 36.7229 5.65483 37.4933C6.76381 39.2001 8.00889 40.8104 9.37736 42.3078L9.27883 42.4085C7.90318 40.8973 6.65235 39.2723 5.53917 37.5502C5.06368 36.8105 4.6353 36.1233 4.31831 35.6331L3.96705 35.051L3.87709 34.8934L3.85139 34.854L3.91136 34.8146L3.96277 34.7665ZM14.8391 27.5797L14.9547 27.5359L14.9247 27.6628H14.8605L14.8391 27.5797ZM14.2094 30.8185V30.8754H14.1537V30.8054L14.2094 30.8185ZM9.42448 42.3998V42.5486L9.32167 42.4435L9.36879 42.391L9.42448 42.3998ZM3.85567 34.8409L3.91993 34.8103L3.85567 34.8409Z" fill="#0F172A"/>
<path d="M1.16173 24.9536C1.16173 24.9536 0.626269 32.9501 3.46636 36.1671C3.46636 36.1671 8.3155 30.4422 13.8072 28.954C13.8072 28.954 13.7686 28.1443 14.6211 28.3631L15.4222 27.978V25.4175L1.16173 24.9536Z" fill="#4264FF"/>
<path d="M15.4178 25.4876L1.15736 25.0499V24.9098L15.4178 25.3475V25.4876ZM15.345 27.9824V25.4175H15.482V27.9824H15.345ZM14.5825 28.3019L15.3835 27.9211L15.4435 28.048L14.651 28.4551L14.5825 28.3019ZM13.7257 28.9584V28.919C13.7223 28.887 13.7223 28.8547 13.7257 28.8227C13.7376 28.7262 13.7666 28.6328 13.8114 28.547C13.8721 28.4335 13.971 28.3464 14.0898 28.3019C14.2611 28.2453 14.4455 28.2453 14.6167 28.3019L14.5825 28.4419C14.4428 28.3986 14.2937 28.3986 14.1541 28.4419C14.0661 28.4759 13.9931 28.5412 13.9485 28.6258C13.9114 28.6964 13.8881 28.7737 13.8799 28.8534C13.8785 28.8796 13.8785 28.9059 13.8799 28.9322V28.9628H13.7429L13.7257 28.9584ZM3.41486 36.1234L3.45342 36.0752L3.62048 35.8914C3.76184 35.7294 3.97603 35.5018 4.2459 35.2217C4.78565 34.6615 5.56528 33.9087 6.51626 33.0858C8.41822 31.4664 11.0099 29.6543 13.7728 28.9059L13.8071 29.0416C11.0912 29.7681 8.51675 31.5627 6.62335 33.1777C5.67666 33.9831 4.90987 34.7446 4.36156 35.3005C4.09169 35.5806 3.88179 35.8126 3.73614 35.9702L3.57336 36.154L3.53481 36.2021L3.47912 36.1584L3.41486 36.1234ZM1.23018 24.9536C1.23201 24.9769 1.23201 25.0003 1.23018 25.0236C1.23018 25.0805 1.23018 25.168 1.23018 25.2818C1.23018 25.5051 1.23018 25.829 1.20448 26.2272C1.20448 27.0282 1.20448 28.1224 1.33299 29.3217C1.43591 30.5705 1.65683 31.8061 1.99268 33.0114C2.28248 34.1351 2.80876 35.1807 3.53481 36.0752L3.43628 36.1715C2.69113 35.2567 2.15286 34.1852 1.85988 33.0333C1.52335 31.819 1.30101 30.5747 1.19591 29.3173C1.08453 28.1137 1.06311 27.0107 1.0674 26.2097C1.0674 25.8071 1.0674 25.4832 1.0674 25.2556C1.0674 25.1418 1.0674 25.0542 1.0674 24.9973C1.06923 24.974 1.06923 24.9506 1.0674 24.9273H1.20876L1.23018 24.9536ZM15.4221 25.3387H15.4906V25.4044H15.4221V25.3387ZM15.4906 27.9649V28.0174H15.4521L15.4221 27.9517L15.4906 27.9649ZM14.6339 28.4025H14.6082V28.3325L14.6339 28.4025ZM13.8585 28.9234V28.9803H13.8028V28.9146L13.8585 28.9234ZM3.52196 36.2153L3.47055 36.2765L3.41915 36.2196L3.46627 36.1715L3.52196 36.2153ZM1.08882 24.9536V24.8835H1.15307V24.9536H1.08882Z" fill="#0F172A"/>
<path d="M3.80858 17.0752C3.80858 17.0752 0.313084 23.2028 0.090332 26.7043C0.090332 26.7043 1.16126 24.7653 15.6787 26.1441L16.4669 23.8549C16.4669 23.8549 6.21173 15.5389 3.80858 17.0752Z" fill="#4264FF"/>
<path d="M16.4237 23.8856L16.338 23.82L16.0082 23.5574C15.7255 23.3341 15.3142 23.019 14.813 22.6426C13.8149 21.8898 12.4613 20.8918 11.0305 19.9596C9.67913 19.0376 8.25652 18.2296 6.77681 17.5435C6.22169 17.2848 5.6376 17.0966 5.03763 16.9833C4.63864 16.887 4.21933 16.935 3.85104 17.119L3.77822 17.0008C4.1757 16.7975 4.63005 16.7417 5.06333 16.8432C5.67437 16.9608 6.26965 17.1518 6.83678 17.4122C8.30529 18.0965 9.71773 18.9001 11.0605 19.8151C12.4955 20.7562 13.8535 21.7453 14.8559 22.5025C15.3528 22.8789 15.764 23.1984 16.051 23.4217L16.3809 23.6799C16.4194 23.7105 16.4451 23.7368 16.4665 23.7499L16.4237 23.8025V23.8856ZM15.6141 26.0741L16.4023 23.7849L16.5308 23.8331L15.7426 26.1222L15.6141 26.0741ZM0.0299857 26.643L0.094241 26.573C0.198541 26.4896 0.312135 26.4191 0.432653 26.3629C1.0694 26.0876 1.74175 25.9077 2.42886 25.8289C4.5193 25.5182 8.42603 25.3913 15.6869 26.0653V26.2054C8.42603 25.5182 4.54929 25.6583 2.46313 25.969C1.79749 26.044 1.1456 26.2149 0.526895 26.4767C0.41624 26.5268 0.312536 26.5915 0.218469 26.6693L0.171348 26.7175L0.111376 26.6824L0.0299857 26.643ZM3.88531 17.0971L3.85533 17.1496L3.74395 17.3466C3.64971 17.5216 3.51263 17.7843 3.34557 18.0863C3.01572 18.7122 2.57022 19.5831 2.12043 20.5679C1.208 22.5507 0.265589 24.9536 0.158496 26.7043H0.0214182C0.132794 24.9536 1.06664 22.52 1.9705 20.5548C2.39887 19.57 2.86579 18.6946 3.19992 18.0688C3.3627 17.7536 3.50406 17.4998 3.59831 17.3247L3.70968 17.1233L3.73967 17.0752L3.79964 17.1102L3.88531 17.0971ZM16.5094 23.7762L16.5479 23.8068V23.855L16.4837 23.8287L16.5094 23.7762ZM15.7426 26.1441V26.1966H15.6912V26.1266L15.7426 26.1441ZM0.14993 26.7043L0 26.9713L0.0214182 26.6649H0.0899572L0.14993 26.7043ZM3.74823 17.0183L3.7825 17.0796L3.74823 17.0183Z" fill="#0F172A"/>
<path d="M20.4431 20.104L16.4678 24.3889C16.4678 24.3889 6.94943 17.5129 2.49438 17.8149C2.49438 17.8149 6.56818 10.1203 9.3483 9.88397C10.1887 12.4998 11.7076 14.8338 13.7434 16.6375L20.4431 20.104Z" fill="#4264FF"/>
<path d="M13.7731 16.5894L20.4856 20.0383L20.4257 20.1653L13.7131 16.7163L13.7731 16.5894ZM9.39942 9.86211C10.2382 12.4716 11.7542 14.7996 13.7859 16.5981L13.696 16.7075C11.6447 14.8921 10.1152 12.5411 9.27091 9.90588L9.39942 9.86211ZM2.43841 17.7799C2.4465 17.7563 2.45806 17.7342 2.47268 17.7142C2.50267 17.6573 2.5455 17.5742 2.60548 17.4691C2.72114 17.259 2.89248 16.957 3.10667 16.5937C3.53504 15.8672 4.12619 14.8955 4.82015 13.9195C5.48064 12.9438 6.22618 12.0311 7.04767 11.1927C7.82302 10.4355 8.60694 9.87962 9.3266 9.83585V9.97591C8.66262 10.0328 7.90441 10.5405 7.13763 11.289C6.3229 12.1222 5.5818 13.0274 4.92296 13.9939C4.24185 14.9699 3.63785 15.9372 3.20948 16.6594C2.99958 17.0227 2.82823 17.3247 2.71257 17.5348L2.57977 17.7799L2.5455 17.8412L2.4941 17.8149L2.43841 17.7799ZM16.4247 24.4459H16.4033L16.3219 24.389L16.0134 24.1745C15.7479 23.9863 15.358 23.7368 14.8783 23.3998C13.9144 22.7564 12.5865 21.9073 11.1215 21.0669C9.64609 20.2051 8.11465 19.4476 6.53791 18.7997C5.02148 18.1957 3.60358 17.828 2.50695 17.9243V17.7843C3.63356 17.7055 5.07717 18.0819 6.59788 18.6859C8.17994 19.3376 9.71702 20.098 11.1986 20.9619C12.6679 21.8066 13.9958 22.6557 14.9597 23.2991C15.4437 23.6186 15.8164 23.8856 16.0991 24.0738L16.4118 24.2927L16.4932 24.3496L16.4547 24.4065C16.429 24.4459 16.429 24.4459 16.4247 24.4459ZM20.4856 20.139L16.5061 24.424L16.4075 24.3277L20.3828 20.0427L20.4856 20.139ZM13.7131 16.7163L13.7602 16.6638L13.7131 16.7163ZM9.34802 9.81396H9.39942V9.87086L9.33517 9.89275L9.34802 9.81396ZM2.4941 17.8849H2.36987L2.42984 17.7711L2.48982 17.8061L2.4941 17.8849ZM16.5061 24.4502L16.4675 24.494L16.4204 24.459L16.459 24.4021L16.5061 24.4502ZM20.4642 20.0734L20.5499 20.1171L20.4856 20.139L20.4342 20.0909L20.4642 20.0734Z" fill="#0F172A"/>
<path d="M34.2141 11.1487C33.2031 8.85957 29.4806 1.09062 22.9265 0.171474C22.4012 0.100384 21.8712 0.0725737 21.3416 0.0883136C21.9184 0.106845 22.4921 0.181591 23.055 0.311534C28.9922 1.65523 31.8966 8.6276 32.6462 10.5666L34.2141 11.1487Z" fill="#4264FF"/>
<path d="M32.6805 10.5099L34.2398 11.0876L34.1926 11.2233L32.6334 10.6412L32.6805 10.5099ZM23.0807 0.241734C26.0793 0.920149 28.294 3.00792 29.8618 5.16572C31.0356 6.8249 31.9959 8.63129 32.7191 10.5405L32.5905 10.593C31.8736 8.6966 30.9189 6.90317 29.7504 5.25763C28.1955 3.10421 25.9936 1.04708 23.055 0.377417L23.0807 0.241734ZM21.3416 0.00538244C21.9283 0.0227934 22.5122 0.0975411 23.085 0.228603L23.055 0.377417C22.4918 0.250229 21.9181 0.176964 21.3416 0.158573V0.00538244ZM22.9222 0.228603C22.3981 0.161544 21.8694 0.138124 21.3416 0.158573V0.00538244C21.8783 -0.0127789 22.4157 0.0150386 22.9479 0.0885431L22.9222 0.228603ZM34.1584 11.1708C33.2246 9.0304 32.0284 7.01991 30.5986 5.1876C28.7224 2.85473 26.1693 0.701305 22.918 0.241734V0.101674C26.2164 0.565622 28.7995 2.75406 30.68 5.10444C32.1169 6.94607 33.3188 8.96688 34.2569 11.1183L34.1584 11.1708ZM32.6377 10.6281H32.6077V10.6018L32.6719 10.5755L32.6377 10.6281ZM23.0807 0.241734V0.311764V0.241734ZM22.9479 0.101674V0.171704V0.101674ZM34.2783 11.1183L34.3469 11.2715L34.1926 11.2146V11.1489L34.2783 11.1183Z" fill="#0F172A"/>
<path d="M38.095 16.1736C38.095 16.1736 37.204 14.506 34.4839 11.9543C34.4839 11.9543 36.8485 12.3219 37.2468 12.5495C37.2468 12.5495 33.9013 10.5187 32.6419 10.0635C32.6419 10.0635 42.2459 8.19453 42.6443 8.33459L30.65 8.49216L32.9075 7.80936L28.1954 7.30602L30.1359 6.05424C30.1359 6.05424 23.9117 7.48985 14.1406 4.17218L13.9393 6.08925L7.82642 5.3233C7.82642 5.3233 10.478 10.1729 10.825 11.0132C11.172 11.8536 13.2838 15.5652 14.3548 16.1604L14.5561 12.0724L20.0564 6.89022L21.3415 8.24267" fill="#4264FF"/>
<path d="M20.0949 6.84201L21.38 8.19446L21.2815 8.29075L19.9964 6.94268L20.0949 6.84201ZM14.4875 12.0374L20.0006 6.83763L20.0906 6.94268L14.5903 12.138L14.4875 12.0374ZM14.2648 16.1691L14.4875 12.0855H14.6246L14.4104 16.1998L14.2648 16.1691ZM10.8764 11C11.3011 11.9216 11.7922 12.8096 12.3457 13.6568C12.6799 14.1872 13.0402 14.7 13.4252 15.1931C13.6851 15.5497 14.0005 15.8602 14.359 16.1122L14.2948 16.2348C13.9229 15.9748 13.597 15.6521 13.3309 15.2806C12.9754 14.8429 12.5984 14.2871 12.2429 13.7356C11.6812 12.8797 11.1815 11.983 10.7479 11.0526L10.8764 11ZM7.87778 5.3101V5.34949C7.8992 5.38451 7.92918 5.43703 7.96345 5.50268C8.03628 5.63837 8.14337 5.83095 8.2676 6.0673C8.52462 6.53563 8.86303 7.1659 9.21429 7.81805C9.91682 9.13111 10.6665 10.5667 10.8378 10.9957L10.7093 11.0482C10.5422 10.6105 9.80116 9.20552 9.09435 7.8837L8.14765 6.13295L7.84351 5.57271C7.80924 5.50706 7.77926 5.45454 7.75784 5.41952L7.73642 5.37576L7.79639 5.34074L7.87778 5.3101ZM13.9178 6.18548L7.82209 5.39326V5.2532L13.9349 6.01916L13.9178 6.18548ZM14.1962 4.20713L13.9949 6.11982H13.8578L14.0592 4.16336L14.1962 4.20713ZM30.1487 6.13295H30.0973L29.8788 6.17235C29.6904 6.20736 29.4076 6.25113 29.0221 6.29052C27.955 6.40373 26.8819 6.44759 25.8093 6.42183C21.83 6.29572 17.892 5.55797 14.1277 4.23339L14.1705 4.10208C17.9211 5.42261 21.8444 6.16031 25.8093 6.29052C26.8776 6.31646 27.9464 6.2726 29.0093 6.15922C29.3734 6.11982 29.6561 6.07606 29.866 6.04104C29.9367 6.03231 30.0068 6.01916 30.0759 6.00165H30.1316V6.07168L30.1487 6.13295ZM28.1568 7.25781L30.0973 6.00602L30.1701 6.1242L28.2296 7.38036L28.1568 7.25781ZM32.9074 7.8837L28.1953 7.37599V7.23593L32.9074 7.73927V7.8837ZM30.6413 8.43081L32.8946 7.74802L32.9331 7.87933L30.6799 8.56212L30.6413 8.43081ZM42.6614 8.43081L30.667 8.58838V8.44832L42.6614 8.28638V8.43081ZM32.6461 10.0196H32.6718H32.7532L33.0573 9.95834L34.154 9.74825C35.0578 9.57755 36.2701 9.34558 37.4995 9.12236C38.729 8.89914 39.9627 8.68467 40.9265 8.51835C41.4063 8.43957 41.8132 8.37829 42.1174 8.34328C42.2673 8.32139 42.3915 8.30826 42.4858 8.30388H42.6057C42.6341 8.29915 42.663 8.29915 42.6914 8.30388L42.6485 8.43957H42.4943C42.4058 8.43957 42.2858 8.4527 42.1345 8.47896C41.8346 8.51397 41.4277 8.57525 40.9479 8.65403C39.9926 8.8116 38.7547 9.03044 37.521 9.25367L34.1754 9.88394L33.083 10.094L32.7789 10.1509H32.6975H32.6718V10.0809L32.6461 10.0196ZM37.2297 12.6457H37.1997L37.0926 12.5801L36.6985 12.3481C36.3644 12.1512 35.906 11.8798 35.4134 11.5997C34.5215 11.0697 33.5972 10.599 32.6461 10.1903L32.6932 10.059C33.6518 10.4696 34.5833 10.9433 35.4819 11.4771C35.9788 11.7572 36.4372 12.0286 36.767 12.2256L37.1611 12.4619L37.2725 12.5276H37.2982L37.2639 12.5888L37.2297 12.6457ZM34.5095 11.9192H34.5352H34.6123L34.8865 11.963L35.7432 12.1161C36.0645 12.173 36.3986 12.2431 36.6813 12.3087C36.8184 12.3437 36.9469 12.3744 37.0497 12.4094C37.136 12.4313 37.2194 12.4636 37.2982 12.5057L37.2297 12.6282C37.1596 12.5923 37.0865 12.563 37.0112 12.5407L36.6471 12.4444C36.3729 12.3788 36.0388 12.3131 35.7175 12.2518L34.8608 12.103L34.5866 12.0592H34.5138H34.4838V11.9892L34.5095 11.9192ZM38.0478 16.1998L38.0136 16.1429C37.9836 16.0947 37.9408 16.0203 37.8765 15.924C37.7523 15.7314 37.5552 15.4426 37.2768 15.0793C36.4211 13.9807 35.4783 12.956 34.4581 12.0155L34.5524 11.9148C35.5763 12.8556 36.5233 13.8802 37.3839 14.9786C37.6666 15.3463 37.8679 15.6351 37.9922 15.8321L38.1335 16.0597C38.1436 16.0795 38.155 16.0985 38.1678 16.1166L38.1078 16.1516L38.0478 16.1998ZM20.0135 6.83325L20.0606 6.78949L20.1077 6.83763L20.0606 6.88578L20.0135 6.83325ZM14.4875 12.0855V12.0549L14.5346 12.103L14.4875 12.0855ZM14.4104 16.1998V16.3092L14.3119 16.2567L14.3462 16.1954L14.4104 16.1998ZM7.7664 5.35825L7.70215 5.25758H7.83494V5.32761L7.7664 5.35825ZM14.0077 6.09356V6.16797H13.9392V6.09794L14.0077 6.09356ZM14.0592 4.16336V4.0802L14.1405 4.10646L14.1191 4.17211L14.0592 4.16336ZM30.1059 5.98414L30.4957 5.89223L30.1573 6.11107L30.1187 6.05417L30.1059 5.98414ZM28.1953 7.37599L27.9983 7.3541L28.1654 7.24468L28.1996 7.30596L28.1953 7.37599ZM32.9074 7.73927L33.2544 7.77428L32.9074 7.8837V7.81805V7.73927ZM30.6499 8.56212H30.153L30.6285 8.41768V8.48334L30.6499 8.56212ZM42.67 8.26449L43.0512 8.3958H42.6485V8.32139L42.67 8.26449ZM32.6204 10.129L32.3805 10.0415L32.6333 9.99336V10.0634L32.6204 10.129ZM37.2854 12.4882L37.2168 12.6107L37.2511 12.5495L37.2854 12.4882ZM34.441 12.0067L34.2739 11.8535L34.4967 11.8842V11.9542L34.441 12.0067Z" fill="#0F172A"/>
<path d="M14.5128 12.033L14.3757 15.9722C14.3757 15.9722 14.6071 14.5366 16.1792 12.9084C17.0104 11.9679 18.0859 11.288 19.2806 10.9475C19.4882 10.5579 19.7367 10.1925 20.0216 9.8577C20.7242 9.05674 21.4567 8.32142 21.4567 8.32142L20.0216 6.94708L14.5128 12.033Z" fill="#4264FF"/>
<path d="M16.1327 12.834C15.5111 13.4698 15.0011 14.2101 14.6249 15.0224C14.5253 15.2438 14.4409 15.472 14.3721 15.7052C14.3518 15.7685 14.3347 15.8328 14.3207 15.8978C14.3194 15.9138 14.3194 15.9299 14.3207 15.946H14.3893H14.4578C14.457 15.9314 14.457 15.9168 14.4578 15.9022C14.4578 15.8584 14.4578 15.7972 14.5006 15.7184C14.5702 15.4931 14.6532 15.2724 14.7491 15.0575C15.12 14.2654 15.6213 13.5444 16.2312 12.9259L16.1327 12.834ZM19.2684 10.8775H19.217L19.0199 10.9344C18.7779 11.0118 18.5417 11.1069 18.3131 11.2189C17.5137 11.6202 16.7889 12.1608 16.1713 12.8165L16.2698 12.9172C16.8697 12.2887 17.5711 11.7705 18.3431 11.3853C18.5654 11.278 18.7943 11.1859 19.0285 11.1095L19.2213 11.0526H19.2684V10.9826V10.8775ZM19.9709 9.81396C19.7694 10.0459 19.5874 10.2948 19.4269 10.558C19.3583 10.6631 19.3069 10.7506 19.2727 10.8119L19.2341 10.8863V10.9082L19.2941 10.9432L19.354 10.9738L19.3926 10.8994C19.4269 10.8382 19.4783 10.7506 19.5425 10.6499C19.6944 10.3884 19.8663 10.1396 20.0566 9.90588L19.9709 9.81396ZM21.4059 8.24704V8.2733L21.3117 8.3696L20.9819 8.71975C20.712 9.00862 20.3522 9.40254 20.0009 9.80521L20.1037 9.89712C20.455 9.49445 20.8148 9.10491 21.0847 8.81604L21.4102 8.47026L21.5045 8.37397V8.34771L21.4573 8.32145L21.4059 8.24704ZM19.9752 6.97775L21.4102 8.35209L21.5045 8.24704L20.0566 6.87708L19.9752 6.97775ZM14.5606 12.0856L20.0566 6.97775L19.9623 6.87708L14.4878 11.9805L14.5606 12.0856ZM14.4449 15.9635L14.582 12.0243H14.4449L14.3079 15.9635H14.4449ZM19.2941 11.0176H19.3283V10.987L19.2812 10.9476L19.2941 11.0176ZM19.9709 9.81396L20.0223 9.85773L19.9709 9.81396ZM21.5045 8.34771L21.5559 8.29519L21.5045 8.24704L21.4573 8.29957L21.5045 8.34771ZM20.0566 6.87708L20.0095 6.83331L19.9623 6.87708L20.0095 6.92523L20.0566 6.87708ZM14.4878 11.9805H14.4664V12.0112H14.5349L14.4878 11.9805ZM14.3293 15.9547H14.4664H14.3978H14.3293Z" fill="#0F172A"/>
<path d="M32.1409 11.148C32.1409 11.148 20.1979 2.05287 13.3354 0.376526C15.452 1.26342 17.5059 2.29884 19.4826 3.47535C20.9818 4.35073 22.3355 5.27863 23.5435 6.16713" fill="#4264FF"/>
<path d="M19.5166 3.41422C21.0202 4.2896 22.3739 5.22187 23.5862 6.11038L23.5048 6.22855C22.2968 5.35318 20.9345 4.42528 19.4481 3.53677L19.5166 3.41422ZM13.3653 0.311017C15.4828 1.20027 17.5381 2.23712 19.5166 3.41422L19.4481 3.53677C17.4743 2.36171 15.4232 1.32775 13.3096 0.442324L13.3653 0.311017ZM32.0979 11.2007H32.0722L31.9736 11.1219L31.5838 10.833C31.2411 10.5792 30.7271 10.2159 30.1359 9.7782C28.9108 8.90282 27.2016 7.71231 25.2825 6.47366C21.4315 3.96571 16.7365 1.28268 13.3224 0.442324L13.3524 0.306641C16.7794 1.147 21.4914 3.84315 25.3468 6.32484C27.2701 7.57225 28.9793 8.75838 30.2087 9.63376C30.8213 10.0714 31.3139 10.4347 31.6524 10.6842L32.0465 10.9775L32.1493 11.0562H32.175L32.1321 11.1131L32.0979 11.2007ZM19.5166 3.41422L19.4824 3.4755L19.5166 3.41422ZM13.3096 0.442324L13.3524 0.311017V0.376671L13.3096 0.442324Z" fill="#0F172A"/>
<path d="M23.9267 6.4402L23.8516 6.55731L27.2867 8.85935L27.3619 8.74223L23.9267 6.4402Z" fill="#0F172A"/>
<path d="M14.5599 9.88397L11.9126 11.6785L14.3415 15.9328" fill="#4264FF"/>
<path d="M11.9737 11.6391L14.4025 15.8978L14.2826 15.9678L11.858 11.7135L11.9737 11.6391ZM14.5996 9.94087L11.9522 11.7354L11.8794 11.6172L14.5225 9.82269L14.5996 9.94087ZM11.858 11.7135L11.8237 11.6566L11.8794 11.6172L11.9137 11.6785L11.858 11.7135Z" fill="#0F172A"/>
<path d="M13.7036 12.1556L14.4061 15.5433L14.2733 15.5696L13.5708 12.1862L13.7036 12.1556ZM14.9887 8.80291V8.82479C14.9887 8.82479 14.9887 8.86856 14.9887 8.8992C14.9887 8.92984 14.9887 9.06552 14.9544 9.1837C14.9143 9.49811 14.8542 9.80952 14.7745 10.116C14.6165 10.9121 14.232 11.643 13.6693 12.2169L13.5794 12.1118C14.1258 11.5544 14.4997 10.8451 14.6546 10.0722C14.7297 9.78414 14.7884 9.49186 14.8302 9.19683C14.8302 9.07865 14.8602 8.98236 14.8645 8.91671C14.8688 8.85105 14.8645 8.85981 14.8645 8.8423V8.81604H15.0016L14.9887 8.80291ZM16.7022 7.1966L14.963 8.85105L14.9159 8.75914L16.6294 7.09593L16.7022 7.1966ZM17.4861 9.02175L16.6294 7.17471L16.7536 7.11781L17.6103 8.96485L17.4861 9.02175ZM13.5837 12.1862V12.1468L13.6136 12.1206L13.6565 12.1731L13.5837 12.1862ZM14.8688 8.79415V8.75914H14.9159L14.963 8.81166L14.8688 8.79415ZM16.6294 7.09593L16.6979 7.03027L16.7365 7.11781L16.6722 7.14407L16.6294 7.09593Z" fill="#0F172A"/>
<path d="M12.1572 9.44628L13.9399 8.71096V6.08484" fill="#4264FF"/>
<path d="M13.8712 8.71096V6.08484H14.0083V8.71096H13.8712ZM12.1313 9.38063L13.9141 8.64531L13.9655 8.77662L12.1828 9.51193L12.1313 9.38063ZM14.0083 8.71096V8.75911H13.9655L13.9398 8.69346L14.0083 8.71096Z" fill="#0F172A"/>
<path d="M21.5042 8.75909C21.5042 8.75909 21.7698 7.40226 23.1234 8.1901C23.1234 8.1901 23.3076 7.03898 24.8369 8.34767C26.3662 9.65635 29.1977 11.092 30.2215 12.6414C31.2453 14.1908 25.0511 14.6679 25.0511 14.6679L20.8831 12.1731L21.5042 8.75909Z" fill="#0F172A"/>
<path d="M20.8145 12.1599L21.4356 8.75911L21.5684 8.78537L20.9516 12.2037L20.8145 12.1599ZM25.0168 14.7292L20.8487 12.2343L20.9173 12.1118L25.0853 14.6066L25.0168 14.7292ZM30.2857 12.602C30.3498 12.6858 30.3908 12.7856 30.4044 12.8911C30.4179 12.9965 30.4036 13.1038 30.3628 13.2016C30.2589 13.4004 30.1013 13.5644 29.9088 13.6743C29.3258 13.9731 28.7041 14.1853 28.0625 14.3046C27.3471 14.4622 26.6018 14.5716 26.0363 14.6373L25.3466 14.716H25.1496H25.081V14.646V14.576H25.1496H25.3466L26.032 14.5016C26.5975 14.4315 27.3171 14.3221 28.0454 14.1689C28.6595 14.0563 29.255 13.8559 29.8145 13.5737C29.9925 13.4826 30.1411 13.3414 30.2429 13.1666C30.2729 13.09 30.2823 13.0067 30.2703 12.9251C30.2582 12.8436 30.2251 12.7668 30.1744 12.7027L30.2857 12.602ZM24.8883 8.29516C25.6508 8.94731 26.7345 9.60822 27.7626 10.3479C28.7907 11.0876 29.7631 11.8142 30.2857 12.602L30.1701 12.6808C29.6646 11.9192 28.7136 11.1795 27.6855 10.4617C26.6574 9.7439 25.5694 9.06111 24.7983 8.40458L24.8883 8.29516ZM23.0549 8.17698C23.0549 8.17698 23.0549 8.15072 23.0549 8.13759C23.0549 8.12446 23.0806 8.05881 23.102 8.01066C23.1586 7.89081 23.2498 7.79153 23.3633 7.72616C23.6417 7.58173 24.1044 7.65176 24.8754 8.30829L24.7855 8.41771C24.023 7.76118 23.6246 7.75243 23.4275 7.85309C23.3387 7.90148 23.268 7.97838 23.2262 8.07194C23.2262 8.11133 23.1962 8.15072 23.1876 8.17698C23.1884 8.18572 23.1884 8.19451 23.1876 8.20324C23.1876 8.20324 23.1876 8.20324 23.1191 8.20324L23.0549 8.17698ZM21.4356 8.75911C21.4334 8.7446 21.4334 8.72984 21.4356 8.71534C21.4491 8.66448 21.4662 8.61474 21.487 8.56652C21.5486 8.418 21.6372 8.28283 21.7483 8.16823C21.8898 8.00425 22.0877 7.90235 22.3009 7.88373C22.605 7.8784 22.9036 7.96687 23.1577 8.13759L23.0891 8.26014C22.8594 8.10443 22.5895 8.02214 22.3138 8.02379C22.1428 8.03669 21.9819 8.11114 21.8597 8.23388C21.7615 8.33696 21.6843 8.45896 21.6327 8.59279C21.6128 8.63689 21.5956 8.6822 21.5813 8.72847C21.5798 8.74009 21.5798 8.75186 21.5813 8.76348H21.517L21.4356 8.75911ZM20.8487 12.2606L20.8059 12.2343V12.1862H20.8744L20.8487 12.2606ZM25.0596 14.7642H25.0382L25.0725 14.7029L25.0596 14.7642ZM23.1919 8.19887V8.29954L23.102 8.25139L23.1362 8.19011L23.1919 8.19887ZM21.4356 8.75911H21.5042H21.4356Z" fill="#0F172A"/>
<path d="M25.3468 10.4792L22.4724 7.00836C22.4724 7.00836 27.0988 9.63449 27.5143 10.4836C27.5914 10.6849 26.0621 10.6105 25.5824 10.5843C25.5363 10.5814 25.4912 10.5695 25.4496 10.5493C25.4118 10.5318 25.377 10.5082 25.3468 10.4792Z" fill="white"/>
<path d="M25.4195 10.6236C25.3704 10.5994 25.3266 10.5652 25.291 10.523L25.3981 10.431C25.4196 10.4611 25.4495 10.484 25.4837 10.4967L25.4195 10.6236ZM25.578 10.6674C25.5229 10.6634 25.4691 10.6485 25.4195 10.6236L25.4837 10.4967C25.5156 10.5141 25.5506 10.5245 25.5866 10.5273L25.578 10.6674ZM27.5785 10.4704C27.5867 10.4859 27.591 10.5032 27.591 10.5208C27.591 10.5384 27.5867 10.5557 27.5785 10.5711C27.5626 10.5947 27.5403 10.613 27.5142 10.6236C27.457 10.649 27.3963 10.6652 27.3343 10.6718C27.1467 10.695 26.9578 10.7052 26.7689 10.7024C26.3405 10.7024 25.8307 10.6805 25.5908 10.6674V10.5098C25.8307 10.5098 26.3319 10.5492 26.7646 10.5448C26.9464 10.548 27.1282 10.5378 27.3086 10.5142C27.3572 10.51 27.4049 10.4982 27.45 10.4792C27.448 10.484 27.4469 10.4892 27.4469 10.4945C27.4469 10.4998 27.448 10.505 27.45 10.5098L27.5785 10.4704ZM22.5066 6.96894L22.5451 6.99082L22.6908 7.07398L23.222 7.38474C23.6503 7.64736 24.2543 8.00188 24.8583 8.38267C25.4623 8.76346 26.0835 9.17489 26.5718 9.54254C26.7987 9.70601 27.0161 9.88284 27.2229 10.0721C27.3615 10.1885 27.4802 10.3275 27.5742 10.4836L27.45 10.5448C27.3658 10.4046 27.2585 10.2802 27.133 10.1772C26.9347 9.99835 26.7274 9.83034 26.5118 9.67385C26.0192 9.31057 25.4066 8.90352 24.7984 8.52273C24.1901 8.14194 23.6032 7.78304 23.162 7.5248L22.6265 7.19654L22.4809 7.11338H22.4423L22.4766 7.0521L22.5066 6.96894ZM25.291 10.5098L22.4209 7.0521L22.5237 6.96456L25.3981 10.4179L25.291 10.5098ZM27.5742 10.4529L27.5099 10.4792L27.5742 10.4529ZM22.4338 7.0521L22.1853 6.75885L22.5194 6.94706L22.4852 7.00833L22.4338 7.0521ZM25.3038 10.5098L25.3595 10.4661L25.3038 10.5098Z" fill="#0F172A"/>
<path d="M21.8259 11.766L23.3509 10.1553C23.4148 10.0818 23.4499 9.98672 23.4494 9.88834C23.4452 9.83961 23.4321 9.79212 23.4108 9.74828C23.3897 9.70508 23.3606 9.66645 23.3252 9.63448L21.8516 8.35643C21.7847 8.29881 21.699 8.26911 21.6117 8.27327C21.5254 8.27406 21.4426 8.3085 21.3804 8.36956C20.5498 9.1384 19.8289 10.0224 19.2385 10.9957C19.2133 11.0458 19.2002 11.1013 19.2002 11.1576C19.2002 11.214 19.2133 11.2695 19.2385 11.3196C19.2628 11.3694 19.298 11.4128 19.3413 11.4465C19.3867 11.478 19.4376 11.5003 19.4912 11.5122L21.4789 11.8711C21.542 11.8885 21.6085 11.8885 21.6716 11.8711C21.7299 11.848 21.7826 11.8121 21.8259 11.766Z" fill="#E0E5FF"/>
<path d="M21.6419 11.8229C21.6928 11.806 21.7386 11.7758 21.7747 11.7354L21.8775 11.836C21.823 11.8901 21.757 11.9305 21.6847 11.9542L21.6419 11.8229ZM21.4834 11.8229C21.5354 11.8361 21.5898 11.8361 21.6419 11.8229L21.6847 11.9542C21.6118 11.9743 21.5349 11.9743 21.4619 11.9542L21.4834 11.8229ZM19.4957 11.4596L21.4834 11.8229V11.9586L19.4914 11.5953L19.4957 11.4596ZM19.3758 11.3852C19.41 11.4114 19.4495 11.4294 19.4914 11.4377L19.47 11.5734C19.4053 11.563 19.3437 11.5375 19.2901 11.499L19.3758 11.3852ZM19.2901 11.2845C19.3102 11.3248 19.3396 11.3593 19.3758 11.3852L19.2901 11.499C19.2377 11.4584 19.1952 11.4059 19.1659 11.3458L19.2901 11.2845ZM19.2601 11.1532C19.2598 11.1988 19.2701 11.2438 19.2901 11.2845L19.1659 11.3458C19.1374 11.2858 19.1228 11.2199 19.1231 11.1532H19.2601ZM19.2901 11.0263C19.2696 11.0653 19.2593 11.109 19.2601 11.1532H19.1231C19.1228 11.0865 19.1374 11.0207 19.1659 10.9607L19.2901 11.0263ZM21.432 8.40018C20.6006 9.16817 19.8795 10.0523 19.2901 11.0263L19.1659 10.9607C19.7658 9.98043 20.4984 9.09187 21.342 8.3214L21.432 8.40018ZM21.6204 8.3214C21.5855 8.32122 21.5509 8.32808 21.5185 8.3416C21.4862 8.35512 21.4568 8.37503 21.432 8.40018L21.342 8.3214C21.4187 8.25045 21.5171 8.20871 21.6204 8.20322V8.3214ZM21.8089 8.38705C21.7564 8.3418 21.6891 8.31837 21.6204 8.3214V8.17696C21.724 8.1759 21.8245 8.21322 21.9032 8.28201L21.8089 8.38705ZM23.2825 9.6651L21.8046 8.40894L21.8946 8.30389L23.3682 9.58194L23.2825 9.6651ZM23.3553 9.75701C23.3373 9.72171 23.3126 9.69045 23.2825 9.6651L23.3725 9.56005C23.4167 9.59749 23.4531 9.64363 23.4796 9.69574L23.3553 9.75701ZM23.381 9.87081C23.3813 9.83135 23.3724 9.79239 23.3553 9.75701L23.4796 9.69574C23.505 9.74908 23.5196 9.80716 23.5224 9.86644L23.381 9.87081ZM23.381 9.98899C23.3894 9.95006 23.3894 9.90974 23.381 9.87081H23.5224C23.5243 9.94001 23.5111 10.0088 23.4839 10.0721L23.381 9.98899ZM23.3211 10.0853C23.3473 10.0577 23.3677 10.0249 23.381 9.98899L23.4839 10.0721C23.4649 10.1279 23.4342 10.1787 23.3939 10.221L23.3211 10.0853ZM21.7704 11.7179L23.2954 10.1072L23.3939 10.2078L21.8775 11.8229L21.7704 11.7179ZM21.4577 11.9542V11.8842V11.9542ZM19.4872 11.4552V11.5253V11.4552ZM19.1616 10.9782L19.2259 11.0088L19.1616 10.9782ZM21.342 8.3214L21.3891 8.37392L21.342 8.3214ZM21.8132 8.41331L21.8603 8.36079L21.8132 8.41331ZM23.3768 9.58632L23.3339 9.63884L23.3768 9.58632ZM23.3082 10.1115L23.3596 10.1597L23.3082 10.1115Z" fill="#0F172A"/>
<path d="M23.0169 12.0155L23.9379 10.7506C23.9796 10.6952 24.0401 10.6578 24.1075 10.6456C24.1749 10.6335 24.2443 10.6475 24.302 10.6849L25.5143 11.5034C25.5582 11.5335 25.5925 11.5761 25.6128 11.626C25.6277 11.6759 25.6277 11.7292 25.6128 11.7792L25.343 13.5737C25.3343 13.6198 25.3153 13.6633 25.2873 13.7006C25.2574 13.7354 25.221 13.7637 25.1802 13.7838C25.1365 13.7944 25.091 13.7944 25.0474 13.7838C25.0013 13.7791 24.957 13.7625 24.9189 13.7356L23.0769 12.4226C23.0484 12.4007 23.0238 12.3741 23.0041 12.3438C22.9861 12.311 22.9731 12.2755 22.9655 12.2387C22.9591 12.2026 22.9591 12.1655 22.9655 12.1293C22.9729 12.0875 22.9906 12.0484 23.0169 12.0155Z" fill="white"/>
<path d="M22.9055 12.0943C22.9152 12.0498 22.9342 12.008 22.9612 11.9717L23.0726 12.0549C23.0553 12.0764 23.0435 12.102 23.0383 12.1293L22.9055 12.0943ZM22.9055 12.2343C22.8971 12.1881 22.8971 12.1406 22.9055 12.0943L23.0383 12.1293C23.0318 12.1566 23.0318 12.1851 23.0383 12.2125L22.9055 12.2343ZM22.9526 12.3613C22.9306 12.3217 22.9147 12.2789 22.9055 12.2343H23.0426C23.0461 12.2614 23.0565 12.287 23.0726 12.3087L22.9526 12.3613ZM23.0469 12.4619C23.0092 12.4352 22.9771 12.4009 22.9526 12.3613L23.0726 12.2869C23.0864 12.3113 23.1055 12.3322 23.1283 12.3481L23.0469 12.4619ZM24.8889 13.775L23.0469 12.4619L23.1283 12.3481L24.966 13.6612L24.8889 13.775ZM25.0474 13.8363C24.99 13.8311 24.9352 13.8099 24.8889 13.775L24.966 13.6612C24.9947 13.6793 25.0268 13.6912 25.0602 13.6962L25.0474 13.8363ZM25.2144 13.81C25.1627 13.836 25.1044 13.8451 25.0474 13.8363V13.6962C25.0811 13.7047 25.1164 13.7047 25.1502 13.6962L25.2144 13.81ZM25.3515 13.705C25.315 13.751 25.2679 13.7871 25.2144 13.81L25.163 13.6831C25.1931 13.6691 25.2195 13.6481 25.2401 13.6218L25.3515 13.705ZM25.4115 13.5737C25.401 13.6309 25.3776 13.6849 25.343 13.7312L25.2316 13.6481C25.2535 13.6201 25.2682 13.587 25.2744 13.5518L25.4115 13.5737ZM25.6985 11.8229L25.4115 13.5737H25.2744L25.5657 11.801L25.6985 11.8229ZM25.6985 11.626C25.7177 11.6901 25.7177 11.7587 25.6985 11.8229L25.5657 11.7967C25.576 11.7594 25.576 11.7201 25.5657 11.6829L25.6985 11.626ZM25.5743 11.4771C25.6297 11.5125 25.6731 11.5645 25.6985 11.626L25.57 11.6829C25.556 11.645 25.5305 11.6128 25.4972 11.5909L25.5743 11.4771ZM24.3406 10.628L25.5529 11.4465L25.4757 11.5603L24.2635 10.7462L24.3406 10.628ZM24.0964 10.5755C24.1813 10.5619 24.2682 10.5806 24.3406 10.628L24.2635 10.7462C24.2424 10.7315 24.2186 10.7212 24.1936 10.716C24.1686 10.7107 24.1429 10.7106 24.1178 10.7156L24.0964 10.5755ZM23.8822 10.7112C23.9071 10.675 23.9389 10.6443 23.9757 10.621C24.0125 10.5977 24.0536 10.5822 24.0964 10.5755V10.7156C24.0715 10.7193 24.0477 10.7283 24.0263 10.7418C24.0049 10.7554 23.9865 10.7732 23.9722 10.7943L23.8822 10.7112ZM22.9612 11.9717L23.8822 10.7112L23.9936 10.7943L23.0555 12.0549L22.9612 11.9717ZM23.1197 12.3481L23.0769 12.405L23.1197 12.3481ZM24.9574 13.6612L24.9189 13.7181L24.9574 13.6612ZM25.2744 13.5255H25.343H25.2744ZM25.7028 11.7748H25.6385H25.7028ZM25.5571 11.429L25.5186 11.4859L25.5571 11.429ZM24.3406 10.628L24.302 10.6849L24.3406 10.628ZM23.8822 10.7112L23.9379 10.7506L23.8822 10.7112Z" fill="#0F172A"/>
<path d="M38.0477 16.1735C34.6146 15.1445 30.9918 14.96 27.4756 15.6351L27.1371 15.7096C26.9087 15.7562 26.6816 15.8131 26.456 15.8803L25.625 14.4184L25.7407 13.9807L26.3618 11.7616L29.4803 11.4333C32.5469 12.5785 35.4332 14.1755 38.0477 16.1735Z" fill="#E0E5FF"/>
<path d="M29.5102 11.3853H29.5487L29.6986 11.4378C29.8272 11.4859 30.0156 11.556 30.2555 11.6566C30.7353 11.8492 31.4164 12.1425 32.226 12.532C34.2839 13.5207 36.2375 14.7218 38.0561 16.1167L37.9748 16.2305C36.1646 14.8402 34.2197 13.6434 32.1703 12.6589C31.3607 12.2694 30.6839 11.9805 30.2041 11.7835L29.6515 11.5647L29.5059 11.5122H29.4673V11.4465L29.5102 11.3853ZM26.3359 11.7267L29.4802 11.3853V11.5253L26.3359 11.8667V11.7267ZM25.6591 13.9982L26.276 11.7748L26.4088 11.8142L25.7919 14.0114L25.6591 13.9982ZM25.5435 14.4359L25.6591 13.9982L25.7919 14.0376L25.6763 14.4753L25.5435 14.4359ZM26.3702 15.9503L25.5477 14.4491L25.6677 14.379L26.4816 15.8453L26.3702 15.9503ZM27.1284 15.7621C26.9014 15.8103 26.6744 15.8672 26.4473 15.9284L26.413 15.7928C26.6401 15.7315 26.8671 15.6746 27.0984 15.6221L27.1284 15.7621ZM27.4668 15.6833C27.3555 15.7096 27.2398 15.7315 27.1284 15.7621L27.0984 15.6221L27.4369 15.5477L27.4668 15.6833ZM38.0005 16.2217C34.5783 15.2033 30.9692 15.0248 27.4668 15.7008L27.4369 15.5652C30.9659 14.8848 34.6027 15.0708 38.0476 16.1079L38.0005 16.2217ZM38.0262 16.2217L37.9705 16.0904H38.0476L38.0262 16.2217ZM38.0005 16.2217H38.0476V16.0816L38.0005 16.2217ZM29.4802 11.3853H29.5059V11.4553L29.4802 11.3853ZM26.2717 11.7748V11.731H26.3188V11.8011L26.2717 11.7748ZM25.6548 13.9982H25.7191H25.6548ZM25.5477 14.4491V14.4228V14.3965H25.612L25.5477 14.4491ZM26.4473 15.9416H26.3959L26.3702 15.8978L26.4302 15.8628L26.4473 15.9416ZM27.1284 15.7621V15.6921V15.7621ZM27.4369 15.5477V15.6177V15.5477ZM38.0476 16.2392H38.0219V16.1736L38.0476 16.2392ZM38.0904 16.1123L38.5659 16.4843L38.0219 16.2348L38.0476 16.1692L38.0904 16.1123Z" fill="#0F172A"/>
<path d="M38.022 16.1692C34.5885 15.1426 30.9663 14.9581 27.4499 15.6308L26.7859 14.8561L27.6084 12.5145H29.4803C32.4238 13.4832 35.2813 14.7058 38.022 16.1692Z" fill="#E0E5FF"/>
<path d="M29.4808 12.4488H29.5193L29.6693 12.5014L30.2433 12.6939C30.7316 12.8646 31.4256 13.1097 32.2438 13.4293C34.2325 14.1948 36.1712 15.0895 38.0482 16.1079L37.9839 16.2348C36.1187 15.2217 34.1913 14.3328 32.2138 13.5737C31.3999 13.2586 30.7059 13.0091 30.2176 12.8384L29.6521 12.6458L29.4808 12.5976H29.4422V12.532L29.4808 12.4488ZM27.6002 12.4488H29.4808V12.5889H27.6088L27.6002 12.4488ZM26.7135 14.8342L27.536 12.497L27.6645 12.5407L26.8506 14.8868L26.7135 14.8342ZM27.3903 15.6833L26.7349 14.8868L26.8377 14.7948L27.5017 15.5739L27.3903 15.6833ZM37.9925 16.2436C34.5752 15.2168 30.9686 15.0308 27.4674 15.7009L27.4375 15.5608C30.9668 14.8854 34.6025 15.0713 38.0482 16.1035L37.9925 16.2436ZM29.4808 12.4445V12.5101V12.4445ZM27.5574 12.4926V12.4445H27.6045V12.5145L27.5574 12.4926ZM26.7349 14.8868H26.7092V14.8474L26.7735 14.8736L26.7349 14.8868ZM27.4674 15.6877H27.4246L27.3989 15.6571L27.4503 15.6089L27.4674 15.6877ZM38.0525 16.0948L38.0011 16.2261V16.156L38.0525 16.0948Z" fill="#0F172A"/>
<path d="M27.112 15.7052L26.4309 15.8759C26.1569 15.969 25.8881 16.0771 25.6255 16.1998C22.5284 17.5829 21.7702 19.9858 21.7702 19.9858L15.3447 16.7995L14.2952 16.2874C14.6017 15.0233 15.2332 13.8658 16.1243 12.9347C16.5955 12.4488 18.0091 10.9913 20.0953 10.9301C21.7617 10.8819 22.9482 11.7529 24.2248 12.6808C25.3498 13.5106 26.3265 14.5322 27.112 15.7009V15.7052Z" fill="#E0E5FF"/>
<path d="M25.7754 13.9457C26.2892 14.4763 26.7565 15.0519 27.1719 15.6658L27.0563 15.749C26.6491 15.1377 26.1873 14.5662 25.6769 14.042L25.7754 13.9457ZM24.2633 12.6326C24.8027 13.0259 25.3086 13.4651 25.7754 13.9457L25.6769 14.042C25.2153 13.5624 24.7152 13.1232 24.1819 12.7289L24.2633 12.6326ZM20.0952 10.8819C21.783 10.8337 22.991 11.7179 24.2633 12.6326L24.1819 12.7464C22.8968 11.8098 21.7359 10.9563 20.0995 10.9957L20.0952 10.8819ZM16.0771 12.9084C16.5441 12.4182 17.9791 10.9432 20.0952 10.8819V11.0219C18.0348 11.0832 16.6383 12.5188 16.1714 13.0047L16.0771 12.9084ZM14.2309 16.2698C14.5387 14.9935 15.1763 13.825 16.0771 12.8865L16.1757 12.9828C15.2944 13.9049 14.669 15.0499 14.3637 16.3005L14.2309 16.2698ZM15.3104 16.8651L14.2651 16.3486L14.3251 16.2217L15.3703 16.7381L15.3104 16.8651ZM21.7702 20.0471L15.3104 16.8651L15.3703 16.7381L21.8216 19.9201L21.7702 20.0471ZM25.6683 16.2611C24.4689 16.7748 23.4208 17.5983 22.6269 18.6508C22.4006 18.9527 22.204 19.2767 22.04 19.6181C21.9938 19.7107 21.9524 19.8056 21.9158 19.9026L21.8858 19.977H21.8173H21.753L21.783 19.8939C21.8087 19.8238 21.8516 19.7232 21.9115 19.5962C22.0817 19.2487 22.2825 18.9176 22.5113 18.6071C23.3206 17.5184 24.394 16.6644 25.6255 16.1298L25.6683 16.2611ZM26.4608 15.9416C26.1909 16.0325 25.9263 16.1392 25.6683 16.2611L25.6126 16.1298C25.875 16.008 26.1439 15.9013 26.418 15.8102L26.4608 15.9416ZM27.1291 15.7621C26.902 15.8146 26.675 15.8671 26.448 15.9328L26.4137 15.7971C26.6407 15.7315 26.8678 15.6746 27.0991 15.6264L27.1291 15.7621ZM25.6769 14.0113L25.724 13.9632L25.6769 14.0113ZM24.1819 12.6983L24.2247 12.6414L24.1819 12.6983ZM16.0771 12.834L16.1243 12.8821L16.0771 12.834ZM14.2651 16.2961L14.218 16.2698V16.2173H14.2823L14.2651 16.2961ZM15.3703 16.6856L15.3403 16.7469L15.3703 16.6856ZM21.8601 19.9508L21.8344 20.0296L21.7702 20.0471L21.8002 19.9814L21.8601 19.9508ZM25.6598 16.2085L25.6255 16.1998L25.6598 16.2085ZM26.4094 15.7709V15.8365V15.7709Z" fill="#0F172A"/>
<path d="M25.6253 16.1998C22.5282 17.5829 21.77 19.9858 21.77 19.9858L15.3445 16.7994C15.9886 15.4182 17.0524 14.2867 18.3773 13.5737C19.0579 13.1831 19.8288 12.9866 20.6091 13.0047C21.6072 13.0528 22.2841 13.4818 23.1408 14.0332C24.0655 14.6311 24.9021 15.3607 25.6253 16.1998Z" fill="#F1F5F9"/>
<path d="M23.1796 13.9544C24.1119 14.5576 24.9544 15.2946 25.6813 16.1429L25.5785 16.2348C24.8618 15.3861 24.0277 14.6488 23.1025 14.0463L23.1796 13.9544ZM20.6094 12.9127C21.6246 12.9609 22.3228 13.4029 23.1796 13.9544L23.1025 14.0726C22.2457 13.5211 21.5818 13.0966 20.6051 13.0528L20.6094 12.9127ZM18.3433 13.4905C19.0347 13.0948 19.8171 12.8953 20.6094 12.9127V13.0528C19.8412 13.0371 19.0827 13.2304 18.4118 13.613L18.3433 13.4905ZM15.2804 16.7688C15.9258 15.3651 17.0009 14.2143 18.3433 13.4905L18.4033 13.613C17.0878 14.3256 16.0352 15.4563 15.4047 16.8344L15.2804 16.7688ZM21.7703 20.0427L15.3104 16.8651L15.3704 16.7381L21.8217 19.9157L21.7703 20.0427ZM25.6684 16.2567C24.4698 16.7718 23.422 17.595 22.627 18.6464C22.4007 18.9483 22.2041 19.2723 22.0401 19.6137C21.9939 19.7063 21.9524 19.8013 21.9159 19.8982C21.9079 19.9238 21.8979 19.9487 21.8859 19.9726V19.9945H21.8174H21.7531L21.7831 19.9114C21.8211 19.8115 21.864 19.7136 21.9116 19.6181C22.0806 19.2685 22.2814 18.9358 22.5113 18.6246C23.3179 17.5278 24.3916 16.6662 25.6256 16.1254L25.6684 16.2567ZM23.1882 13.9544L23.141 14.0113L23.1882 13.9544ZM18.4161 13.613L18.3776 13.5736L18.4161 13.613ZM15.319 16.8651L15.259 16.8344L15.289 16.7688L15.349 16.7994L15.319 16.8651ZM21.8688 19.9989L21.8431 20.0777L21.7703 20.0427L21.8002 19.977L21.8688 19.9989Z" fill="#0F172A"/>
<path d="M30.269 41.3712L32.6551 27.9692H37.7141L40.9654 32.6306L38.6608 46.3302H33.4775L30.269 41.3712Z" fill="#4264FF"/>
<path d="M63.4591 46.3302H44.5809L41.1667 41.4544L42.7303 32.7138L47.5409 27.9692H67.3658L70.4073 32.6306L70.0389 35.1079H60.8675L61.4415 31.5408H52.3558L50.4195 42.3779H64.2387L63.4591 46.3302Z" fill="#4264FF"/>
<path d="M77.6035 46.3302H68.4321L71.5978 27.9692H95.1624L98.3709 32.6306L97.5484 38.2636L95.081 40.7847L96.6017 43.0913L96.2762 45.0697L91.5855 49.9411H86.2823L87.5546 42.6318H82.9924L83.5579 39.0602L88.1329 39.0909L89.5722 31.5802L80.358 31.497L77.6035 46.3302Z" fill="#4264FF"/>
<path d="M112.147 46.2865H107.131L109.641 31.4532H100.384L101.001 27.9692H124.073L123.375 31.4138H118.727L117.001 41.5813L112.147 46.2865Z" fill="#4264FF"/>
<path d="M0.312012 58L1.66113 51.5576H2.98389L1.63916 58H0.312012ZM2.86084 58L4.20557 51.5576H5.53271L4.96143 54.2954L7.94092 51.5576H9.71631L6.82471 54.0845L8.94727 58H7.44873L5.85791 54.9326L4.60547 56.0269L4.19238 58H2.86084ZM13.0825 58H11.8257L11.5928 52.6167L10.5688 58H9.37354L10.7183 51.5576H12.6079L12.8057 56.0708L15.0029 51.5576H16.9146L15.5654 58H14.3569L15.627 52.6562L13.0825 58ZM16.8179 58L18.167 51.5576H19.4897L18.145 58H16.8179ZM26.5518 55.6797L27.8877 55.8818C27.627 56.6055 27.2358 57.1592 26.7144 57.543C26.1929 57.9238 25.582 58.1143 24.8818 58.1143C24.0938 58.1143 23.4771 57.877 23.0317 57.4023C22.5894 56.9277 22.3682 56.2393 22.3682 55.3369C22.3682 54.6045 22.5161 53.9351 22.812 53.3286C23.1108 52.7192 23.5239 52.2534 24.0513 51.9312C24.5786 51.6089 25.1528 51.4478 25.7739 51.4478C26.4712 51.4478 27.0352 51.6353 27.4658 52.0103C27.8965 52.3823 28.1499 52.8906 28.2261 53.5352L26.9561 53.6582C26.8857 53.2832 26.7495 53.0122 26.5474 52.8452C26.3481 52.6753 26.0815 52.5903 25.7476 52.5903C25.3813 52.5903 25.0386 52.7017 24.7192 52.9243C24.4028 53.147 24.1494 53.4956 23.959 53.9702C23.7686 54.4419 23.6733 54.9136 23.6733 55.3853C23.6733 55.9009 23.7964 56.2993 24.0425 56.5806C24.2915 56.8618 24.6006 57.0024 24.9697 57.0024C25.3125 57.0024 25.626 56.8911 25.9102 56.6685C26.1973 56.4458 26.4111 56.1162 26.5518 55.6797ZM28.3315 58L29.6807 51.5576H31.0034L29.6587 58H28.3315ZM32.2471 58H30.9199L32.269 51.5576H35.1299C35.6221 51.5576 36.0044 51.6089 36.2769 51.7114C36.5522 51.811 36.7734 51.9956 36.9404 52.2651C37.1104 52.5347 37.1953 52.8613 37.1953 53.2451C37.1953 53.793 37.0312 54.2456 36.7031 54.603C36.375 54.9575 35.8784 55.1772 35.2134 55.2622C35.3833 55.4146 35.543 55.6152 35.6924 55.8643C35.9883 56.3682 36.3179 57.0801 36.6812 58H35.2573C35.1431 57.6367 34.9189 57.0698 34.585 56.2993C34.4033 55.8833 34.21 55.6035 34.0049 55.46C33.8789 55.375 33.6592 55.3325 33.3457 55.3325H32.8052L32.2471 58ZM33.0073 54.3657H33.7104C34.4224 54.3657 34.894 54.3232 35.1255 54.2383C35.3599 54.1533 35.543 54.02 35.6748 53.8384C35.8066 53.6567 35.8726 53.4663 35.8726 53.2671C35.8726 53.0327 35.7773 52.8569 35.5869 52.7397C35.4697 52.6694 35.2163 52.6343 34.8267 52.6343H33.3677L33.0073 54.3657ZM37.3975 58L38.7422 51.5576H43.519L43.2949 52.6343H39.8452L39.5376 54.0977H42.873L42.6489 55.1743H39.3135L38.9092 56.9233H42.6577L42.4292 58H37.3975ZM43.3916 58L44.7407 51.5576H46.9424C47.4199 51.5576 47.7539 51.5723 47.9443 51.6016C48.2607 51.6455 48.5288 51.7334 48.7485 51.8652C48.9683 51.9971 49.1353 52.1729 49.2495 52.3926C49.3638 52.6123 49.4209 52.8555 49.4209 53.1221C49.4209 53.4795 49.3213 53.79 49.1221 54.0537C48.9229 54.3145 48.6152 54.5122 48.1992 54.647C48.5303 54.7378 48.7881 54.9004 48.9727 55.1348C49.1602 55.3662 49.2539 55.6284 49.2539 55.9214C49.2539 56.3081 49.144 56.6758 48.9243 57.0244C48.7046 57.3701 48.4014 57.6191 48.0146 57.7715C47.6279 57.9238 47.0991 58 46.4282 58H43.3916ZM45.5186 54.1592H46.5293C46.9834 54.1592 47.3101 54.127 47.5093 54.0625C47.7085 53.998 47.8579 53.8926 47.9575 53.7461C48.0571 53.5996 48.1069 53.4429 48.1069 53.2759C48.1069 53.1118 48.0601 52.9771 47.9663 52.8716C47.8726 52.7661 47.7393 52.6958 47.5664 52.6606C47.4697 52.6431 47.2368 52.6343 46.8677 52.6343H45.8394L45.5186 54.1592ZM44.9341 56.9629H46.2129C46.749 56.9629 47.1079 56.9292 47.2896 56.8618C47.4741 56.7915 47.6206 56.6772 47.729 56.519C47.8403 56.3608 47.896 56.1938 47.896 56.0181C47.896 55.8042 47.8169 55.6284 47.6587 55.4907C47.5005 55.3501 47.2368 55.2798 46.8677 55.2798H45.2856L44.9341 56.9629ZM50.3218 55.4731C50.3218 55.0923 50.3789 54.6909 50.4932 54.269C50.6426 53.7036 50.8696 53.2129 51.1743 52.7969C51.4819 52.3809 51.8687 52.0527 52.3345 51.8125C52.8003 51.5693 53.3306 51.4478 53.9253 51.4478C54.7222 51.4478 55.3652 51.6953 55.8545 52.1904C56.3467 52.6855 56.5928 53.3418 56.5928 54.1592C56.5928 54.8389 56.4331 55.4966 56.1138 56.1323C55.7944 56.7681 55.3608 57.2573 54.813 57.6001C54.2651 57.9429 53.6455 58.1143 52.9541 58.1143C52.3535 58.1143 51.8496 57.978 51.4424 57.7056C51.0352 57.4331 50.7466 57.0962 50.5767 56.6948C50.4067 56.2905 50.3218 55.8833 50.3218 55.4731ZM51.6313 55.4468C51.6313 55.8892 51.7661 56.2598 52.0356 56.5586C52.3052 56.8574 52.6597 57.0068 53.0991 57.0068C53.4565 57.0068 53.7993 56.8896 54.1274 56.6553C54.4585 56.418 54.731 56.0605 54.9448 55.583C55.1616 55.1025 55.27 54.6353 55.27 54.1812C55.27 53.6743 55.1338 53.2773 54.8613 52.9902C54.5889 52.7002 54.2417 52.5552 53.8198 52.5552C53.1724 52.5552 52.645 52.8569 52.2378 53.4604C51.8335 54.064 51.6313 54.7261 51.6313 55.4468ZM62.0596 58H60.8247L59.0845 53.6714L58.1792 58H56.9443L58.2891 51.5576H59.5283L61.2729 55.8687L62.1738 51.5576H63.4043L62.0596 58ZM67.2715 58H65.9443L67.2935 51.5576H70.1543C70.6465 51.5576 71.0288 51.6089 71.3013 51.7114C71.5767 51.811 71.7979 51.9956 71.9648 52.2651C72.1348 52.5347 72.2197 52.8613 72.2197 53.2451C72.2197 53.793 72.0557 54.2456 71.7275 54.603C71.3994 54.9575 70.9028 55.1772 70.2378 55.2622C70.4077 55.4146 70.5674 55.6152 70.7168 55.8643C71.0127 56.3682 71.3423 57.0801 71.7056 58H70.2817C70.1675 57.6367 69.9434 57.0698 69.6094 56.2993C69.4277 55.8833 69.2344 55.6035 69.0293 55.46C68.9033 55.375 68.6836 55.3325 68.3701 55.3325H67.8296L67.2715 58ZM68.0317 54.3657H68.7349C69.4468 54.3657 69.9185 54.3232 70.1499 54.2383C70.3843 54.1533 70.5674 54.02 70.6992 53.8384C70.8311 53.6567 70.897 53.4663 70.897 53.2671C70.897 53.0327 70.8018 52.8569 70.6113 52.7397C70.4941 52.6694 70.2407 52.6343 69.8511 52.6343H68.3921L68.0317 54.3657ZM72.8394 55.4731C72.8394 55.0923 72.8965 54.6909 73.0107 54.269C73.1602 53.7036 73.3872 53.2129 73.6919 52.7969C73.9995 52.3809 74.3862 52.0527 74.8521 51.8125C75.3179 51.5693 75.8481 51.4478 76.4429 51.4478C77.2397 51.4478 77.8828 51.6953 78.3721 52.1904C78.8643 52.6855 79.1104 53.3418 79.1104 54.1592C79.1104 54.8389 78.9507 55.4966 78.6313 56.1323C78.312 56.7681 77.8784 57.2573 77.3306 57.6001C76.7827 57.9429 76.1631 58.1143 75.4717 58.1143C74.8711 58.1143 74.3672 57.978 73.96 57.7056C73.5527 57.4331 73.2642 57.0962 73.0942 56.6948C72.9243 56.2905 72.8394 55.8833 72.8394 55.4731ZM74.1489 55.4468C74.1489 55.8892 74.2837 56.2598 74.5532 56.5586C74.8228 56.8574 75.1772 57.0068 75.6167 57.0068C75.9741 57.0068 76.3169 56.8896 76.645 56.6553C76.9761 56.418 77.2485 56.0605 77.4624 55.583C77.6792 55.1025 77.7876 54.6353 77.7876 54.1812C77.7876 53.6743 77.6514 53.2773 77.3789 52.9902C77.1064 52.7002 76.7593 52.5552 76.3374 52.5552C75.6899 52.5552 75.1626 52.8569 74.7554 53.4604C74.3511 54.064 74.1489 54.7261 74.1489 55.4468ZM79.418 58L80.7671 51.5576H82.9688C83.4463 51.5576 83.7803 51.5723 83.9707 51.6016C84.2871 51.6455 84.5552 51.7334 84.7749 51.8652C84.9946 51.9971 85.1616 52.1729 85.2759 52.3926C85.3901 52.6123 85.4473 52.8555 85.4473 53.1221C85.4473 53.4795 85.3477 53.79 85.1484 54.0537C84.9492 54.3145 84.6416 54.5122 84.2256 54.647C84.5566 54.7378 84.8145 54.9004 84.999 55.1348C85.1865 55.3662 85.2803 55.6284 85.2803 55.9214C85.2803 56.3081 85.1704 56.6758 84.9507 57.0244C84.731 57.3701 84.4277 57.6191 84.041 57.7715C83.6543 57.9238 83.1255 58 82.4546 58H79.418ZM81.5449 54.1592H82.5557C83.0098 54.1592 83.3364 54.127 83.5356 54.0625C83.7349 53.998 83.8843 53.8926 83.9839 53.7461C84.0835 53.5996 84.1333 53.4429 84.1333 53.2759C84.1333 53.1118 84.0864 52.9771 83.9927 52.8716C83.8989 52.7661 83.7656 52.6958 83.5928 52.6606C83.4961 52.6431 83.2632 52.6343 82.894 52.6343H81.8657L81.5449 54.1592ZM80.9604 56.9629H82.2393C82.7754 56.9629 83.1343 56.9292 83.3159 56.8618C83.5005 56.7915 83.647 56.6772 83.7554 56.519C83.8667 56.3608 83.9224 56.1938 83.9224 56.0181C83.9224 55.8042 83.8433 55.6284 83.6851 55.4907C83.5269 55.3501 83.2632 55.2798 82.894 55.2798H81.312L80.9604 56.9629ZM86.3481 55.4731C86.3481 55.0923 86.4053 54.6909 86.5195 54.269C86.6689 53.7036 86.896 53.2129 87.2007 52.7969C87.5083 52.3809 87.895 52.0527 88.3608 51.8125C88.8267 51.5693 89.3569 51.4478 89.9517 51.4478C90.7485 51.4478 91.3916 51.6953 91.8809 52.1904C92.373 52.6855 92.6191 53.3418 92.6191 54.1592C92.6191 54.8389 92.4595 55.4966 92.1401 56.1323C91.8208 56.7681 91.3872 57.2573 90.8394 57.6001C90.2915 57.9429 89.6719 58.1143 88.9805 58.1143C88.3799 58.1143 87.876 57.978 87.4688 57.7056C87.0615 57.4331 86.7729 57.0962 86.603 56.6948C86.4331 56.2905 86.3481 55.8833 86.3481 55.4731ZM87.6577 55.4468C87.6577 55.8892 87.7925 56.2598 88.062 56.5586C88.3315 56.8574 88.686 57.0068 89.1255 57.0068C89.4829 57.0068 89.8257 56.8896 90.1538 56.6553C90.4849 56.418 90.7573 56.0605 90.9712 55.583C91.188 55.1025 91.2964 54.6353 91.2964 54.1812C91.2964 53.6743 91.1602 53.2773 90.8877 52.9902C90.6152 52.7002 90.2681 52.5552 89.8462 52.5552C89.1987 52.5552 88.6714 52.8569 88.2642 53.4604C87.8599 54.064 87.6577 54.7261 87.6577 55.4468ZM95.7393 58H94.4121L95.5371 52.6343H93.6475L93.8716 51.5576H98.9473L98.7231 52.6343H96.8599L95.7393 58ZM98.3804 58L99.7295 51.5576H101.052L99.7075 58H98.3804ZM105.609 55.6797L106.945 55.8818C106.685 56.6055 106.293 57.1592 105.772 57.543C105.25 57.9238 104.64 58.1143 103.939 58.1143C103.151 58.1143 102.535 57.877 102.089 57.4023C101.647 56.9277 101.426 56.2393 101.426 55.3369C101.426 54.6045 101.574 53.9351 101.87 53.3286C102.168 52.7192 102.582 52.2534 103.109 51.9312C103.636 51.6089 104.21 51.4478 104.832 51.4478C105.529 51.4478 106.093 51.6353 106.523 52.0103C106.954 52.3823 107.208 52.8906 107.284 53.5352L106.014 53.6582C105.943 53.2832 105.807 53.0122 105.605 52.8452C105.406 52.6753 105.139 52.5903 104.805 52.5903C104.439 52.5903 104.096 52.7017 103.777 52.9243C103.46 53.147 103.207 53.4956 103.017 53.9702C102.826 54.4419 102.731 54.9136 102.731 55.3853C102.731 55.9009 102.854 56.2993 103.1 56.5806C103.349 56.8618 103.658 57.0024 104.027 57.0024C104.37 57.0024 104.684 56.8911 104.968 56.6685C105.255 56.4458 105.469 56.1162 105.609 55.6797ZM112.755 58H111.428L112.553 52.6343H110.663L110.887 51.5576H115.963L115.739 52.6343H113.875L112.755 58ZM115.453 58L116.798 51.5576H121.575L121.351 52.6343H117.901L117.593 54.0977H120.929L120.705 55.1743H117.369L116.965 56.9233H120.713L120.485 58H115.453ZM125.675 56.5762H123.122L122.348 58H120.986L124.629 51.5576H126.101L127.147 58H125.89L125.675 56.5762ZM125.512 55.5039L125.139 52.9111L123.583 55.5039H125.512ZM131.665 58H130.408L130.175 52.6167L129.151 58H127.956L129.3 51.5576H131.19L131.388 56.0708L133.585 51.5576H135.497L134.147 58H132.939L134.209 52.6562L131.665 58Z" fill="#4264FF"/>
</svg>
