<svg width="540" height="540" viewBox="0 0 540 540" fill="none" xmlns="http://www.w3.org/2000/svg">
<path d="M314.837 275.003L301.337 260.069L278.21 261.512L248.079 290.191L278.927 271.873L314.837 275.003Z" fill="#4264FF" stroke="#231F20" stroke-width="1.49" stroke-miterlimit="10"/>
<path d="M327.307 294.342L323.688 281.154L288.444 277.897L256.998 304.282L289.896 287.12L327.307 294.342Z" fill="#4264FF" stroke="#231F20" stroke-width="1.49" stroke-miterlimit="10"/>
<path d="M331.644 301.573L295.312 293.439L263.689 325.974L299.472 304.282L332.91 313.327L331.644 301.573Z" fill="#4264FF" stroke="#231F20" stroke-width="1.49" stroke-miterlimit="10"/>
<path d="M338.69 319.646L302.181 314.229L266.22 345.136L307.606 324.532L338.69 331.577V319.646Z" fill="#4264FF" stroke="#231F20" stroke-width="1.49" stroke-miterlimit="10"/>
<path d="M342.672 336.639H313.208L281.458 363.563L315.562 345.136L342.672 348.384V336.639Z" fill="#4264FF" stroke="#231F20" stroke-width="1.49" stroke-miterlimit="10"/>
<path d="M296.578 452.309L264.229 421.031C264.229 421.031 256.635 413.8 243.084 424.651C229.534 435.502 214.523 451.212 214.523 451.212C241.783 454.107 269.251 454.474 296.578 452.309V452.309Z" fill="#4264FF" stroke="#231F20" stroke-width="1.49" stroke-miterlimit="10"/>
<path d="M313.934 446.707C313.934 446.707 261.335 457.186 216.515 438.936C208.406 436.219 207.478 441.281 200.61 448.698C193.742 456.114 167.172 484.658 161.03 511.051C159.401 518.822 162.11 516.291 172.412 513.937C182.714 511.583 258.626 497.129 268.599 498.217C278.573 499.306 313.934 446.707 313.934 446.707Z" fill="#4264FF" stroke="#231F20" stroke-width="1.49" stroke-miterlimit="10"/>
<path d="M342.672 405.498C342.672 405.498 246.156 515.346 238.891 520.248C238.891 520.248 337.939 485.021 352.755 472.011C367.571 459 342.672 405.498 342.672 405.498Z" fill="#4264FF" stroke="#231F20" stroke-width="1.49" stroke-miterlimit="10"/>
<path d="M357.497 336.656L336.344 397.204C336.344 397.204 332.007 402.806 337.424 409.86C342.841 416.914 355.286 465.885 334.699 504.925C334.699 504.925 390.386 467.606 404.84 436.202C419.293 404.797 388.226 322.363 357.497 336.656Z" fill="#4264FF" stroke="#231F20" stroke-width="1.49" stroke-miterlimit="10"/>
<path d="M460.147 385.256C460.147 385.256 430.144 435.881 401.228 465.505C401.228 465.505 391.466 370.432 386.404 361.041C381.341 351.65 383.518 340.791 349.54 342.959L341.769 309.707C341.769 309.707 473.884 354.527 460.147 385.256Z" fill="#4264FF" stroke="#231F20" stroke-width="1.49" stroke-miterlimit="10"/>
<path d="M489.788 281.154C489.788 281.154 495.568 365.732 464.847 399.718C464.847 399.718 412.476 339.179 353.152 323.443C353.152 323.443 353.557 314.904 344.343 317.208L335.711 313.141V286.031L489.788 281.154Z" fill="#4264FF" stroke="#231F20" stroke-width="1.49" stroke-miterlimit="10"/>
<path d="M461.152 197.648C461.152 197.648 498.943 262.238 501.356 299.346C501.356 299.346 489.788 278.859 332.91 293.439L324.413 269.224C324.413 269.224 435.223 181.567 461.152 197.648Z" fill="#4264FF" stroke="#231F20" stroke-width="1.49" stroke-miterlimit="10"/>
<path d="M281.458 229.821L324.413 275.13C324.413 275.13 427.25 202.348 475.327 205.605C475.327 205.605 431.325 124.276 401.456 121.745C392.377 149.49 375.918 174.241 353.843 193.345L281.458 229.821Z" fill="#4264FF" stroke="#231F20" stroke-width="1.49" stroke-miterlimit="10"/>
<path d="M132.654 135.118C143.573 110.945 183.862 28.8056 254.593 19.0856C260.301 18.3035 266.065 18.0071 271.823 18.1997C265.531 18.3917 259.271 19.1713 253.125 20.5284C189 34.7372 157.604 108.278 149.504 128.967L132.654 135.118Z" fill="#4264FF" stroke="#231F20" stroke-width="1.49" stroke-miterlimit="10"/>
<path d="M90.72 188.249C90.72 188.249 100.364 170.657 129.76 143.674C129.76 143.674 104.22 147.53 99.8831 149.934C99.8831 149.934 136.029 128.486 149.664 123.668C149.664 123.668 45.8831 103.908 41.5884 105.359L171.239 107.047L146.897 99.8241L197.716 94.5L176.757 81.2531C176.757 81.2531 243.987 96.4406 349.54 61.3744L351.709 81.6244L417.732 73.5497C417.732 73.5497 389.121 124.824 385.501 133.861C381.881 142.897 358.931 181.955 347.372 188.258L345.203 145.066L285.736 90.1209L271.823 104.397" fill="#4264FF"/>
<path d="M90.72 188.249C90.72 188.249 100.364 170.657 129.76 143.674C129.76 143.674 104.22 147.53 99.8831 149.934C99.8831 149.934 136.029 128.486 149.664 123.668C149.664 123.668 45.8831 103.908 41.5884 105.359L171.239 107.047L146.897 99.8241L197.716 94.5L176.757 81.2531C176.757 81.2531 243.987 96.4406 349.54 61.3744L351.709 81.6244L417.732 73.5497C417.732 73.5497 389.121 124.824 385.501 133.861C381.881 142.897 358.931 181.955 347.372 188.258L345.203 145.066L285.736 90.1209L271.823 104.397" stroke="#231F20" stroke-width="1.49" stroke-miterlimit="10"/>
<path d="M345.5 144.5L347 186C347 186 344.5 170.824 327.5 153.5C310.5 136.176 294 133 294 133C294 133 290.822 126.883 286 121.5C278.386 113 270.5 105 270.5 105L286 90.5L345.5 144.5Z" fill="#4264FF" stroke="#231F20" stroke-width="1.49"/>
<path d="M155.064 135.118C155.064 135.118 284.107 38.9644 358.214 21.2541C335.356 30.6309 313.172 41.5722 291.819 54C275.628 63.4331 261.014 73.0772 247.944 82.4934" fill="#4264FF"/>
<path d="M155.064 135.118C155.064 135.118 284.107 38.9644 358.214 21.2541C335.356 30.6309 313.172 41.5722 291.819 54C275.628 63.4331 261.014 73.0772 247.944 82.4934" stroke="#231F20" stroke-width="1.49" stroke-miterlimit="10"/>
<path d="M207.115 110.295L244.232 85.9528" stroke="#231F20" stroke-width="1.49" stroke-miterlimit="10"/>
<path d="M345.018 121.745L373.579 140.721L347.372 185.726" fill="#4264FF"/>
<path d="M345.018 121.745L373.579 140.721L347.372 185.726" stroke="#231F20" stroke-width="1.49" stroke-miterlimit="10"/>
<path d="M312.846 112.345L322.068 92.8125L340.875 110.295C340.875 110.295 342.503 135.295 354.974 145.96L347.38 181.744" stroke="#231F20" stroke-width="1.49" stroke-miterlimit="10"/>
<path d="M370.955 117.129L351.709 109.358V81.6159" fill="#4264FF"/>
<path d="M370.955 117.129L351.709 109.358V81.6159" stroke="#231F20" stroke-width="1.49" stroke-miterlimit="10"/>
<path d="M270 109.814C270 109.814 266.92 95.5378 252.467 103.849C252.467 103.849 250.476 91.665 233.904 105.536C217.333 119.407 186.823 134.519 175.736 150.913C164.649 167.307 231.643 172.353 231.643 172.353L276.699 145.969L270 109.814Z" fill="#231F20" stroke="#231F20" stroke-width="1.49" stroke-miterlimit="10"/>
<path d="M228.479 128.039L259.529 91.4962C259.529 91.4962 209.528 119.34 205.065 128.25C204.221 130.385 220.75 129.6 225.939 129.305C226.426 129.276 226.902 129.149 227.339 128.932C227.775 128.714 228.163 128.411 228.479 128.039Z" fill="white" stroke="#231F20" stroke-width="1.49" stroke-miterlimit="10"/>
<path d="M266.507 141.683L250.054 124.656C249.692 124.282 249.412 123.839 249.228 123.353C249.045 122.867 248.964 122.348 248.989 121.83C249.015 121.311 249.146 120.803 249.376 120.337C249.605 119.871 249.928 119.457 250.324 119.121L266.245 105.621C266.955 105.012 267.866 104.687 268.801 104.711C269.736 104.734 270.629 105.103 271.308 105.747C276.632 110.81 289.077 123.137 294.57 133.675C294.836 134.203 294.974 134.785 294.974 135.376C294.974 135.967 294.835 136.549 294.57 137.077C294.304 137.604 293.918 138.062 293.443 138.413C292.969 138.765 292.418 139 291.836 139.101L270.329 142.931C269.638 143.051 268.929 143 268.263 142.782C267.597 142.564 266.994 142.187 266.507 141.683V141.683Z" fill="#B8CFE6" stroke="#231F20" stroke-width="1.49" stroke-miterlimit="10"/>
<path d="M253.64 144.281L243.709 130.942C243.262 130.343 242.603 129.939 241.868 129.81C241.132 129.681 240.375 129.839 239.752 130.25L226.657 138.89C226.185 139.201 225.814 139.643 225.588 140.161C225.362 140.679 225.29 141.251 225.383 141.809L228.521 160.532C228.602 161.02 228.806 161.479 229.112 161.867C229.419 162.254 229.82 162.558 230.276 162.748C230.732 162.939 231.229 163.01 231.721 162.956C232.212 162.902 232.682 162.724 233.086 162.439L252.982 148.416C253.301 148.191 253.572 147.905 253.778 147.573C253.985 147.242 254.123 146.873 254.184 146.487C254.245 146.102 254.229 145.708 254.135 145.329C254.042 144.95 253.873 144.594 253.64 144.281V144.281Z" fill="white" stroke="#231F20" stroke-width="1.49" stroke-miterlimit="10"/>
<path d="M91.4541 188.266C91.466 188.261 91.479 188.258 91.4921 188.258C91.5051 188.258 91.5181 188.261 91.53 188.266C93.9684 187.422 146.829 170.547 205.723 182.562C206.93 182.815 208.153 183.068 209.385 183.364C211.849 183.895 214.304 184.494 216.768 185.152L225.627 169.712L224.37 165.24L217.688 141.75L183.701 138.13C183.701 138.13 136.038 154.271 91.4541 188.266Z" fill="#B8CFE6" stroke="#231F20" stroke-width="1.49" stroke-miterlimit="10"/>
<path d="M91.53 188.241C93.9684 187.397 146.829 170.522 205.723 182.537L212.903 174.327L204.036 149.58H183.938C183.938 149.58 134.882 164.742 91.53 188.241Z" fill="#B8CFE6" stroke="#231F20" stroke-width="1.49" stroke-miterlimit="10"/>
<path d="M209.385 183.338C211.849 183.87 214.304 184.469 216.768 185.127C219.831 186.157 222.674 187.262 225.399 188.502C258.863 203.116 266.87 228.547 266.87 228.547L336.555 194.906L347.853 189.456C344.547 176.091 337.724 163.855 328.092 154.018C323.03 148.871 307.741 133.456 285.196 132.832C267.224 132.325 254.391 141.514 240.612 151.394C234.821 155.541 229.387 160.167 224.37 165.223C218.837 170.795 213.821 176.858 209.385 183.338V183.338Z" fill="#B8CFE6" stroke="#231F20" stroke-width="1.49" stroke-miterlimit="10"/>
<path d="M225.399 188.46C258.862 203.074 266.87 228.504 266.87 228.504L336.555 194.906C332.108 185.878 322.312 169.763 303.75 160.549C298.561 157.967 290.427 154.027 279.652 154.524C268.878 155.022 261.554 159.587 252.298 165.417C242.276 171.772 233.217 179.532 225.399 188.46V188.46Z" fill="#ECEDED" stroke="#231F20" stroke-width="1.49" stroke-miterlimit="10"/>
</svg>
