<svg width="50" height="50" viewBox="0 0 50 50" fill="none" xmlns="http://www.w3.org/2000/svg">
<path d="M48.953 11.276C48.67 10.0648 48.1185 8.9683 47.3574 8.10297C46.5748 7.21103 45.6156 6.57301 44.5703 6.24912C40.6583 5.01239 24.9854 5.01239 24.9854 5.01239C18.4516 4.92323 11.9193 5.31539 5.42556 6.18666C4.38026 6.53448 3.42283 7.18676 2.63843 8.08548C1.8677 8.97493 1.30944 10.0718 1.01782 11.2735C0.31727 15.8001 -0.0231027 20.3962 0.00128563 25C-0.023711 29.5996 0.315827 34.1943 1.01782 38.7265C1.30319 39.9232 1.85937 41.015 2.63218 41.897C3.40499 42.779 4.36737 43.4161 5.42556 43.7533C9.38961 44.9876 24.9854 44.9876 24.9854 44.9876C31.5276 45.0769 38.0682 44.6847 44.5703 43.8133C45.6156 43.4894 46.5748 42.8514 47.3574 41.9595C48.1281 41.0775 48.676 39.9807 48.951 38.7864C49.6698 34.2616 50.0193 29.6636 49.9946 25.0575C50.0486 20.4318 49.6996 15.8121 48.953 11.2735V11.276ZM20.0028 33.5547V16.4478L33.0427 25.0025L20.0028 33.5547Z" fill="#4264FF"/>
</svg>
