<svg width="350" height="350" viewBox="0 0 350 350" fill="none" xmlns="http://www.w3.org/2000/svg">
<path d="M298.986 270.285C283.364 253.358 264.406 239.851 243.306 230.612C222.207 221.373 199.423 216.603 176.389 216.603C153.355 216.603 130.571 221.373 109.471 230.612C88.3718 239.851 69.4138 253.358 53.7917 270.285C51.3797 272.952 50.0306 276.411 50 280.007V338.34C50.0511 342.174 51.6101 345.834 54.3395 348.527C57.0689 351.22 60.749 352.73 64.5833 352.729H288.194C292.062 352.729 295.772 351.193 298.506 348.458C301.241 345.723 302.778 342.014 302.778 338.146V279.813C302.7 276.284 301.354 272.902 298.986 270.285V270.285Z" fill="white"/>
<path d="M176.417 197.111C214.003 197.111 244.473 166.642 244.473 129.056C244.473 91.4695 214.003 61 176.417 61C138.831 61 108.362 91.4695 108.362 129.056C108.362 166.642 138.831 197.111 176.417 197.111Z" fill="white"/>
</svg>
